<svg width="500" height="259" viewBox="0 0 500 259" fill="none" xmlns="http://www.w3.org/2000/svg">
<g filter="url(#filter0_f_763_263)">
<circle cx="118.5" cy="230.188" r="8.13173" transform="rotate(-45 118.5 230.188)" fill="url(#paint0_radial_763_263)"/>
<circle cx="118.5" cy="230.188" r="8.13173" transform="rotate(-45 118.5 230.188)" fill="url(#paint1_linear_763_263)"/>
</g>
<g filter="url(#filter1_f_763_263)">
<path d="M117.003 209.18C119.477 211.654 122.487 213.119 118.872 216.735C115.256 220.35 107.459 222.681 104.985 220.207C102.51 217.732 102.361 214.861 105.976 211.246C109.592 207.631 114.528 206.706 117.003 209.18Z" fill="#110945"/>
<path d="M117.003 209.18C119.477 211.654 122.487 213.119 118.872 216.735C115.256 220.35 107.459 222.681 104.985 220.207C102.51 217.732 102.361 214.861 105.976 211.246C109.592 207.631 114.528 206.706 117.003 209.18Z" fill="#110945"/>
</g>
<circle cx="115.5" cy="205.5" r="8.13173" transform="rotate(-45 115.5 205.5)" fill="url(#paint2_radial_763_263)"/>
<circle cx="115.5" cy="205.5" r="8.13173" transform="rotate(-45 115.5 205.5)" fill="url(#paint3_linear_763_263)"/>
<g filter="url(#filter2_f_763_263)">
<circle cx="474.625" cy="92.3135" r="4.68458" transform="rotate(-45 474.625 92.3135)" fill="url(#paint4_radial_763_263)"/>
<circle cx="474.625" cy="92.3135" r="4.68458" transform="rotate(-45 474.625 92.3135)" fill="url(#paint5_linear_763_263)"/>
</g>
<g filter="url(#filter3_f_763_263)">
<path d="M475.613 76.733C477.1 78.2195 478.907 79.0996 476.736 81.2714C474.564 83.4433 469.88 84.8434 468.394 83.3569C466.907 81.8705 466.817 80.146 468.989 77.9741C471.161 75.8023 474.127 75.2466 475.613 76.733Z" fill="#110945"/>
<path d="M475.613 76.733C477.1 78.2195 478.907 79.0996 476.736 81.2714C474.564 83.4433 469.88 84.8434 468.394 83.3569C466.907 81.8705 466.817 80.146 468.989 77.9741C471.161 75.8023 474.127 75.2466 475.613 76.733Z" fill="#110945"/>
</g>
<circle cx="472.625" cy="76.625" r="4.68458" transform="rotate(-45 472.625 76.625)" fill="url(#paint6_radial_763_263)"/>
<circle cx="472.625" cy="76.625" r="4.68458" transform="rotate(-45 472.625 76.625)" fill="url(#paint7_linear_763_263)"/>
<g opacity="0.6" filter="url(#filter4_f_763_263)">
<circle cx="96.2132" cy="45.9014" r="15" transform="rotate(-45 96.2132 45.9014)" fill="url(#paint8_radial_763_263)"/>
<circle cx="96.2132" cy="45.9014" r="15" transform="rotate(-45 96.2132 45.9014)" fill="url(#paint9_linear_763_263)"/>
</g>
<g filter="url(#filter5_f_763_263)">
<path d="M98.9283 25.3713C102.937 29.3804 107.814 31.7542 101.956 37.6121C96.0979 43.4699 83.465 47.2462 79.4559 43.2371C75.4467 39.228 75.2046 34.5766 81.0625 28.7188C86.9204 22.8609 94.9191 21.3622 98.9283 25.3713Z" fill="#110945"/>
<path d="M98.9283 25.3713C102.937 29.3804 107.814 31.7542 101.956 37.6121C96.0979 43.4699 83.465 47.2462 79.4559 43.2371C75.4467 39.228 75.2046 34.5766 81.0625 28.7188C86.9204 22.8609 94.9191 21.3622 98.9283 25.3713Z" fill="#110945"/>
</g>
<circle cx="93.2132" cy="21.2134" r="15" transform="rotate(-45 93.2132 21.2134)" fill="url(#paint10_radial_763_263)"/>
<circle cx="93.2132" cy="21.2134" r="15" transform="rotate(-45 93.2132 21.2134)" fill="url(#paint11_linear_763_263)"/>
<g filter="url(#filter6_f_763_263)">
<circle cx="177" cy="92.6885" r="11.3138" transform="rotate(-45 177 92.6885)" fill="url(#paint12_radial_763_263)"/>
<circle cx="177" cy="92.6885" r="11.3138" transform="rotate(-45 177 92.6885)" fill="url(#paint13_linear_763_263)"/>
</g>
<g filter="url(#filter7_f_763_263)">
<path d="M176.917 69.9466C180.152 73.1809 184.085 75.0959 179.36 79.8216C174.634 84.5474 164.442 87.5938 161.208 84.3595C157.974 81.1252 157.779 77.3728 162.504 72.6471C167.23 67.9213 173.683 66.7123 176.917 69.9466Z" fill="#110945"/>
<path d="M176.917 69.9466C180.152 73.1809 184.085 75.0959 179.36 79.8216C174.634 84.5474 164.442 87.5938 161.208 84.3595C157.974 81.1252 157.779 77.3728 162.504 72.6471C167.23 67.9213 173.683 66.7123 176.917 69.9466Z" fill="#110945"/>
</g>
<circle cx="174" cy="68" r="11.3138" transform="rotate(-45 174 68)" fill="url(#paint14_radial_763_263)"/>
<circle cx="174" cy="68" r="11.3138" transform="rotate(-45 174 68)" fill="url(#paint15_linear_763_263)"/>
<g filter="url(#filter8_f_763_263)">
<circle cx="32.0001" cy="181.688" r="11.3138" transform="rotate(-45 32.0001 181.688)" fill="url(#paint16_radial_763_263)"/>
<circle cx="32.0001" cy="181.688" r="11.3138" transform="rotate(-45 32.0001 181.688)" fill="url(#paint17_linear_763_263)"/>
</g>
<g filter="url(#filter9_f_763_263)">
<path d="M31.9173 160.195C35.1516 163.429 39.0854 165.344 34.3597 170.07C29.6339 174.795 19.4425 177.842 16.2082 174.608C12.9739 171.373 12.7786 167.621 17.5043 162.895C22.2301 158.169 28.683 156.96 31.9173 160.195Z" fill="#110945"/>
<path d="M31.9173 160.195C35.1516 163.429 39.0854 165.344 34.3597 170.07C29.6339 174.795 19.4425 177.842 16.2082 174.608C12.9739 171.373 12.7786 167.621 17.5043 162.895C22.2301 158.169 28.683 156.96 31.9173 160.195Z" fill="#110945"/>
</g>
<circle cx="29.0001" cy="157" r="11.3138" transform="rotate(-45 29.0001 157)" fill="url(#paint18_radial_763_263)"/>
<circle cx="29.0001" cy="157" r="11.3138" transform="rotate(-45 29.0001 157)" fill="url(#paint19_linear_763_263)"/>
<g filter="url(#filter10_f_763_263)">
<circle cx="191.213" cy="185.684" r="8" transform="rotate(-45 191.213 185.684)" fill="url(#paint20_radial_763_263)"/>
<circle cx="191.213" cy="185.684" r="8" transform="rotate(-45 191.213 185.684)" fill="url(#paint21_radial_763_263)"/>
<circle cx="191.213" cy="185.684" r="8" transform="rotate(-45 191.213 185.684)" fill="url(#paint22_radial_763_263)"/>
<circle cx="191.213" cy="185.684" r="8" transform="rotate(-45 191.213 185.684)" fill="url(#paint23_linear_763_263)" fill-opacity="0.4"/>
</g>
<rect opacity="0.5" x="180" y="84" width="16" height="78" fill="url(#paint24_linear_763_263)"/>
<g filter="url(#filter11_f_763_263)">
<path d="M192.852 162.032C195.326 164.507 198.336 165.972 194.721 169.587C191.105 173.203 183.308 175.534 180.834 173.059C178.359 170.585 178.21 167.714 181.825 164.099C185.441 160.483 190.378 159.558 192.852 162.032Z" fill="#110945"/>
<path d="M192.852 162.032C195.326 164.507 198.336 165.972 194.721 169.587C191.105 173.203 183.308 175.534 180.834 173.059C178.359 170.585 178.21 167.714 181.825 164.099C185.441 160.483 190.378 159.558 192.852 162.032Z" fill="#110945"/>
</g>
<circle cx="188.213" cy="160.995" r="8" transform="rotate(-45 188.213 160.995)" fill="url(#paint25_radial_763_263)"/>
<circle cx="188.213" cy="160.995" r="8" transform="rotate(-45 188.213 160.995)" fill="url(#paint26_radial_763_263)"/>
<circle cx="188.213" cy="160.995" r="8" transform="rotate(-45 188.213 160.995)" fill="url(#paint27_radial_763_263)"/>
<circle cx="188.213" cy="160.995" r="8" transform="rotate(-45 188.213 160.995)" fill="url(#paint28_radial_763_263)"/>
<defs>
<filter id="filter0_f_763_263" x="90.3682" y="202.057" width="56.2637" height="56.2637" filterUnits="userSpaceOnUse" color-interpolation-filters="sRGB">
<feFlood flood-opacity="0" result="BackgroundImageFix"/>
<feBlend mode="normal" in="SourceGraphic" in2="BackgroundImageFix" result="shape"/>
<feGaussianBlur stdDeviation="10" result="effect1_foregroundBlur_763_263"/>
</filter>
<filter id="filter1_f_763_263" x="98.1855" y="202.793" width="27.3584" height="23.4399" filterUnits="userSpaceOnUse" color-interpolation-filters="sRGB">
<feFlood flood-opacity="0" result="BackgroundImageFix"/>
<feBlend mode="normal" in="SourceGraphic" in2="BackgroundImageFix" result="shape"/>
<feGaussianBlur stdDeviation="2.5" result="effect1_foregroundBlur_763_263"/>
</filter>
<filter id="filter2_f_763_263" x="449.94" y="67.6289" width="49.3691" height="49.3691" filterUnits="userSpaceOnUse" color-interpolation-filters="sRGB">
<feFlood flood-opacity="0" result="BackgroundImageFix"/>
<feBlend mode="normal" in="SourceGraphic" in2="BackgroundImageFix" result="shape"/>
<feGaussianBlur stdDeviation="10" result="effect1_foregroundBlur_763_263"/>
</filter>
<filter id="filter3_f_763_263" x="464.309" y="72.8963" width="16.4344" height="14.0809" filterUnits="userSpaceOnUse" color-interpolation-filters="sRGB">
<feFlood flood-opacity="0" result="BackgroundImageFix"/>
<feBlend mode="normal" in="SourceGraphic" in2="BackgroundImageFix" result="shape"/>
<feGaussianBlur stdDeviation="1.50178" result="effect1_foregroundBlur_763_263"/>
</filter>
<filter id="filter4_f_763_263" x="61.2134" y="10.9014" width="70" height="70" filterUnits="userSpaceOnUse" color-interpolation-filters="sRGB">
<feFlood flood-opacity="0" result="BackgroundImageFix"/>
<feBlend mode="normal" in="SourceGraphic" in2="BackgroundImageFix" result="shape"/>
<feGaussianBlur stdDeviation="10" result="effect1_foregroundBlur_763_263"/>
</filter>
<filter id="filter5_f_763_263" x="66.5415" y="13.124" width="48.124" height="41.7759" filterUnits="userSpaceOnUse" color-interpolation-filters="sRGB">
<feFlood flood-opacity="0" result="BackgroundImageFix"/>
<feBlend mode="normal" in="SourceGraphic" in2="BackgroundImageFix" result="shape"/>
<feGaussianBlur stdDeviation="5" result="effect1_foregroundBlur_763_263"/>
</filter>
<filter id="filter6_f_763_263" x="145.687" y="61.3745" width="62.6274" height="62.6279" filterUnits="userSpaceOnUse" color-interpolation-filters="sRGB">
<feFlood flood-opacity="0" result="BackgroundImageFix"/>
<feBlend mode="normal" in="SourceGraphic" in2="BackgroundImageFix" result="shape"/>
<feGaussianBlur stdDeviation="10" result="effect1_foregroundBlur_763_263"/>
</filter>
<filter id="filter7_f_763_263" x="152.857" y="62.1333" width="34.6885" height="29.5679" filterUnits="userSpaceOnUse" color-interpolation-filters="sRGB">
<feFlood flood-opacity="0" result="BackgroundImageFix"/>
<feBlend mode="normal" in="SourceGraphic" in2="BackgroundImageFix" result="shape"/>
<feGaussianBlur stdDeviation="3" result="effect1_foregroundBlur_763_263"/>
</filter>
<filter id="filter8_f_763_263" x="0.686523" y="150.375" width="62.6274" height="62.6279" filterUnits="userSpaceOnUse" color-interpolation-filters="sRGB">
<feFlood flood-opacity="0" result="BackgroundImageFix"/>
<feBlend mode="normal" in="SourceGraphic" in2="BackgroundImageFix" result="shape"/>
<feGaussianBlur stdDeviation="10" result="effect1_foregroundBlur_763_263"/>
</filter>
<filter id="filter9_f_763_263" x="7.85693" y="152.381" width="34.6885" height="29.5679" filterUnits="userSpaceOnUse" color-interpolation-filters="sRGB">
<feFlood flood-opacity="0" result="BackgroundImageFix"/>
<feBlend mode="normal" in="SourceGraphic" in2="BackgroundImageFix" result="shape"/>
<feGaussianBlur stdDeviation="3" result="effect1_foregroundBlur_763_263"/>
</filter>
<filter id="filter10_f_763_263" x="163.213" y="157.684" width="56" height="56" filterUnits="userSpaceOnUse" color-interpolation-filters="sRGB">
<feFlood flood-opacity="0" result="BackgroundImageFix"/>
<feBlend mode="normal" in="SourceGraphic" in2="BackgroundImageFix" result="shape"/>
<feGaussianBlur stdDeviation="10" result="effect1_foregroundBlur_763_263"/>
</filter>
<filter id="filter11_f_763_263" x="174.035" y="155.646" width="27.3584" height="23.4399" filterUnits="userSpaceOnUse" color-interpolation-filters="sRGB">
<feFlood flood-opacity="0" result="BackgroundImageFix"/>
<feBlend mode="normal" in="SourceGraphic" in2="BackgroundImageFix" result="shape"/>
<feGaussianBlur stdDeviation="2.5" result="effect1_foregroundBlur_763_263"/>
</filter>
<radialGradient id="paint0_radial_763_263" cx="0" cy="0" r="1" gradientUnits="userSpaceOnUse" gradientTransform="translate(117.687 224.612) rotate(100.67) scale(13.4577)">
<stop offset="0.125" stop-color="#96F5FE"/>
<stop offset="0.416667" stop-color="#5A67D6"/>
<stop offset="0.552083" stop-color="#6624B8"/>
<stop offset="0.697917" stop-color="#422F9E"/>
<stop offset="0.932292" stop-color="#DFA64A"/>
<stop offset="1" stop-color="#96F5FF"/>
</radialGradient>
<linearGradient id="paint1_linear_763_263" x1="114.961" y1="237.986" x2="118.577" y2="234.371" gradientUnits="userSpaceOnUse">
<stop stop-color="#2D1F73"/>
<stop offset="1" stop-color="#312182" stop-opacity="0"/>
</linearGradient>
<radialGradient id="paint2_radial_763_263" cx="0" cy="0" r="1" gradientUnits="userSpaceOnUse" gradientTransform="translate(114.687 199.924) rotate(100.67) scale(13.4577)">
<stop offset="0.125" stop-color="#96F5FE"/>
<stop offset="0.416667" stop-color="#5A67D6"/>
<stop offset="0.552083" stop-color="#6624B8"/>
<stop offset="0.697917" stop-color="#422F9E"/>
<stop offset="0.932292" stop-color="#DFA64A"/>
<stop offset="1" stop-color="#96F5FF"/>
</radialGradient>
<linearGradient id="paint3_linear_763_263" x1="111.961" y1="213.298" x2="115.577" y2="209.682" gradientUnits="userSpaceOnUse">
<stop stop-color="#2D1F73"/>
<stop offset="1" stop-color="#312182" stop-opacity="0"/>
</linearGradient>
<radialGradient id="paint4_radial_763_263" cx="0" cy="0" r="1" gradientUnits="userSpaceOnUse" gradientTransform="translate(474.157 89.1012) rotate(100.67) scale(7.75279)">
<stop offset="0.125" stop-color="#96F5FE"/>
<stop offset="0.416667" stop-color="#5A67D6"/>
<stop offset="0.552083" stop-color="#6624B8"/>
<stop offset="0.697917" stop-color="#422F9E"/>
<stop offset="0.932292" stop-color="#DFA64A"/>
<stop offset="1" stop-color="#96F5FF"/>
</radialGradient>
<linearGradient id="paint5_linear_763_263" x1="472.587" y1="96.8058" x2="474.67" y2="94.7227" gradientUnits="userSpaceOnUse">
<stop stop-color="#2D1F73"/>
<stop offset="1" stop-color="#312182" stop-opacity="0"/>
</linearGradient>
<radialGradient id="paint6_radial_763_263" cx="0" cy="0" r="1" gradientUnits="userSpaceOnUse" gradientTransform="translate(472.157 73.4127) rotate(100.67) scale(7.75279)">
<stop offset="0.125" stop-color="#96F5FE"/>
<stop offset="0.416667" stop-color="#5A67D6"/>
<stop offset="0.552083" stop-color="#6624B8"/>
<stop offset="0.697917" stop-color="#422F9E"/>
<stop offset="0.932292" stop-color="#DFA64A"/>
<stop offset="1" stop-color="#96F5FF"/>
</radialGradient>
<linearGradient id="paint7_linear_763_263" x1="470.587" y1="81.1173" x2="472.67" y2="79.0342" gradientUnits="userSpaceOnUse">
<stop stop-color="#2D1F73"/>
<stop offset="1" stop-color="#312182" stop-opacity="0"/>
</linearGradient>
<radialGradient id="paint8_radial_763_263" cx="0" cy="0" r="1" gradientUnits="userSpaceOnUse" gradientTransform="translate(94.7143 35.6156) rotate(100.67) scale(24.8244)">
<stop offset="0.125" stop-color="#96F5FE"/>
<stop offset="0.416667" stop-color="#5A67D6"/>
<stop offset="0.552083" stop-color="#6624B8"/>
<stop offset="0.697917" stop-color="#422F9E"/>
<stop offset="0.932292" stop-color="#DFA64A"/>
<stop offset="1" stop-color="#96F5FF"/>
</radialGradient>
<linearGradient id="paint9_linear_763_263" x1="89.686" y1="60.2857" x2="96.3561" y2="53.6157" gradientUnits="userSpaceOnUse">
<stop stop-color="#2D1F73"/>
<stop offset="1" stop-color="#312182" stop-opacity="0"/>
</linearGradient>
<radialGradient id="paint10_radial_763_263" cx="0" cy="0" r="1" gradientUnits="userSpaceOnUse" gradientTransform="translate(91.7143 10.9276) rotate(100.67) scale(24.8244)">
<stop offset="0.125" stop-color="#96F5FE"/>
<stop offset="0.416667" stop-color="#5A67D6"/>
<stop offset="0.552083" stop-color="#6624B8"/>
<stop offset="0.697917" stop-color="#422F9E"/>
<stop offset="0.932292" stop-color="#DFA64A"/>
<stop offset="1" stop-color="#96F5FF"/>
</radialGradient>
<linearGradient id="paint11_linear_763_263" x1="86.686" y1="35.5978" x2="93.3561" y2="28.9277" gradientUnits="userSpaceOnUse">
<stop stop-color="#2D1F73"/>
<stop offset="1" stop-color="#312182" stop-opacity="0"/>
</linearGradient>
<radialGradient id="paint12_radial_763_263" cx="0" cy="0" r="1" gradientUnits="userSpaceOnUse" gradientTransform="translate(175.869 84.9304) rotate(100.67) scale(18.7238)">
<stop offset="0.125" stop-color="#96F5FE"/>
<stop offset="0.416667" stop-color="#5A67D6"/>
<stop offset="0.552083" stop-color="#6624B8"/>
<stop offset="0.697917" stop-color="#422F9E"/>
<stop offset="0.932292" stop-color="#DFA64A"/>
<stop offset="1" stop-color="#96F5FF"/>
</radialGradient>
<linearGradient id="paint13_linear_763_263" x1="172.077" y1="103.538" x2="177.108" y2="98.507" gradientUnits="userSpaceOnUse">
<stop stop-color="#2D1F73"/>
<stop offset="1" stop-color="#312182" stop-opacity="0"/>
</linearGradient>
<radialGradient id="paint14_radial_763_263" cx="0" cy="0" r="1" gradientUnits="userSpaceOnUse" gradientTransform="translate(172.869 60.2419) rotate(100.67) scale(18.7238)">
<stop offset="0.125" stop-color="#96F5FE"/>
<stop offset="0.416667" stop-color="#5A67D6"/>
<stop offset="0.552083" stop-color="#6624B8"/>
<stop offset="0.697917" stop-color="#422F9E"/>
<stop offset="0.932292" stop-color="#DFA64A"/>
<stop offset="1" stop-color="#96F5FF"/>
</radialGradient>
<linearGradient id="paint15_linear_763_263" x1="169.077" y1="78.8494" x2="174.108" y2="73.8185" gradientUnits="userSpaceOnUse">
<stop stop-color="#2D1F73"/>
<stop offset="1" stop-color="#312182" stop-opacity="0"/>
</linearGradient>
<radialGradient id="paint16_radial_763_263" cx="0" cy="0" r="1" gradientUnits="userSpaceOnUse" gradientTransform="translate(30.8695 173.93) rotate(100.67) scale(18.7238)">
<stop offset="0.125" stop-color="#96F5FE"/>
<stop offset="0.416667" stop-color="#5A67D6"/>
<stop offset="0.552083" stop-color="#6624B8"/>
<stop offset="0.697917" stop-color="#422F9E"/>
<stop offset="0.932292" stop-color="#DFA64A"/>
<stop offset="1" stop-color="#96F5FF"/>
</radialGradient>
<linearGradient id="paint17_linear_763_263" x1="27.0769" y1="192.538" x2="32.1078" y2="187.507" gradientUnits="userSpaceOnUse">
<stop stop-color="#2D1F73"/>
<stop offset="1" stop-color="#312182" stop-opacity="0"/>
</linearGradient>
<radialGradient id="paint18_radial_763_263" cx="0" cy="0" r="1" gradientUnits="userSpaceOnUse" gradientTransform="translate(27.8695 149.242) rotate(100.67) scale(18.7238)">
<stop offset="0.125" stop-color="#96F5FE"/>
<stop offset="0.416667" stop-color="#5A67D6"/>
<stop offset="0.552083" stop-color="#6624B8"/>
<stop offset="0.697917" stop-color="#422F9E"/>
<stop offset="0.932292" stop-color="#DFA64A"/>
<stop offset="1" stop-color="#96F5FF"/>
</radialGradient>
<linearGradient id="paint19_linear_763_263" x1="24.0769" y1="167.849" x2="29.1078" y2="162.819" gradientUnits="userSpaceOnUse">
<stop stop-color="#2D1F73"/>
<stop offset="1" stop-color="#312182" stop-opacity="0"/>
</linearGradient>
<radialGradient id="paint20_radial_763_263" cx="0" cy="0" r="1" gradientUnits="userSpaceOnUse" gradientTransform="translate(187.48 182.217) rotate(71.9657) scale(12.0591 11.2427)">
<stop offset="0.0572917" stop-color="white"/>
<stop offset="0.578125" stop-color="#CDE0FC"/>
<stop offset="0.854167" stop-color="#639EF5"/>
<stop offset="1" stop-color="#AC94F0"/>
</radialGradient>
<radialGradient id="paint21_radial_763_263" cx="0" cy="0" r="1" gradientUnits="userSpaceOnUse" gradientTransform="translate(186.946 182.217) rotate(33.3407) scale(12.1297 11.3085)">
<stop offset="0.0572917" stop-color="#F4C86F"/>
<stop offset="0.433972" stop-color="#E7AD51"/>
<stop offset="0.60894" stop-color="#C18B32"/>
<stop offset="1" stop-color="#D37EE8"/>
</radialGradient>
<radialGradient id="paint22_radial_763_263" cx="0" cy="0" r="1" gradientUnits="userSpaceOnUse" gradientTransform="translate(187.319 180.091) rotate(52.125) scale(14.5297 13.546)">
<stop stop-color="#F9DCA3"/>
<stop offset="0.3125" stop-color="#F4C86F"/>
<stop offset="0.494792" stop-color="#E7AD51"/>
<stop offset="0.74188" stop-color="#C18B32"/>
<stop offset="1" stop-color="#D37EE8"/>
</radialGradient>
<linearGradient id="paint23_linear_763_263" x1="187.48" y1="193.684" x2="187.48" y2="187.817" gradientUnits="userSpaceOnUse">
<stop/>
<stop offset="1" stop-opacity="0"/>
</linearGradient>
<linearGradient id="paint24_linear_763_263" x1="163.467" y1="162" x2="163.467" y2="108" gradientUnits="userSpaceOnUse">
<stop stop-color="#E2A94D"/>
<stop offset="1" stop-color="#E24DC1" stop-opacity="0"/>
</linearGradient>
<radialGradient id="paint25_radial_763_263" cx="0" cy="0" r="1" gradientUnits="userSpaceOnUse" gradientTransform="translate(184.48 157.528) rotate(71.9657) scale(12.0591 11.2427)">
<stop offset="0.0572917" stop-color="white"/>
<stop offset="0.578125" stop-color="#CDE0FC"/>
<stop offset="0.854167" stop-color="#639EF5"/>
<stop offset="1" stop-color="#AC94F0"/>
</radialGradient>
<radialGradient id="paint26_radial_763_263" cx="0" cy="0" r="1" gradientUnits="userSpaceOnUse" gradientTransform="translate(183.946 157.528) rotate(33.3407) scale(12.1297 11.3085)">
<stop offset="0.0572917" stop-color="#F4C86F"/>
<stop offset="0.433972" stop-color="#E7AD51"/>
<stop offset="0.60894" stop-color="#C18B32"/>
<stop offset="1" stop-color="#D37EE8"/>
</radialGradient>
<radialGradient id="paint27_radial_763_263" cx="0" cy="0" r="1" gradientUnits="userSpaceOnUse" gradientTransform="translate(184.319 155.402) rotate(52.125) scale(14.5297 13.546)">
<stop stop-color="#F9DCA3"/>
<stop offset="0.3125" stop-color="#F4C86F"/>
<stop offset="0.494792" stop-color="#E7AD51"/>
<stop offset="0.74188" stop-color="#C18B32"/>
<stop offset="1" stop-color="#D37EE8"/>
</radialGradient>
<radialGradient id="paint28_radial_763_263" cx="0" cy="0" r="1" gradientUnits="userSpaceOnUse" gradientTransform="translate(182.674 164.488) rotate(-45) scale(4.8 10.0284)">
<stop stop-color="#38218C"/>
<stop offset="1" stop-color="#3C1DB0" stop-opacity="0"/>
</radialGradient>
</defs>
</svg>
