<svg width="583" height="282" viewBox="0 0 583 282" fill="none" xmlns="http://www.w3.org/2000/svg">
<g filter="url(#filter0_f_760_261)">
<circle cx="346.5" cy="169.188" r="8.13173" transform="rotate(-45 346.5 169.188)" fill="url(#paint0_radial_760_261)"/>
<circle cx="346.5" cy="169.188" r="8.13173" transform="rotate(-45 346.5 169.188)" fill="url(#paint1_linear_760_261)"/>
</g>
<g filter="url(#filter1_f_760_261)">
<path d="M347.003 144.549C349.477 147.024 352.487 148.489 348.872 152.104C345.256 155.72 337.459 158.051 334.985 155.576C332.51 153.102 332.361 150.231 335.976 146.615C339.592 143 344.528 142.075 347.003 144.549Z" fill="#110945"/>
<path d="M347.003 144.549C349.477 147.024 352.487 148.489 348.872 152.104C345.256 155.72 337.459 158.051 334.985 155.576C332.51 153.102 332.361 150.231 335.976 146.615C339.592 143 344.528 142.075 347.003 144.549Z" fill="#110945"/>
</g>
<circle cx="343.5" cy="144.5" r="8.13173" transform="rotate(-45 343.5 144.5)" fill="url(#paint2_radial_760_261)"/>
<circle cx="343.5" cy="144.5" r="8.13173" transform="rotate(-45 343.5 144.5)" fill="url(#paint3_linear_760_261)"/>
<g filter="url(#filter2_f_760_261)">
<circle cx="557.625" cy="122.313" r="4.68458" transform="rotate(-45 557.625 122.313)" fill="url(#paint4_radial_760_261)"/>
<circle cx="557.625" cy="122.313" r="4.68458" transform="rotate(-45 557.625 122.313)" fill="url(#paint5_linear_760_261)"/>
</g>
<g filter="url(#filter3_f_760_261)">
<path d="M558.613 106.733C560.1 108.219 561.907 109.099 559.736 111.271C557.564 113.443 552.88 114.843 551.394 113.357C549.907 111.87 549.817 110.146 551.989 107.974C554.161 105.802 557.127 105.246 558.613 106.733Z" fill="#110945"/>
<path d="M558.613 106.733C560.1 108.219 561.907 109.099 559.736 111.271C557.564 113.443 552.88 114.843 551.394 113.357C549.907 111.87 549.817 110.146 551.989 107.974C554.161 105.802 557.127 105.246 558.613 106.733Z" fill="#110945"/>
</g>
<circle cx="555.625" cy="106.625" r="4.68458" transform="rotate(-45 555.625 106.625)" fill="url(#paint6_radial_760_261)"/>
<circle cx="555.625" cy="106.625" r="4.68458" transform="rotate(-45 555.625 106.625)" fill="url(#paint7_linear_760_261)"/>
<g filter="url(#filter4_f_760_261)">
<circle cx="35.2132" cy="161.901" r="15" transform="rotate(-45 35.2132 161.901)" fill="url(#paint8_radial_760_261)"/>
<circle cx="35.2132" cy="161.901" r="15" transform="rotate(-45 35.2132 161.901)" fill="url(#paint9_linear_760_261)"/>
</g>
<g filter="url(#filter5_f_760_261)">
<path d="M36.4722 142.259C40.4813 146.268 45.3576 148.642 39.4998 154.5C33.6419 160.358 21.0089 164.134 16.9998 160.125C12.9907 156.116 12.7486 151.464 18.6064 145.606C24.4643 139.749 32.4631 138.25 36.4722 142.259Z" fill="#110945"/>
<path d="M36.4722 142.259C40.4813 146.268 45.3576 148.642 39.4998 154.5C33.6419 160.358 21.0089 164.134 16.9998 160.125C12.9907 156.116 12.7486 151.464 18.6064 145.606C24.4643 139.749 32.4631 138.25 36.4722 142.259Z" fill="#110945"/>
</g>
<circle cx="32.2132" cy="137.213" r="15" transform="rotate(-45 32.2132 137.213)" fill="url(#paint10_radial_760_261)"/>
<circle cx="32.2132" cy="137.213" r="15" transform="rotate(-45 32.2132 137.213)" fill="url(#paint11_linear_760_261)"/>
<g filter="url(#filter6_f_760_261)">
<circle cx="394" cy="40.6882" r="11.3138" transform="rotate(-45 394 40.6882)" fill="url(#paint12_radial_760_261)"/>
<circle cx="394" cy="40.6882" r="11.3138" transform="rotate(-45 394 40.6882)" fill="url(#paint13_linear_760_261)"/>
</g>
<g filter="url(#filter7_f_760_261)">
<path d="M394.917 18.9466C398.152 22.1809 402.085 24.0959 397.36 28.8216C392.634 33.5474 382.442 36.5938 379.208 33.3595C375.974 30.1252 375.779 26.3728 380.504 21.6471C385.23 16.9213 391.683 15.7123 394.917 18.9466Z" fill="#110945"/>
<path d="M394.917 18.9466C398.152 22.1809 402.085 24.0959 397.36 28.8216C392.634 33.5474 382.442 36.5938 379.208 33.3595C375.974 30.1252 375.779 26.3728 380.504 21.6471C385.23 16.9213 391.683 15.7123 394.917 18.9466Z" fill="#110945"/>
</g>
<circle cx="391" cy="16" r="11.3138" transform="rotate(-45 391 16)" fill="url(#paint14_radial_760_261)"/>
<circle cx="391" cy="16" r="11.3138" transform="rotate(-45 391 16)" fill="url(#paint15_linear_760_261)"/>
<g filter="url(#filter8_f_760_261)">
<circle cx="353.921" cy="256.901" r="4.5" transform="rotate(-45 353.921 256.901)" fill="url(#paint16_radial_760_261)"/>
<circle cx="353.921" cy="256.901" r="4.5" transform="rotate(-45 353.921 256.901)" fill="url(#paint17_radial_760_261)"/>
<circle cx="353.921" cy="256.901" r="4.5" transform="rotate(-45 353.921 256.901)" fill="url(#paint18_radial_760_261)"/>
<circle cx="353.921" cy="256.901" r="4.5" transform="rotate(-45 353.921 256.901)" fill="url(#paint19_linear_760_261)" fill-opacity="0.4"/>
</g>
<g filter="url(#filter9_f_760_261)">
<path d="M353.177 233.511C354.663 234.997 356.471 235.877 354.299 238.049C352.127 240.221 347.443 241.621 345.957 240.135C344.471 238.648 344.381 236.924 346.553 234.752C348.725 232.58 351.69 232.024 353.177 233.511Z" fill="#110945"/>
<path d="M353.177 233.511C354.663 234.997 356.471 235.877 354.299 238.049C352.127 240.221 347.443 241.621 345.957 240.135C344.471 238.648 344.381 236.924 346.553 234.752C348.725 232.58 351.69 232.024 353.177 233.511Z" fill="#110945"/>
</g>
<circle cx="350.921" cy="232.213" r="4.5" transform="rotate(-45 350.921 232.213)" fill="url(#paint20_radial_760_261)"/>
<circle cx="350.921" cy="232.213" r="4.5" transform="rotate(-45 350.921 232.213)" fill="url(#paint21_radial_760_261)"/>
<circle cx="350.921" cy="232.213" r="4.5" transform="rotate(-45 350.921 232.213)" fill="url(#paint22_radial_760_261)"/>
<circle cx="350.921" cy="232.213" r="4.5" transform="rotate(-45 350.921 232.213)" fill="url(#paint23_radial_760_261)"/>
<defs>
<filter id="filter0_f_760_261" x="318.368" y="141.056" width="56.2637" height="56.2637" filterUnits="userSpaceOnUse" color-interpolation-filters="sRGB">
<feFlood flood-opacity="0" result="BackgroundImageFix"/>
<feBlend mode="normal" in="SourceGraphic" in2="BackgroundImageFix" result="shape"/>
<feGaussianBlur stdDeviation="10" result="effect1_foregroundBlur_760_261"/>
</filter>
<filter id="filter1_f_760_261" x="328.186" y="138.162" width="27.3584" height="23.4404" filterUnits="userSpaceOnUse" color-interpolation-filters="sRGB">
<feFlood flood-opacity="0" result="BackgroundImageFix"/>
<feBlend mode="normal" in="SourceGraphic" in2="BackgroundImageFix" result="shape"/>
<feGaussianBlur stdDeviation="2.5" result="effect1_foregroundBlur_760_261"/>
</filter>
<filter id="filter2_f_760_261" x="532.94" y="97.6284" width="49.3691" height="49.3691" filterUnits="userSpaceOnUse" color-interpolation-filters="sRGB">
<feFlood flood-opacity="0" result="BackgroundImageFix"/>
<feBlend mode="normal" in="SourceGraphic" in2="BackgroundImageFix" result="shape"/>
<feGaussianBlur stdDeviation="10" result="effect1_foregroundBlur_760_261"/>
</filter>
<filter id="filter3_f_760_261" x="547.309" y="102.896" width="16.4344" height="14.0809" filterUnits="userSpaceOnUse" color-interpolation-filters="sRGB">
<feFlood flood-opacity="0" result="BackgroundImageFix"/>
<feBlend mode="normal" in="SourceGraphic" in2="BackgroundImageFix" result="shape"/>
<feGaussianBlur stdDeviation="1.50178" result="effect1_foregroundBlur_760_261"/>
</filter>
<filter id="filter4_f_760_261" x="0.213379" y="126.901" width="70" height="70" filterUnits="userSpaceOnUse" color-interpolation-filters="sRGB">
<feFlood flood-opacity="0" result="BackgroundImageFix"/>
<feBlend mode="normal" in="SourceGraphic" in2="BackgroundImageFix" result="shape"/>
<feGaussianBlur stdDeviation="10" result="effect1_foregroundBlur_760_261"/>
</filter>
<filter id="filter5_f_760_261" x="4.08545" y="130.011" width="48.124" height="41.7761" filterUnits="userSpaceOnUse" color-interpolation-filters="sRGB">
<feFlood flood-opacity="0" result="BackgroundImageFix"/>
<feBlend mode="normal" in="SourceGraphic" in2="BackgroundImageFix" result="shape"/>
<feGaussianBlur stdDeviation="5" result="effect1_foregroundBlur_760_261"/>
</filter>
<filter id="filter6_f_760_261" x="362.687" y="9.37451" width="62.6274" height="62.6274" filterUnits="userSpaceOnUse" color-interpolation-filters="sRGB">
<feFlood flood-opacity="0" result="BackgroundImageFix"/>
<feBlend mode="normal" in="SourceGraphic" in2="BackgroundImageFix" result="shape"/>
<feGaussianBlur stdDeviation="10" result="effect1_foregroundBlur_760_261"/>
</filter>
<filter id="filter7_f_760_261" x="370.857" y="11.1335" width="34.6885" height="29.5674" filterUnits="userSpaceOnUse" color-interpolation-filters="sRGB">
<feFlood flood-opacity="0" result="BackgroundImageFix"/>
<feBlend mode="normal" in="SourceGraphic" in2="BackgroundImageFix" result="shape"/>
<feGaussianBlur stdDeviation="3" result="effect1_foregroundBlur_760_261"/>
</filter>
<filter id="filter8_f_760_261" x="329.42" y="232.401" width="49" height="49" filterUnits="userSpaceOnUse" color-interpolation-filters="sRGB">
<feFlood flood-opacity="0" result="BackgroundImageFix"/>
<feBlend mode="normal" in="SourceGraphic" in2="BackgroundImageFix" result="shape"/>
<feGaussianBlur stdDeviation="10" result="effect1_foregroundBlur_760_261"/>
</filter>
<filter id="filter9_f_760_261" x="341.873" y="229.674" width="16.4344" height="14.0809" filterUnits="userSpaceOnUse" color-interpolation-filters="sRGB">
<feFlood flood-opacity="0" result="BackgroundImageFix"/>
<feBlend mode="normal" in="SourceGraphic" in2="BackgroundImageFix" result="shape"/>
<feGaussianBlur stdDeviation="1.50178" result="effect1_foregroundBlur_760_261"/>
</filter>
<radialGradient id="paint0_radial_760_261" cx="0" cy="0" r="1" gradientUnits="userSpaceOnUse" gradientTransform="translate(345.687 163.612) rotate(100.67) scale(13.4577)">
<stop offset="0.125" stop-color="#96F5FE"/>
<stop offset="0.416667" stop-color="#5A67D6"/>
<stop offset="0.552083" stop-color="#6624B8"/>
<stop offset="0.697917" stop-color="#422F9E"/>
<stop offset="0.932292" stop-color="#DFA64A"/>
<stop offset="1" stop-color="#96F5FF"/>
</radialGradient>
<linearGradient id="paint1_linear_760_261" x1="342.961" y1="176.986" x2="346.577" y2="173.37" gradientUnits="userSpaceOnUse">
<stop stop-color="#2D1F73"/>
<stop offset="1" stop-color="#312182" stop-opacity="0"/>
</linearGradient>
<radialGradient id="paint2_radial_760_261" cx="0" cy="0" r="1" gradientUnits="userSpaceOnUse" gradientTransform="translate(342.687 138.924) rotate(100.67) scale(13.4577)">
<stop offset="0.125" stop-color="#96F5FE"/>
<stop offset="0.416667" stop-color="#5A67D6"/>
<stop offset="0.552083" stop-color="#6624B8"/>
<stop offset="0.697917" stop-color="#422F9E"/>
<stop offset="0.932292" stop-color="#DFA64A"/>
<stop offset="1" stop-color="#96F5FF"/>
</radialGradient>
<linearGradient id="paint3_linear_760_261" x1="339.961" y1="152.298" x2="343.577" y2="148.682" gradientUnits="userSpaceOnUse">
<stop stop-color="#2D1F73"/>
<stop offset="1" stop-color="#312182" stop-opacity="0"/>
</linearGradient>
<radialGradient id="paint4_radial_760_261" cx="0" cy="0" r="1" gradientUnits="userSpaceOnUse" gradientTransform="translate(557.157 119.101) rotate(100.67) scale(7.75279)">
<stop offset="0.125" stop-color="#96F5FE"/>
<stop offset="0.416667" stop-color="#5A67D6"/>
<stop offset="0.552083" stop-color="#6624B8"/>
<stop offset="0.697917" stop-color="#422F9E"/>
<stop offset="0.932292" stop-color="#DFA64A"/>
<stop offset="1" stop-color="#96F5FF"/>
</radialGradient>
<linearGradient id="paint5_linear_760_261" x1="555.587" y1="126.805" x2="557.67" y2="124.722" gradientUnits="userSpaceOnUse">
<stop stop-color="#2D1F73"/>
<stop offset="1" stop-color="#312182" stop-opacity="0"/>
</linearGradient>
<radialGradient id="paint6_radial_760_261" cx="0" cy="0" r="1" gradientUnits="userSpaceOnUse" gradientTransform="translate(555.157 103.412) rotate(100.67) scale(7.75279)">
<stop offset="0.125" stop-color="#96F5FE"/>
<stop offset="0.416667" stop-color="#5A67D6"/>
<stop offset="0.552083" stop-color="#6624B8"/>
<stop offset="0.697917" stop-color="#422F9E"/>
<stop offset="0.932292" stop-color="#DFA64A"/>
<stop offset="1" stop-color="#96F5FF"/>
</radialGradient>
<linearGradient id="paint7_linear_760_261" x1="553.587" y1="111.117" x2="555.67" y2="109.034" gradientUnits="userSpaceOnUse">
<stop stop-color="#2D1F73"/>
<stop offset="1" stop-color="#312182" stop-opacity="0"/>
</linearGradient>
<radialGradient id="paint8_radial_760_261" cx="0" cy="0" r="1" gradientUnits="userSpaceOnUse" gradientTransform="translate(33.7143 151.616) rotate(100.67) scale(24.8244)">
<stop offset="0.125" stop-color="#96F5FE"/>
<stop offset="0.416667" stop-color="#5A67D6"/>
<stop offset="0.552083" stop-color="#6624B8"/>
<stop offset="0.697917" stop-color="#422F9E"/>
<stop offset="0.932292" stop-color="#DFA64A"/>
<stop offset="1" stop-color="#96F5FF"/>
</radialGradient>
<linearGradient id="paint9_linear_760_261" x1="28.686" y1="176.286" x2="35.3561" y2="169.616" gradientUnits="userSpaceOnUse">
<stop stop-color="#2D1F73"/>
<stop offset="1" stop-color="#312182" stop-opacity="0"/>
</linearGradient>
<radialGradient id="paint10_radial_760_261" cx="0" cy="0" r="1" gradientUnits="userSpaceOnUse" gradientTransform="translate(30.7143 126.927) rotate(100.67) scale(24.8244)">
<stop offset="0.125" stop-color="#96F5FE"/>
<stop offset="0.416667" stop-color="#5A67D6"/>
<stop offset="0.552083" stop-color="#6624B8"/>
<stop offset="0.697917" stop-color="#422F9E"/>
<stop offset="0.932292" stop-color="#DFA64A"/>
<stop offset="1" stop-color="#96F5FF"/>
</radialGradient>
<linearGradient id="paint11_linear_760_261" x1="25.686" y1="151.598" x2="32.3561" y2="144.927" gradientUnits="userSpaceOnUse">
<stop stop-color="#2D1F73"/>
<stop offset="1" stop-color="#312182" stop-opacity="0"/>
</linearGradient>
<radialGradient id="paint12_radial_760_261" cx="0" cy="0" r="1" gradientUnits="userSpaceOnUse" gradientTransform="translate(392.869 32.9302) rotate(100.67) scale(18.7238)">
<stop offset="0.125" stop-color="#96F5FE"/>
<stop offset="0.416667" stop-color="#5A67D6"/>
<stop offset="0.552083" stop-color="#6624B8"/>
<stop offset="0.697917" stop-color="#422F9E"/>
<stop offset="0.932292" stop-color="#DFA64A"/>
<stop offset="1" stop-color="#96F5FF"/>
</radialGradient>
<linearGradient id="paint13_linear_760_261" x1="389.077" y1="51.5377" x2="394.108" y2="46.5067" gradientUnits="userSpaceOnUse">
<stop stop-color="#2D1F73"/>
<stop offset="1" stop-color="#312182" stop-opacity="0"/>
</linearGradient>
<radialGradient id="paint14_radial_760_261" cx="0" cy="0" r="1" gradientUnits="userSpaceOnUse" gradientTransform="translate(389.869 8.24192) rotate(100.67) scale(18.7238)">
<stop offset="0.125" stop-color="#96F5FE"/>
<stop offset="0.416667" stop-color="#5A67D6"/>
<stop offset="0.552083" stop-color="#6624B8"/>
<stop offset="0.697917" stop-color="#422F9E"/>
<stop offset="0.932292" stop-color="#DFA64A"/>
<stop offset="1" stop-color="#96F5FF"/>
</radialGradient>
<linearGradient id="paint15_linear_760_261" x1="386.077" y1="26.8494" x2="391.108" y2="21.8185" gradientUnits="userSpaceOnUse">
<stop stop-color="#2D1F73"/>
<stop offset="1" stop-color="#312182" stop-opacity="0"/>
</linearGradient>
<radialGradient id="paint16_radial_760_261" cx="0" cy="0" r="1" gradientUnits="userSpaceOnUse" gradientTransform="translate(351.821 254.951) rotate(71.9657) scale(6.78325 6.32402)">
<stop offset="0.0572917" stop-color="white"/>
<stop offset="0.578125" stop-color="#CDE0FC"/>
<stop offset="0.854167" stop-color="#639EF5"/>
<stop offset="1" stop-color="#AC94F0"/>
</radialGradient>
<radialGradient id="paint17_radial_760_261" cx="0" cy="0" r="1" gradientUnits="userSpaceOnUse" gradientTransform="translate(351.521 254.951) rotate(33.3407) scale(6.82294 6.36102)">
<stop offset="0.0572917" stop-color="#F4C86F"/>
<stop offset="0.433972" stop-color="#E7AD51"/>
<stop offset="0.60894" stop-color="#C18B32"/>
<stop offset="1" stop-color="#D37EE8"/>
</radialGradient>
<radialGradient id="paint18_radial_760_261" cx="0" cy="0" r="1" gradientUnits="userSpaceOnUse" gradientTransform="translate(351.73 253.755) rotate(52.125) scale(8.17294 7.61962)">
<stop stop-color="#F9DCA3"/>
<stop offset="0.3125" stop-color="#F4C86F"/>
<stop offset="0.494792" stop-color="#E7AD51"/>
<stop offset="0.74188" stop-color="#C18B32"/>
<stop offset="1" stop-color="#D37EE8"/>
</radialGradient>
<linearGradient id="paint19_linear_760_261" x1="351.821" y1="261.401" x2="351.821" y2="258.101" gradientUnits="userSpaceOnUse">
<stop/>
<stop offset="1" stop-opacity="0"/>
</linearGradient>
<radialGradient id="paint20_radial_760_261" cx="0" cy="0" r="1" gradientUnits="userSpaceOnUse" gradientTransform="translate(348.821 230.263) rotate(71.9657) scale(6.78325 6.32402)">
<stop offset="0.0572917" stop-color="white"/>
<stop offset="0.578125" stop-color="#CDE0FC"/>
<stop offset="0.854167" stop-color="#639EF5"/>
<stop offset="1" stop-color="#AC94F0"/>
</radialGradient>
<radialGradient id="paint21_radial_760_261" cx="0" cy="0" r="1" gradientUnits="userSpaceOnUse" gradientTransform="translate(348.521 230.263) rotate(33.3407) scale(6.82294 6.36102)">
<stop offset="0.0572917" stop-color="#F4C86F"/>
<stop offset="0.433972" stop-color="#E7AD51"/>
<stop offset="0.60894" stop-color="#C18B32"/>
<stop offset="1" stop-color="#D37EE8"/>
</radialGradient>
<radialGradient id="paint22_radial_760_261" cx="0" cy="0" r="1" gradientUnits="userSpaceOnUse" gradientTransform="translate(348.73 229.067) rotate(52.125) scale(8.17294 7.61962)">
<stop stop-color="#F9DCA3"/>
<stop offset="0.3125" stop-color="#F4C86F"/>
<stop offset="0.494792" stop-color="#E7AD51"/>
<stop offset="0.74188" stop-color="#C18B32"/>
<stop offset="1" stop-color="#D37EE8"/>
</radialGradient>
<radialGradient id="paint23_radial_760_261" cx="0" cy="0" r="1" gradientUnits="userSpaceOnUse" gradientTransform="translate(347.805 234.178) rotate(-45) scale(2.7 5.64097)">
<stop stop-color="#38218C"/>
<stop offset="1" stop-color="#3C1DB0" stop-opacity="0"/>
</radialGradient>
</defs>
</svg>
