<svg width="510" height="209" viewBox="0 0 510 209" fill="none" xmlns="http://www.w3.org/2000/svg">
<g filter="url(#filter0_f_767_265)">
<circle cx="339.5" cy="147.188" r="8.13173" transform="rotate(-45 339.5 147.188)" fill="url(#paint0_radial_767_265)"/>
<circle cx="339.5" cy="147.188" r="8.13173" transform="rotate(-45 339.5 147.188)" fill="url(#paint1_linear_767_265)"/>
</g>
<g filter="url(#filter1_f_767_265)">
<path d="M339.003 124.55C341.477 127.024 344.487 128.489 340.872 132.105C337.256 135.72 329.459 138.051 326.985 135.576C324.51 133.102 324.361 130.231 327.976 126.616C331.592 123 336.528 122.075 339.003 124.55Z" fill="#110945"/>
<path d="M339.003 124.55C341.477 127.024 344.487 128.489 340.872 132.105C337.256 135.72 329.459 138.051 326.985 135.576C324.51 133.102 324.361 130.231 327.976 126.616C331.592 123 336.528 122.075 339.003 124.55Z" fill="#110945"/>
</g>
<circle cx="336.5" cy="122.5" r="8.13173" transform="rotate(-45 336.5 122.5)" fill="url(#paint2_radial_767_265)"/>
<circle cx="336.5" cy="122.5" r="8.13173" transform="rotate(-45 336.5 122.5)" fill="url(#paint3_linear_767_265)"/>
<g filter="url(#filter2_f_767_265)">
<circle cx="418.625" cy="184.313" r="4.68458" transform="rotate(-45 418.625 184.313)" fill="url(#paint4_radial_767_265)"/>
<circle cx="418.625" cy="184.313" r="4.68458" transform="rotate(-45 418.625 184.313)" fill="url(#paint5_linear_767_265)"/>
</g>
<g filter="url(#filter3_f_767_265)">
<path d="M419.613 167.733C421.1 169.219 422.907 170.1 420.736 172.271C418.564 174.443 413.88 175.843 412.394 174.357C410.907 172.871 410.817 171.146 412.989 168.974C415.161 166.802 418.127 166.247 419.613 167.733Z" fill="#110945"/>
<path d="M419.613 167.733C421.1 169.219 422.907 170.1 420.736 172.271C418.564 174.443 413.88 175.843 412.394 174.357C410.907 172.871 410.817 171.146 412.989 168.974C415.161 166.802 418.127 166.247 419.613 167.733Z" fill="#110945"/>
</g>
<circle cx="415.625" cy="166.625" r="4.68458" transform="rotate(-45 415.625 166.625)" fill="url(#paint6_radial_767_265)"/>
<circle cx="415.625" cy="166.625" r="4.68458" transform="rotate(-45 415.625 166.625)" fill="url(#paint7_linear_767_265)"/>
<g filter="url(#filter4_f_767_265)">
<circle cx="484.625" cy="141.313" r="4.68458" transform="rotate(-45 484.625 141.313)" fill="url(#paint8_radial_767_265)"/>
<circle cx="484.625" cy="141.313" r="4.68458" transform="rotate(-45 484.625 141.313)" fill="url(#paint9_linear_767_265)"/>
</g>
<g filter="url(#filter5_f_767_265)">
<path d="M485.613 125.733C487.1 127.219 488.907 128.1 486.736 130.271C484.564 132.443 479.88 133.843 478.394 132.357C476.907 130.871 476.817 129.146 478.989 126.974C481.161 124.802 484.127 124.247 485.613 125.733Z" fill="#110945"/>
<path d="M485.613 125.733C487.1 127.219 488.907 128.1 486.736 130.271C484.564 132.443 479.88 133.843 478.394 132.357C476.907 130.871 476.817 129.146 478.989 126.974C481.161 124.802 484.127 124.247 485.613 125.733Z" fill="#110945"/>
</g>
<circle cx="482.625" cy="125.625" r="4.68458" transform="rotate(-45 482.625 125.625)" fill="url(#paint10_radial_767_265)"/>
<circle cx="482.625" cy="125.625" r="4.68458" transform="rotate(-45 482.625 125.625)" fill="url(#paint11_linear_767_265)"/>
<g opacity="0.6" filter="url(#filter6_f_767_265)">
<circle cx="35.2132" cy="136.919" r="15" transform="rotate(-45 35.2132 136.919)" fill="url(#paint12_radial_767_265)"/>
<circle cx="35.2132" cy="136.919" r="15" transform="rotate(-45 35.2132 136.919)" fill="url(#paint13_radial_767_265)"/>
<circle cx="35.2132" cy="136.919" r="15" transform="rotate(-45 35.2132 136.919)" fill="url(#paint14_radial_767_265)"/>
<circle cx="35.2132" cy="136.919" r="15" transform="rotate(-45 35.2132 136.919)" fill="url(#paint15_linear_767_265)" fill-opacity="0.4"/>
</g>
<g filter="url(#filter7_f_767_265)">
<path d="M38.9283 116.371C42.9374 120.38 47.8137 122.754 41.9558 128.612C36.0979 134.47 23.465 138.246 19.4559 134.237C15.4467 130.228 15.2046 125.577 21.0625 119.719C26.9204 113.861 34.9191 112.362 38.9283 116.371Z" fill="#110945"/>
<path d="M38.9283 116.371C42.9374 120.38 47.8137 122.754 41.9558 128.612C36.0979 134.47 23.465 138.246 19.4559 134.237C15.4467 130.228 15.2046 125.577 21.0625 119.719C26.9204 113.861 34.9191 112.362 38.9283 116.371Z" fill="#110945"/>
</g>
<rect opacity="0.5" x="17.1201" width="30" height="112" fill="url(#paint16_linear_767_265)"/>
<circle cx="32.2132" cy="112.23" r="15" transform="rotate(-45 32.2132 112.23)" fill="url(#paint17_radial_767_265)"/>
<circle cx="32.2132" cy="112.23" r="15" transform="rotate(-45 32.2132 112.23)" fill="url(#paint18_radial_767_265)"/>
<circle cx="32.2132" cy="112.23" r="15" transform="rotate(-45 32.2132 112.23)" fill="url(#paint19_radial_767_265)"/>
<circle cx="32.2132" cy="112.23" r="15" transform="rotate(-45 32.2132 112.23)" fill="url(#paint20_linear_767_265)" fill-opacity="0.4"/>
<circle cx="32.2132" cy="112.23" r="15" transform="rotate(-45 32.2132 112.23)" fill="url(#paint21_radial_767_265)"/>
<g opacity="0.6" filter="url(#filter8_f_767_265)">
<circle cx="172.333" cy="52.9014" r="15" transform="rotate(-45 172.333 52.9014)" fill="url(#paint22_radial_767_265)"/>
<circle cx="172.333" cy="52.9014" r="15" transform="rotate(-45 172.333 52.9014)" fill="url(#paint23_linear_767_265)"/>
</g>
<g filter="url(#filter9_f_767_265)">
<path d="M173.928 29.3713C177.937 33.3804 182.814 35.7542 176.956 41.6121C171.098 47.4699 158.465 51.2462 154.456 47.2371C150.447 43.228 150.205 38.5766 156.062 32.7188C161.92 26.8609 169.919 25.3622 173.928 29.3713Z" fill="#110945"/>
<path d="M173.928 29.3713C177.937 33.3804 182.814 35.7542 176.956 41.6121C171.098 47.4699 158.465 51.2462 154.456 47.2371C150.447 43.228 150.205 38.5766 156.062 32.7188C161.92 26.8609 169.919 25.3622 173.928 29.3713Z" fill="#110945"/>
</g>
<circle cx="169.333" cy="28.2134" r="15" transform="rotate(-45 169.333 28.2134)" fill="url(#paint24_radial_767_265)"/>
<circle cx="169.333" cy="28.2134" r="15" transform="rotate(-45 169.333 28.2134)" fill="url(#paint25_linear_767_265)"/>
<g filter="url(#filter10_f_767_265)">
<circle cx="253.213" cy="98.9019" r="11" transform="rotate(-45 253.213 98.9019)" fill="url(#paint26_radial_767_265)"/>
<circle cx="253.213" cy="98.9019" r="11" transform="rotate(-45 253.213 98.9019)" fill="url(#paint27_radial_767_265)"/>
<circle cx="253.213" cy="98.9019" r="11" transform="rotate(-45 253.213 98.9019)" fill="url(#paint28_radial_767_265)"/>
<circle cx="253.213" cy="98.9019" r="11" transform="rotate(-45 253.213 98.9019)" fill="url(#paint29_linear_767_265)" fill-opacity="0.4"/>
</g>
<g filter="url(#filter11_f_767_265)">
<path d="M252.917 75.947C256.152 79.1813 260.085 81.0964 255.36 85.8221C250.634 90.5478 240.442 93.5943 237.208 90.36C233.974 87.1257 233.779 83.3733 238.504 78.6475C243.23 73.9218 249.683 72.7127 252.917 75.947Z" fill="#110945"/>
<path d="M252.917 75.947C256.152 79.1813 260.085 81.0964 255.36 85.8221C250.634 90.5478 240.442 93.5943 237.208 90.36C233.974 87.1257 233.779 83.3733 238.504 78.6475C243.23 73.9218 249.683 72.7127 252.917 75.947Z" fill="#110945"/>
</g>
<circle cx="250.213" cy="74.2134" r="11" transform="rotate(-45 250.213 74.2134)" fill="url(#paint30_radial_767_265)"/>
<circle cx="250.213" cy="74.2134" r="11" transform="rotate(-45 250.213 74.2134)" fill="url(#paint31_radial_767_265)"/>
<circle cx="250.213" cy="74.2134" r="11" transform="rotate(-45 250.213 74.2134)" fill="url(#paint32_radial_767_265)"/>
<circle cx="250.213" cy="74.2134" r="11" transform="rotate(-45 250.213 74.2134)" fill="url(#paint33_radial_767_265)"/>
<defs>
<filter id="filter0_f_767_265" x="311.368" y="119.057" width="56.2637" height="56.2637" filterUnits="userSpaceOnUse" color-interpolation-filters="sRGB">
<feFlood flood-opacity="0" result="BackgroundImageFix"/>
<feBlend mode="normal" in="SourceGraphic" in2="BackgroundImageFix" result="shape"/>
<feGaussianBlur stdDeviation="10" result="effect1_foregroundBlur_767_265"/>
</filter>
<filter id="filter1_f_767_265" x="320.186" y="118.163" width="27.3584" height="23.4399" filterUnits="userSpaceOnUse" color-interpolation-filters="sRGB">
<feFlood flood-opacity="0" result="BackgroundImageFix"/>
<feBlend mode="normal" in="SourceGraphic" in2="BackgroundImageFix" result="shape"/>
<feGaussianBlur stdDeviation="2.5" result="effect1_foregroundBlur_767_265"/>
</filter>
<filter id="filter2_f_767_265" x="393.94" y="159.629" width="49.3691" height="49.3691" filterUnits="userSpaceOnUse" color-interpolation-filters="sRGB">
<feFlood flood-opacity="0" result="BackgroundImageFix"/>
<feBlend mode="normal" in="SourceGraphic" in2="BackgroundImageFix" result="shape"/>
<feGaussianBlur stdDeviation="10" result="effect1_foregroundBlur_767_265"/>
</filter>
<filter id="filter3_f_767_265" x="408.309" y="163.896" width="16.4344" height="14.0809" filterUnits="userSpaceOnUse" color-interpolation-filters="sRGB">
<feFlood flood-opacity="0" result="BackgroundImageFix"/>
<feBlend mode="normal" in="SourceGraphic" in2="BackgroundImageFix" result="shape"/>
<feGaussianBlur stdDeviation="1.50178" result="effect1_foregroundBlur_767_265"/>
</filter>
<filter id="filter4_f_767_265" x="459.94" y="116.629" width="49.3691" height="49.3691" filterUnits="userSpaceOnUse" color-interpolation-filters="sRGB">
<feFlood flood-opacity="0" result="BackgroundImageFix"/>
<feBlend mode="normal" in="SourceGraphic" in2="BackgroundImageFix" result="shape"/>
<feGaussianBlur stdDeviation="10" result="effect1_foregroundBlur_767_265"/>
</filter>
<filter id="filter5_f_767_265" x="474.309" y="121.896" width="16.4344" height="14.0809" filterUnits="userSpaceOnUse" color-interpolation-filters="sRGB">
<feFlood flood-opacity="0" result="BackgroundImageFix"/>
<feBlend mode="normal" in="SourceGraphic" in2="BackgroundImageFix" result="shape"/>
<feGaussianBlur stdDeviation="1.50178" result="effect1_foregroundBlur_767_265"/>
</filter>
<filter id="filter6_f_767_265" x="0.213379" y="101.919" width="70" height="70" filterUnits="userSpaceOnUse" color-interpolation-filters="sRGB">
<feFlood flood-opacity="0" result="BackgroundImageFix"/>
<feBlend mode="normal" in="SourceGraphic" in2="BackgroundImageFix" result="shape"/>
<feGaussianBlur stdDeviation="10" result="effect1_foregroundBlur_767_265"/>
</filter>
<filter id="filter7_f_767_265" x="6.5415" y="104.124" width="48.124" height="41.7759" filterUnits="userSpaceOnUse" color-interpolation-filters="sRGB">
<feFlood flood-opacity="0" result="BackgroundImageFix"/>
<feBlend mode="normal" in="SourceGraphic" in2="BackgroundImageFix" result="shape"/>
<feGaussianBlur stdDeviation="5" result="effect1_foregroundBlur_767_265"/>
</filter>
<filter id="filter8_f_767_265" x="137.333" y="17.9014" width="70" height="70" filterUnits="userSpaceOnUse" color-interpolation-filters="sRGB">
<feFlood flood-opacity="0" result="BackgroundImageFix"/>
<feBlend mode="normal" in="SourceGraphic" in2="BackgroundImageFix" result="shape"/>
<feGaussianBlur stdDeviation="10" result="effect1_foregroundBlur_767_265"/>
</filter>
<filter id="filter9_f_767_265" x="141.542" y="17.124" width="48.124" height="41.7759" filterUnits="userSpaceOnUse" color-interpolation-filters="sRGB">
<feFlood flood-opacity="0" result="BackgroundImageFix"/>
<feBlend mode="normal" in="SourceGraphic" in2="BackgroundImageFix" result="shape"/>
<feGaussianBlur stdDeviation="5" result="effect1_foregroundBlur_767_265"/>
</filter>
<filter id="filter10_f_767_265" x="222.213" y="67.9019" width="62" height="62" filterUnits="userSpaceOnUse" color-interpolation-filters="sRGB">
<feFlood flood-opacity="0" result="BackgroundImageFix"/>
<feBlend mode="normal" in="SourceGraphic" in2="BackgroundImageFix" result="shape"/>
<feGaussianBlur stdDeviation="10" result="effect1_foregroundBlur_767_265"/>
</filter>
<filter id="filter11_f_767_265" x="228.857" y="68.1338" width="34.6885" height="29.5679" filterUnits="userSpaceOnUse" color-interpolation-filters="sRGB">
<feFlood flood-opacity="0" result="BackgroundImageFix"/>
<feBlend mode="normal" in="SourceGraphic" in2="BackgroundImageFix" result="shape"/>
<feGaussianBlur stdDeviation="3" result="effect1_foregroundBlur_767_265"/>
</filter>
<radialGradient id="paint0_radial_767_265" cx="0" cy="0" r="1" gradientUnits="userSpaceOnUse" gradientTransform="translate(338.687 141.612) rotate(100.67) scale(13.4577)">
<stop offset="0.125" stop-color="#96F5FE"/>
<stop offset="0.416667" stop-color="#5A67D6"/>
<stop offset="0.552083" stop-color="#6624B8"/>
<stop offset="0.697917" stop-color="#422F9E"/>
<stop offset="0.932292" stop-color="#DFA64A"/>
<stop offset="1" stop-color="#96F5FF"/>
</radialGradient>
<linearGradient id="paint1_linear_767_265" x1="335.961" y1="154.986" x2="339.577" y2="151.371" gradientUnits="userSpaceOnUse">
<stop stop-color="#2D1F73"/>
<stop offset="1" stop-color="#312182" stop-opacity="0"/>
</linearGradient>
<radialGradient id="paint2_radial_767_265" cx="0" cy="0" r="1" gradientUnits="userSpaceOnUse" gradientTransform="translate(335.687 116.924) rotate(100.67) scale(13.4577)">
<stop offset="0.125" stop-color="#96F5FE"/>
<stop offset="0.416667" stop-color="#5A67D6"/>
<stop offset="0.552083" stop-color="#6624B8"/>
<stop offset="0.697917" stop-color="#422F9E"/>
<stop offset="0.932292" stop-color="#DFA64A"/>
<stop offset="1" stop-color="#96F5FF"/>
</radialGradient>
<linearGradient id="paint3_linear_767_265" x1="332.961" y1="130.298" x2="336.577" y2="126.682" gradientUnits="userSpaceOnUse">
<stop stop-color="#2D1F73"/>
<stop offset="1" stop-color="#312182" stop-opacity="0"/>
</linearGradient>
<radialGradient id="paint4_radial_767_265" cx="0" cy="0" r="1" gradientUnits="userSpaceOnUse" gradientTransform="translate(418.157 181.101) rotate(100.67) scale(7.75279)">
<stop offset="0.125" stop-color="#96F5FE"/>
<stop offset="0.416667" stop-color="#5A67D6"/>
<stop offset="0.552083" stop-color="#6624B8"/>
<stop offset="0.697917" stop-color="#422F9E"/>
<stop offset="0.932292" stop-color="#DFA64A"/>
<stop offset="1" stop-color="#96F5FF"/>
</radialGradient>
<linearGradient id="paint5_linear_767_265" x1="416.587" y1="188.806" x2="418.67" y2="186.723" gradientUnits="userSpaceOnUse">
<stop stop-color="#2D1F73"/>
<stop offset="1" stop-color="#312182" stop-opacity="0"/>
</linearGradient>
<radialGradient id="paint6_radial_767_265" cx="0" cy="0" r="1" gradientUnits="userSpaceOnUse" gradientTransform="translate(415.157 163.413) rotate(100.67) scale(7.75279)">
<stop offset="0.125" stop-color="#96F5FE"/>
<stop offset="0.416667" stop-color="#5A67D6"/>
<stop offset="0.552083" stop-color="#6624B8"/>
<stop offset="0.697917" stop-color="#422F9E"/>
<stop offset="0.932292" stop-color="#DFA64A"/>
<stop offset="1" stop-color="#96F5FF"/>
</radialGradient>
<linearGradient id="paint7_linear_767_265" x1="413.587" y1="171.117" x2="415.67" y2="169.034" gradientUnits="userSpaceOnUse">
<stop stop-color="#2D1F73"/>
<stop offset="1" stop-color="#312182" stop-opacity="0"/>
</linearGradient>
<radialGradient id="paint8_radial_767_265" cx="0" cy="0" r="1" gradientUnits="userSpaceOnUse" gradientTransform="translate(484.157 138.101) rotate(100.67) scale(7.75279)">
<stop offset="0.125" stop-color="#96F5FE"/>
<stop offset="0.416667" stop-color="#5A67D6"/>
<stop offset="0.552083" stop-color="#6624B8"/>
<stop offset="0.697917" stop-color="#422F9E"/>
<stop offset="0.932292" stop-color="#DFA64A"/>
<stop offset="1" stop-color="#96F5FF"/>
</radialGradient>
<linearGradient id="paint9_linear_767_265" x1="482.587" y1="145.806" x2="484.67" y2="143.723" gradientUnits="userSpaceOnUse">
<stop stop-color="#2D1F73"/>
<stop offset="1" stop-color="#312182" stop-opacity="0"/>
</linearGradient>
<radialGradient id="paint10_radial_767_265" cx="0" cy="0" r="1" gradientUnits="userSpaceOnUse" gradientTransform="translate(482.157 122.413) rotate(100.67) scale(7.75279)">
<stop offset="0.125" stop-color="#96F5FE"/>
<stop offset="0.416667" stop-color="#5A67D6"/>
<stop offset="0.552083" stop-color="#6624B8"/>
<stop offset="0.697917" stop-color="#422F9E"/>
<stop offset="0.932292" stop-color="#DFA64A"/>
<stop offset="1" stop-color="#96F5FF"/>
</radialGradient>
<linearGradient id="paint11_linear_767_265" x1="480.587" y1="130.117" x2="482.67" y2="128.034" gradientUnits="userSpaceOnUse">
<stop stop-color="#2D1F73"/>
<stop offset="1" stop-color="#312182" stop-opacity="0"/>
</linearGradient>
<radialGradient id="paint12_radial_767_265" cx="0" cy="0" r="1" gradientUnits="userSpaceOnUse" gradientTransform="translate(28.2132 130.419) rotate(71.9657) scale(22.6108 21.0801)">
<stop offset="0.0572917" stop-color="white"/>
<stop offset="0.578125" stop-color="#CDE0FC"/>
<stop offset="0.854167" stop-color="#639EF5"/>
<stop offset="1" stop-color="#AC94F0"/>
</radialGradient>
<radialGradient id="paint13_radial_767_265" cx="0" cy="0" r="1" gradientUnits="userSpaceOnUse" gradientTransform="translate(27.2132 130.419) rotate(33.3407) scale(22.7431 21.2034)">
<stop offset="0.0572917" stop-color="#F4C86F"/>
<stop offset="0.433972" stop-color="#E7AD51"/>
<stop offset="0.60894" stop-color="#C18B32"/>
<stop offset="1" stop-color="#D37EE8"/>
</radialGradient>
<radialGradient id="paint14_radial_767_265" cx="0" cy="0" r="1" gradientUnits="userSpaceOnUse" gradientTransform="translate(27.9123 126.432) rotate(52.125) scale(27.2431 25.3987)">
<stop stop-color="#F9DCA3"/>
<stop offset="0.3125" stop-color="#F4C86F"/>
<stop offset="0.494792" stop-color="#E7AD51"/>
<stop offset="0.74188" stop-color="#C18B32"/>
<stop offset="1" stop-color="#D37EE8"/>
</radialGradient>
<linearGradient id="paint15_linear_767_265" x1="28.2132" y1="151.919" x2="28.2132" y2="140.919" gradientUnits="userSpaceOnUse">
<stop/>
<stop offset="1" stop-opacity="0"/>
</linearGradient>
<linearGradient id="paint16_linear_767_265" x1="-13.8799" y1="112" x2="-13.8799" y2="34.4615" gradientUnits="userSpaceOnUse">
<stop stop-color="#E2A94D"/>
<stop offset="1" stop-color="#E24DC1" stop-opacity="0"/>
</linearGradient>
<radialGradient id="paint17_radial_767_265" cx="0" cy="0" r="1" gradientUnits="userSpaceOnUse" gradientTransform="translate(25.2132 105.73) rotate(71.9657) scale(22.6108 21.0801)">
<stop offset="0.0572917" stop-color="white"/>
<stop offset="0.578125" stop-color="#CDE0FC"/>
<stop offset="0.854167" stop-color="#639EF5"/>
<stop offset="1" stop-color="#AC94F0"/>
</radialGradient>
<radialGradient id="paint18_radial_767_265" cx="0" cy="0" r="1" gradientUnits="userSpaceOnUse" gradientTransform="translate(24.2132 105.73) rotate(33.3407) scale(22.7431 21.2034)">
<stop offset="0.0572917" stop-color="#F4C86F"/>
<stop offset="0.433972" stop-color="#E7AD51"/>
<stop offset="0.60894" stop-color="#C18B32"/>
<stop offset="1" stop-color="#D37EE8"/>
</radialGradient>
<radialGradient id="paint19_radial_767_265" cx="0" cy="0" r="1" gradientUnits="userSpaceOnUse" gradientTransform="translate(24.9123 101.744) rotate(52.125) scale(27.2431 25.3987)">
<stop stop-color="#F9DCA3"/>
<stop offset="0.3125" stop-color="#F4C86F"/>
<stop offset="0.494792" stop-color="#E7AD51"/>
<stop offset="0.74188" stop-color="#C18B32"/>
<stop offset="1" stop-color="#D37EE8"/>
</radialGradient>
<linearGradient id="paint20_linear_767_265" x1="25.2132" y1="127.23" x2="25.2132" y2="116.23" gradientUnits="userSpaceOnUse">
<stop/>
<stop offset="1" stop-opacity="0"/>
</linearGradient>
<radialGradient id="paint21_radial_767_265" cx="0" cy="0" r="1" gradientUnits="userSpaceOnUse" gradientTransform="translate(21.8273 118.779) rotate(-45) scale(9 18.8032)">
<stop stop-color="#38218C"/>
<stop offset="1" stop-color="#3C1DB0" stop-opacity="0"/>
</radialGradient>
<radialGradient id="paint22_radial_767_265" cx="0" cy="0" r="1" gradientUnits="userSpaceOnUse" gradientTransform="translate(170.834 42.6156) rotate(100.67) scale(24.8244)">
<stop offset="0.125" stop-color="#96F5FE"/>
<stop offset="0.416667" stop-color="#5A67D6"/>
<stop offset="0.552083" stop-color="#6624B8"/>
<stop offset="0.697917" stop-color="#422F9E"/>
<stop offset="0.932292" stop-color="#DFA64A"/>
<stop offset="1" stop-color="#96F5FF"/>
</radialGradient>
<linearGradient id="paint23_linear_767_265" x1="165.806" y1="67.2857" x2="172.476" y2="60.6157" gradientUnits="userSpaceOnUse">
<stop stop-color="#2D1F73"/>
<stop offset="1" stop-color="#312182" stop-opacity="0"/>
</linearGradient>
<radialGradient id="paint24_radial_767_265" cx="0" cy="0" r="1" gradientUnits="userSpaceOnUse" gradientTransform="translate(167.834 17.9276) rotate(100.67) scale(24.8244)">
<stop offset="0.125" stop-color="#96F5FE"/>
<stop offset="0.416667" stop-color="#5A67D6"/>
<stop offset="0.552083" stop-color="#6624B8"/>
<stop offset="0.697917" stop-color="#422F9E"/>
<stop offset="0.932292" stop-color="#DFA64A"/>
<stop offset="1" stop-color="#96F5FF"/>
</radialGradient>
<linearGradient id="paint25_linear_767_265" x1="162.806" y1="42.5978" x2="169.476" y2="35.9277" gradientUnits="userSpaceOnUse">
<stop stop-color="#2D1F73"/>
<stop offset="1" stop-color="#312182" stop-opacity="0"/>
</linearGradient>
<radialGradient id="paint26_radial_767_265" cx="0" cy="0" r="1" gradientUnits="userSpaceOnUse" gradientTransform="translate(248.08 94.1352) rotate(71.9657) scale(16.5813 15.4587)">
<stop offset="0.0572917" stop-color="white"/>
<stop offset="0.578125" stop-color="#CDE0FC"/>
<stop offset="0.854167" stop-color="#639EF5"/>
<stop offset="1" stop-color="#AC94F0"/>
</radialGradient>
<radialGradient id="paint27_radial_767_265" cx="0" cy="0" r="1" gradientUnits="userSpaceOnUse" gradientTransform="translate(247.346 94.1352) rotate(33.3407) scale(16.6783 15.5492)">
<stop offset="0.0572917" stop-color="#F4C86F"/>
<stop offset="0.433972" stop-color="#E7AD51"/>
<stop offset="0.60894" stop-color="#C18B32"/>
<stop offset="1" stop-color="#D37EE8"/>
</radialGradient>
<radialGradient id="paint28_radial_767_265" cx="0" cy="0" r="1" gradientUnits="userSpaceOnUse" gradientTransform="translate(247.859 91.2116) rotate(52.125) scale(19.9783 18.6257)">
<stop stop-color="#F9DCA3"/>
<stop offset="0.3125" stop-color="#F4C86F"/>
<stop offset="0.494792" stop-color="#E7AD51"/>
<stop offset="0.74188" stop-color="#C18B32"/>
<stop offset="1" stop-color="#D37EE8"/>
</radialGradient>
<linearGradient id="paint29_linear_767_265" x1="248.08" y1="109.902" x2="248.08" y2="101.835" gradientUnits="userSpaceOnUse">
<stop/>
<stop offset="1" stop-opacity="0"/>
</linearGradient>
<radialGradient id="paint30_radial_767_265" cx="0" cy="0" r="1" gradientUnits="userSpaceOnUse" gradientTransform="translate(245.08 69.4467) rotate(71.9657) scale(16.5813 15.4587)">
<stop offset="0.0572917" stop-color="white"/>
<stop offset="0.578125" stop-color="#CDE0FC"/>
<stop offset="0.854167" stop-color="#639EF5"/>
<stop offset="1" stop-color="#AC94F0"/>
</radialGradient>
<radialGradient id="paint31_radial_767_265" cx="0" cy="0" r="1" gradientUnits="userSpaceOnUse" gradientTransform="translate(244.346 69.4467) rotate(33.3407) scale(16.6783 15.5492)">
<stop offset="0.0572917" stop-color="#F4C86F"/>
<stop offset="0.433972" stop-color="#E7AD51"/>
<stop offset="0.60894" stop-color="#C18B32"/>
<stop offset="1" stop-color="#D37EE8"/>
</radialGradient>
<radialGradient id="paint32_radial_767_265" cx="0" cy="0" r="1" gradientUnits="userSpaceOnUse" gradientTransform="translate(244.859 66.5231) rotate(52.125) scale(19.9783 18.6257)">
<stop stop-color="#F9DCA3"/>
<stop offset="0.3125" stop-color="#F4C86F"/>
<stop offset="0.494792" stop-color="#E7AD51"/>
<stop offset="0.74188" stop-color="#C18B32"/>
<stop offset="1" stop-color="#D37EE8"/>
</radialGradient>
<radialGradient id="paint33_radial_767_265" cx="0" cy="0" r="1" gradientUnits="userSpaceOnUse" gradientTransform="translate(242.597 79.0158) rotate(-45) scale(6.6 13.789)">
<stop stop-color="#38218C"/>
<stop offset="1" stop-color="#3C1DB0" stop-opacity="0"/>
</radialGradient>
</defs>
</svg>
