<svg width="352" height="475" viewBox="0 0 352 475" fill="none" xmlns="http://www.w3.org/2000/svg">
<rect opacity="0.5" x="138.414" width="30" height="117" fill="url(#paint0_linear_753_244)"/>
<g opacity="0.6" filter="url(#filter0_f_753_244)">
<circle cx="156.213" cy="141.213" r="15" transform="rotate(-45 156.213 141.213)" fill="url(#paint1_radial_753_244)"/>
<circle cx="156.213" cy="141.213" r="15" transform="rotate(-45 156.213 141.213)" fill="url(#paint2_radial_753_244)"/>
<circle cx="156.213" cy="141.213" r="15" transform="rotate(-45 156.213 141.213)" fill="url(#paint3_radial_753_244)"/>
<circle cx="156.213" cy="141.213" r="15" transform="rotate(-45 156.213 141.213)" fill="url(#paint4_linear_753_244)" fill-opacity="0.4"/>
</g>
<g filter="url(#filter1_f_753_244)">
<path d="M158.928 122.371C162.937 126.38 167.814 128.754 161.956 134.612C156.098 140.47 143.465 144.246 139.456 140.237C135.447 136.228 135.205 131.577 141.062 125.719C146.92 119.861 154.919 118.362 158.928 122.371Z" fill="#110945"/>
<path d="M158.928 122.371C162.937 126.38 167.814 128.754 161.956 134.612C156.098 140.47 143.465 144.246 139.456 140.237C135.447 136.228 135.205 131.577 141.062 125.719C146.92 119.861 154.919 118.362 158.928 122.371Z" fill="#110945"/>
</g>
<circle cx="153.213" cy="116.525" r="15" transform="rotate(-45 153.213 116.525)" fill="url(#paint5_radial_753_244)"/>
<circle cx="153.213" cy="116.525" r="15" transform="rotate(-45 153.213 116.525)" fill="url(#paint6_radial_753_244)"/>
<circle cx="153.213" cy="116.525" r="15" transform="rotate(-45 153.213 116.525)" fill="url(#paint7_radial_753_244)"/>
<circle cx="153.213" cy="116.525" r="15" transform="rotate(-45 153.213 116.525)" fill="url(#paint8_linear_753_244)" fill-opacity="0.4"/>
<circle cx="153.213" cy="116.525" r="15" transform="rotate(-45 153.213 116.525)" fill="url(#paint9_radial_753_244)"/>
<g filter="url(#filter2_f_753_244)">
<circle cx="323.5" cy="232.188" r="8.13173" transform="rotate(-45 323.5 232.188)" fill="url(#paint10_radial_753_244)"/>
<circle cx="323.5" cy="232.188" r="8.13173" transform="rotate(-45 323.5 232.188)" fill="url(#paint11_linear_753_244)"/>
</g>
<g filter="url(#filter3_f_753_244)">
<path d="M325.003 214.55C327.477 217.024 330.487 218.489 326.872 222.105C323.256 225.72 315.459 228.051 312.985 225.576C310.51 223.102 310.361 220.231 313.976 216.616C317.592 213 322.528 212.075 325.003 214.55Z" fill="#110945"/>
<path d="M325.003 214.55C327.477 217.024 330.487 218.489 326.872 222.105C323.256 225.72 315.459 228.051 312.985 225.576C310.51 223.102 310.361 220.231 313.976 216.616C317.592 213 322.528 212.075 325.003 214.55Z" fill="#110945"/>
</g>
<circle cx="320.5" cy="212.5" r="8.13173" transform="rotate(-45 320.5 212.5)" fill="url(#paint12_radial_753_244)"/>
<circle cx="320.5" cy="212.5" r="8.13173" transform="rotate(-45 320.5 212.5)" fill="url(#paint13_linear_753_244)"/>
<g filter="url(#filter4_f_753_244)">
<circle cx="123.625" cy="450.313" r="4.68458" transform="rotate(-45 123.625 450.313)" fill="url(#paint14_radial_753_244)"/>
<circle cx="123.625" cy="450.313" r="4.68458" transform="rotate(-45 123.625 450.313)" fill="url(#paint15_linear_753_244)"/>
</g>
<g filter="url(#filter5_f_753_244)">
<path d="M123.613 425.833C125.1 427.319 126.907 428.199 124.736 430.371C122.564 432.543 117.88 433.943 116.394 432.457C114.907 430.97 114.817 429.246 116.989 427.074C119.161 424.902 122.127 424.346 123.613 425.833Z" fill="#110945"/>
<path d="M123.613 425.833C125.1 427.319 126.907 428.199 124.736 430.371C122.564 432.543 117.88 433.943 116.394 432.457C114.907 430.97 114.817 429.246 116.989 427.074C119.161 424.902 122.127 424.346 123.613 425.833Z" fill="#110945"/>
</g>
<circle cx="120.625" cy="425.625" r="4.68458" transform="rotate(-45 120.625 425.625)" fill="url(#paint16_radial_753_244)"/>
<circle cx="120.625" cy="425.625" r="4.68458" transform="rotate(-45 120.625 425.625)" fill="url(#paint17_linear_753_244)"/>
<g filter="url(#filter6_f_753_244)">
<circle cx="270.625" cy="357.313" r="4.68458" transform="rotate(-45 270.625 357.313)" fill="url(#paint18_radial_753_244)"/>
<circle cx="270.625" cy="357.313" r="4.68458" transform="rotate(-45 270.625 357.313)" fill="url(#paint19_linear_753_244)"/>
</g>
<g filter="url(#filter7_f_753_244)">
<path d="M271.613 336.733C273.1 338.219 274.907 339.1 272.736 341.271C270.564 343.443 265.88 344.843 264.394 343.357C262.907 341.871 262.817 340.146 264.989 337.974C267.161 335.802 270.127 335.247 271.613 336.733Z" fill="#110945"/>
<path d="M271.613 336.733C273.1 338.219 274.907 339.1 272.736 341.271C270.564 343.443 265.88 344.843 264.394 343.357C262.907 341.871 262.817 340.146 264.989 337.974C267.161 335.802 270.127 335.247 271.613 336.733Z" fill="#110945"/>
</g>
<circle cx="267.625" cy="336.625" r="4.68458" transform="rotate(-45 267.625 336.625)" fill="url(#paint20_radial_753_244)"/>
<circle cx="267.625" cy="336.625" r="4.68458" transform="rotate(-45 267.625 336.625)" fill="url(#paint21_linear_753_244)"/>
<g filter="url(#filter8_f_753_244)">
<circle cx="32.0001" cy="313.688" r="11.3138" transform="rotate(-45 32.0001 313.688)" fill="url(#paint22_radial_753_244)"/>
<circle cx="32.0001" cy="313.688" r="11.3138" transform="rotate(-45 32.0001 313.688)" fill="url(#paint23_linear_753_244)"/>
</g>
<g filter="url(#filter9_f_753_244)">
<path d="M32.9173 289.947C36.1516 293.181 40.0854 295.096 35.3597 299.822C30.6339 304.547 20.4425 307.594 17.2082 304.36C13.9739 301.125 13.7786 297.373 18.5043 292.647C23.2301 287.921 29.683 286.712 32.9173 289.947Z" fill="#110945"/>
<path d="M32.9173 289.947C36.1516 293.181 40.0854 295.096 35.3597 299.822C30.6339 304.547 20.4425 307.594 17.2082 304.36C13.9739 301.125 13.7786 297.373 18.5043 292.647C23.2301 287.921 29.683 286.712 32.9173 289.947Z" fill="#110945"/>
</g>
<circle cx="29.0001" cy="289" r="11.3138" transform="rotate(-45 29.0001 289)" fill="url(#paint24_radial_753_244)"/>
<circle cx="29.0001" cy="289" r="11.3138" transform="rotate(-45 29.0001 289)" fill="url(#paint25_linear_753_244)"/>
<defs>
<filter id="filter0_f_753_244" x="121.213" y="106.213" width="70" height="70" filterUnits="userSpaceOnUse" color-interpolation-filters="sRGB">
<feFlood flood-opacity="0" result="BackgroundImageFix"/>
<feBlend mode="normal" in="SourceGraphic" in2="BackgroundImageFix" result="shape"/>
<feGaussianBlur stdDeviation="10" result="effect1_foregroundBlur_753_244"/>
</filter>
<filter id="filter1_f_753_244" x="126.542" y="110.124" width="48.124" height="41.7761" filterUnits="userSpaceOnUse" color-interpolation-filters="sRGB">
<feFlood flood-opacity="0" result="BackgroundImageFix"/>
<feBlend mode="normal" in="SourceGraphic" in2="BackgroundImageFix" result="shape"/>
<feGaussianBlur stdDeviation="5" result="effect1_foregroundBlur_753_244"/>
</filter>
<filter id="filter2_f_753_244" x="295.368" y="204.056" width="56.2637" height="56.2637" filterUnits="userSpaceOnUse" color-interpolation-filters="sRGB">
<feFlood flood-opacity="0" result="BackgroundImageFix"/>
<feBlend mode="normal" in="SourceGraphic" in2="BackgroundImageFix" result="shape"/>
<feGaussianBlur stdDeviation="10" result="effect1_foregroundBlur_753_244"/>
</filter>
<filter id="filter3_f_753_244" x="306.186" y="208.162" width="27.3584" height="23.4404" filterUnits="userSpaceOnUse" color-interpolation-filters="sRGB">
<feFlood flood-opacity="0" result="BackgroundImageFix"/>
<feBlend mode="normal" in="SourceGraphic" in2="BackgroundImageFix" result="shape"/>
<feGaussianBlur stdDeviation="2.5" result="effect1_foregroundBlur_753_244"/>
</filter>
<filter id="filter4_f_753_244" x="98.9404" y="425.629" width="49.3691" height="49.3691" filterUnits="userSpaceOnUse" color-interpolation-filters="sRGB">
<feFlood flood-opacity="0" result="BackgroundImageFix"/>
<feBlend mode="normal" in="SourceGraphic" in2="BackgroundImageFix" result="shape"/>
<feGaussianBlur stdDeviation="10" result="effect1_foregroundBlur_753_244"/>
</filter>
<filter id="filter5_f_753_244" x="112.309" y="421.996" width="16.4344" height="14.0809" filterUnits="userSpaceOnUse" color-interpolation-filters="sRGB">
<feFlood flood-opacity="0" result="BackgroundImageFix"/>
<feBlend mode="normal" in="SourceGraphic" in2="BackgroundImageFix" result="shape"/>
<feGaussianBlur stdDeviation="1.50178" result="effect1_foregroundBlur_753_244"/>
</filter>
<filter id="filter6_f_753_244" x="245.94" y="332.629" width="49.3691" height="49.3691" filterUnits="userSpaceOnUse" color-interpolation-filters="sRGB">
<feFlood flood-opacity="0" result="BackgroundImageFix"/>
<feBlend mode="normal" in="SourceGraphic" in2="BackgroundImageFix" result="shape"/>
<feGaussianBlur stdDeviation="10" result="effect1_foregroundBlur_753_244"/>
</filter>
<filter id="filter7_f_753_244" x="260.309" y="332.896" width="16.4344" height="14.0809" filterUnits="userSpaceOnUse" color-interpolation-filters="sRGB">
<feFlood flood-opacity="0" result="BackgroundImageFix"/>
<feBlend mode="normal" in="SourceGraphic" in2="BackgroundImageFix" result="shape"/>
<feGaussianBlur stdDeviation="1.50178" result="effect1_foregroundBlur_753_244"/>
</filter>
<filter id="filter8_f_753_244" x="0.686523" y="282.375" width="62.6274" height="62.6274" filterUnits="userSpaceOnUse" color-interpolation-filters="sRGB">
<feFlood flood-opacity="0" result="BackgroundImageFix"/>
<feBlend mode="normal" in="SourceGraphic" in2="BackgroundImageFix" result="shape"/>
<feGaussianBlur stdDeviation="10" result="effect1_foregroundBlur_753_244"/>
</filter>
<filter id="filter9_f_753_244" x="8.85693" y="282.134" width="34.6885" height="29.5674" filterUnits="userSpaceOnUse" color-interpolation-filters="sRGB">
<feFlood flood-opacity="0" result="BackgroundImageFix"/>
<feBlend mode="normal" in="SourceGraphic" in2="BackgroundImageFix" result="shape"/>
<feGaussianBlur stdDeviation="3" result="effect1_foregroundBlur_753_244"/>
</filter>
<linearGradient id="paint0_linear_753_244" x1="107.414" y1="117" x2="107.414" y2="36" gradientUnits="userSpaceOnUse">
<stop stop-color="#E2A94D"/>
<stop offset="1" stop-color="#E24DC1" stop-opacity="0"/>
</linearGradient>
<radialGradient id="paint1_radial_753_244" cx="0" cy="0" r="1" gradientUnits="userSpaceOnUse" gradientTransform="translate(149.213 134.713) rotate(71.9657) scale(22.6108 21.0801)">
<stop offset="0.0572917" stop-color="white"/>
<stop offset="0.578125" stop-color="#CDE0FC"/>
<stop offset="0.854167" stop-color="#639EF5"/>
<stop offset="1" stop-color="#AC94F0"/>
</radialGradient>
<radialGradient id="paint2_radial_753_244" cx="0" cy="0" r="1" gradientUnits="userSpaceOnUse" gradientTransform="translate(148.213 134.713) rotate(33.3407) scale(22.7431 21.2034)">
<stop offset="0.0572917" stop-color="#F4C86F"/>
<stop offset="0.433972" stop-color="#E7AD51"/>
<stop offset="0.60894" stop-color="#C18B32"/>
<stop offset="1" stop-color="#D37EE8"/>
</radialGradient>
<radialGradient id="paint3_radial_753_244" cx="0" cy="0" r="1" gradientUnits="userSpaceOnUse" gradientTransform="translate(148.912 130.726) rotate(52.125) scale(27.2431 25.3987)">
<stop stop-color="#F9DCA3"/>
<stop offset="0.3125" stop-color="#F4C86F"/>
<stop offset="0.494792" stop-color="#E7AD51"/>
<stop offset="0.74188" stop-color="#C18B32"/>
<stop offset="1" stop-color="#D37EE8"/>
</radialGradient>
<linearGradient id="paint4_linear_753_244" x1="149.213" y1="156.213" x2="149.213" y2="145.213" gradientUnits="userSpaceOnUse">
<stop/>
<stop offset="1" stop-opacity="0"/>
</linearGradient>
<radialGradient id="paint5_radial_753_244" cx="0" cy="0" r="1" gradientUnits="userSpaceOnUse" gradientTransform="translate(146.213 110.025) rotate(71.9657) scale(22.6108 21.0801)">
<stop offset="0.0572917" stop-color="white"/>
<stop offset="0.578125" stop-color="#CDE0FC"/>
<stop offset="0.854167" stop-color="#639EF5"/>
<stop offset="1" stop-color="#AC94F0"/>
</radialGradient>
<radialGradient id="paint6_radial_753_244" cx="0" cy="0" r="1" gradientUnits="userSpaceOnUse" gradientTransform="translate(145.213 110.025) rotate(33.3407) scale(22.7431 21.2034)">
<stop offset="0.0572917" stop-color="#F4C86F"/>
<stop offset="0.433972" stop-color="#E7AD51"/>
<stop offset="0.60894" stop-color="#C18B32"/>
<stop offset="1" stop-color="#D37EE8"/>
</radialGradient>
<radialGradient id="paint7_radial_753_244" cx="0" cy="0" r="1" gradientUnits="userSpaceOnUse" gradientTransform="translate(145.912 106.038) rotate(52.125) scale(27.2431 25.3987)">
<stop stop-color="#F9DCA3"/>
<stop offset="0.3125" stop-color="#F4C86F"/>
<stop offset="0.494792" stop-color="#E7AD51"/>
<stop offset="0.74188" stop-color="#C18B32"/>
<stop offset="1" stop-color="#D37EE8"/>
</radialGradient>
<linearGradient id="paint8_linear_753_244" x1="146.213" y1="131.525" x2="146.213" y2="120.525" gradientUnits="userSpaceOnUse">
<stop/>
<stop offset="1" stop-opacity="0"/>
</linearGradient>
<radialGradient id="paint9_radial_753_244" cx="0" cy="0" r="1" gradientUnits="userSpaceOnUse" gradientTransform="translate(142.827 123.074) rotate(-45) scale(9 18.8032)">
<stop stop-color="#38218C"/>
<stop offset="1" stop-color="#3C1DB0" stop-opacity="0"/>
</radialGradient>
<radialGradient id="paint10_radial_753_244" cx="0" cy="0" r="1" gradientUnits="userSpaceOnUse" gradientTransform="translate(322.687 226.612) rotate(100.67) scale(13.4577)">
<stop offset="0.125" stop-color="#96F5FE"/>
<stop offset="0.416667" stop-color="#5A67D6"/>
<stop offset="0.552083" stop-color="#6624B8"/>
<stop offset="0.697917" stop-color="#422F9E"/>
<stop offset="0.932292" stop-color="#DFA64A"/>
<stop offset="1" stop-color="#96F5FF"/>
</radialGradient>
<linearGradient id="paint11_linear_753_244" x1="319.961" y1="239.986" x2="323.577" y2="236.37" gradientUnits="userSpaceOnUse">
<stop stop-color="#2D1F73"/>
<stop offset="1" stop-color="#312182" stop-opacity="0"/>
</linearGradient>
<radialGradient id="paint12_radial_753_244" cx="0" cy="0" r="1" gradientUnits="userSpaceOnUse" gradientTransform="translate(319.687 206.924) rotate(100.67) scale(13.4577)">
<stop offset="0.125" stop-color="#96F5FE"/>
<stop offset="0.416667" stop-color="#5A67D6"/>
<stop offset="0.552083" stop-color="#6624B8"/>
<stop offset="0.697917" stop-color="#422F9E"/>
<stop offset="0.932292" stop-color="#DFA64A"/>
<stop offset="1" stop-color="#96F5FF"/>
</radialGradient>
<linearGradient id="paint13_linear_753_244" x1="316.961" y1="220.298" x2="320.577" y2="216.682" gradientUnits="userSpaceOnUse">
<stop stop-color="#2D1F73"/>
<stop offset="1" stop-color="#312182" stop-opacity="0"/>
</linearGradient>
<radialGradient id="paint14_radial_753_244" cx="0" cy="0" r="1" gradientUnits="userSpaceOnUse" gradientTransform="translate(123.157 447.101) rotate(100.67) scale(7.75279)">
<stop offset="0.125" stop-color="#96F5FE"/>
<stop offset="0.416667" stop-color="#5A67D6"/>
<stop offset="0.552083" stop-color="#6624B8"/>
<stop offset="0.697917" stop-color="#422F9E"/>
<stop offset="0.932292" stop-color="#DFA64A"/>
<stop offset="1" stop-color="#96F5FF"/>
</radialGradient>
<linearGradient id="paint15_linear_753_244" x1="121.587" y1="454.806" x2="123.67" y2="452.722" gradientUnits="userSpaceOnUse">
<stop stop-color="#2D1F73"/>
<stop offset="1" stop-color="#312182" stop-opacity="0"/>
</linearGradient>
<radialGradient id="paint16_radial_753_244" cx="0" cy="0" r="1" gradientUnits="userSpaceOnUse" gradientTransform="translate(120.157 422.413) rotate(100.67) scale(7.75279)">
<stop offset="0.125" stop-color="#96F5FE"/>
<stop offset="0.416667" stop-color="#5A67D6"/>
<stop offset="0.552083" stop-color="#6624B8"/>
<stop offset="0.697917" stop-color="#422F9E"/>
<stop offset="0.932292" stop-color="#DFA64A"/>
<stop offset="1" stop-color="#96F5FF"/>
</radialGradient>
<linearGradient id="paint17_linear_753_244" x1="118.587" y1="430.117" x2="120.67" y2="428.034" gradientUnits="userSpaceOnUse">
<stop stop-color="#2D1F73"/>
<stop offset="1" stop-color="#312182" stop-opacity="0"/>
</linearGradient>
<radialGradient id="paint18_radial_753_244" cx="0" cy="0" r="1" gradientUnits="userSpaceOnUse" gradientTransform="translate(270.157 354.101) rotate(100.67) scale(7.75279)">
<stop offset="0.125" stop-color="#96F5FE"/>
<stop offset="0.416667" stop-color="#5A67D6"/>
<stop offset="0.552083" stop-color="#6624B8"/>
<stop offset="0.697917" stop-color="#422F9E"/>
<stop offset="0.932292" stop-color="#DFA64A"/>
<stop offset="1" stop-color="#96F5FF"/>
</radialGradient>
<linearGradient id="paint19_linear_753_244" x1="268.587" y1="361.806" x2="270.67" y2="359.722" gradientUnits="userSpaceOnUse">
<stop stop-color="#2D1F73"/>
<stop offset="1" stop-color="#312182" stop-opacity="0"/>
</linearGradient>
<radialGradient id="paint20_radial_753_244" cx="0" cy="0" r="1" gradientUnits="userSpaceOnUse" gradientTransform="translate(267.157 333.413) rotate(100.67) scale(7.75279)">
<stop offset="0.125" stop-color="#96F5FE"/>
<stop offset="0.416667" stop-color="#5A67D6"/>
<stop offset="0.552083" stop-color="#6624B8"/>
<stop offset="0.697917" stop-color="#422F9E"/>
<stop offset="0.932292" stop-color="#DFA64A"/>
<stop offset="1" stop-color="#96F5FF"/>
</radialGradient>
<linearGradient id="paint21_linear_753_244" x1="265.587" y1="341.117" x2="267.67" y2="339.034" gradientUnits="userSpaceOnUse">
<stop stop-color="#2D1F73"/>
<stop offset="1" stop-color="#312182" stop-opacity="0"/>
</linearGradient>
<radialGradient id="paint22_radial_753_244" cx="0" cy="0" r="1" gradientUnits="userSpaceOnUse" gradientTransform="translate(30.8695 305.93) rotate(100.67) scale(18.7238)">
<stop offset="0.125" stop-color="#96F5FE"/>
<stop offset="0.416667" stop-color="#5A67D6"/>
<stop offset="0.552083" stop-color="#6624B8"/>
<stop offset="0.697917" stop-color="#422F9E"/>
<stop offset="0.932292" stop-color="#DFA64A"/>
<stop offset="1" stop-color="#96F5FF"/>
</radialGradient>
<linearGradient id="paint23_linear_753_244" x1="27.0769" y1="324.538" x2="32.1078" y2="319.507" gradientUnits="userSpaceOnUse">
<stop stop-color="#2D1F73"/>
<stop offset="1" stop-color="#312182" stop-opacity="0"/>
</linearGradient>
<radialGradient id="paint24_radial_753_244" cx="0" cy="0" r="1" gradientUnits="userSpaceOnUse" gradientTransform="translate(27.8695 281.242) rotate(100.67) scale(18.7238)">
<stop offset="0.125" stop-color="#96F5FE"/>
<stop offset="0.416667" stop-color="#5A67D6"/>
<stop offset="0.552083" stop-color="#6624B8"/>
<stop offset="0.697917" stop-color="#422F9E"/>
<stop offset="0.932292" stop-color="#DFA64A"/>
<stop offset="1" stop-color="#96F5FF"/>
</radialGradient>
<linearGradient id="paint25_linear_753_244" x1="24.0769" y1="299.85" x2="29.1078" y2="294.819" gradientUnits="userSpaceOnUse">
<stop stop-color="#2D1F73"/>
<stop offset="1" stop-color="#312182" stop-opacity="0"/>
</linearGradient>
</defs>
</svg>
