<svg width="207" height="255" viewBox="0 0 207 255" fill="none" xmlns="http://www.w3.org/2000/svg">
<g filter="url(#filter0_f_34_12857)">
<path d="M153.051 168.994L112.03 145.061C107.311 142.313 99.6275 142.313 94.9083 145.061L54.1299 168.994C49.4107 171.741 49.4712 176.259 54.1904 179.006L95.2108 202.939C99.93 205.687 107.614 205.687 112.333 202.939L153.111 179.006C157.831 176.259 157.77 171.741 153.051 168.994Z" fill="#110945"/>
</g>
<path d="M173.143 42.1412L115.381 20.7229C108.804 16.9283 98.095 16.9283 91.5177 20.7229L36.6228 46.8633L29.7925 42.9001C29.7925 48.0836 29.6266 118.78 29.6208 123.15C29.6085 132.359 30.3072 139.276 34.7677 141.849L91.9393 174.904C98.5166 178.699 109.226 178.699 115.803 174.904L172.637 141.849C176.957 139.357 177.712 133.591 177.722 124.837C177.727 120.263 177.528 49.0639 177.528 42.9001" fill="url(#paint0_linear_34_12857)"/>
<path d="M173.143 42.1412L115.381 20.7229C108.804 16.9283 98.095 16.9283 91.5177 20.7229L36.6228 46.8633L29.7925 42.9001C29.7925 48.0836 29.6266 118.78 29.6208 123.15C29.6085 132.359 30.3072 139.276 34.7677 141.849L91.9393 174.904C98.5166 178.699 109.226 178.699 115.803 174.904L172.637 141.849C176.957 139.357 177.712 133.591 177.722 124.837C177.727 120.263 177.528 49.0639 177.528 42.9001" fill="url(#paint1_linear_34_12857)"/>
<path d="M172.553 35.9009L115.382 2.84593C108.804 -0.948645 98.0951 -0.948645 91.5178 2.84593L34.6835 35.9009C28.1062 39.6955 28.1905 45.9355 34.7678 49.7301L91.9395 82.7851C98.5167 86.5796 109.226 86.5796 115.803 82.7851L172.637 49.7301C179.215 45.9355 179.13 39.6955 172.553 35.9009Z" fill="url(#paint2_radial_34_12857)"/>
<defs>
<filter id="filter0_f_34_12857" x="0.620605" y="93" width="206" height="162" filterUnits="userSpaceOnUse" color-interpolation-filters="sRGB">
<feFlood flood-opacity="0" result="BackgroundImageFix"/>
<feBlend mode="normal" in="SourceGraphic" in2="BackgroundImageFix" result="shape"/>
<feGaussianBlur stdDeviation="25" result="effect1_foregroundBlur_34_12857"/>
</filter>
<linearGradient id="paint0_linear_34_12857" x1="29.6239" y1="54.8741" x2="178.034" y2="54.4525" gradientUnits="userSpaceOnUse">
<stop stop-color="#3D85FF"/>
<stop offset="0.130208" stop-color="#25A4FF"/>
<stop offset="0.260417" stop-color="#1D99FF"/>
<stop offset="0.426153" stop-color="#3C86FF"/>
<stop offset="0.503412" stop-color="#DFF4FF"/>
<stop offset="0.679613" stop-color="#94BFFF"/>
<stop offset="0.834327" stop-color="#62A2FF"/>
<stop offset="1" stop-color="#47B1FD"/>
</linearGradient>
<linearGradient id="paint1_linear_34_12857" x1="27.6206" y1="172.663" x2="177.621" y2="172.663" gradientUnits="userSpaceOnUse">
<stop stop-color="#432F9E"/>
<stop offset="0.306667" stop-color="#6B22BC"/>
<stop offset="0.486667" stop-color="#3E309A"/>
<stop offset="0.593333" stop-color="#E9B350"/>
<stop offset="0.8333" stop-color="#93FAFF"/>
<stop offset="0.898705" stop-color="#46ABEC"/>
<stop offset="1" stop-color="#7C1DC9"/>
</linearGradient>
<radialGradient id="paint2_radial_34_12857" cx="0" cy="0" r="1" gradientUnits="userSpaceOnUse" gradientTransform="translate(177.621 43) rotate(170.789) scale(149.933 111.517)">
<stop stop-color="#E6B657"/>
<stop offset="0.270107" stop-color="#9BECFC"/>
<stop offset="0.49395" stop-color="#4F94E7"/>
<stop offset="0.704932" stop-color="#6346C9"/>
<stop offset="1" stop-color="#2E217D"/>
</radialGradient>
</defs>
</svg>
