<svg width="160" height="40" viewBox="0 0 160 40" fill="none" xmlns="http://www.w3.org/2000/svg">
<circle cx="2.5" cy="11.5" r="2.5" fill="#1E1E1E"/>
<circle cx="2.5" cy="21" r="2" fill="#1E1E1E"/>
<circle cx="2.5" cy="29.5" r="1.5" fill="#1E1E1E"/>
<circle cx="11.5" cy="11.5" r="2.5" fill="#1E1E1E"/>
<circle cx="11.5" cy="21" r="2" fill="#1E1E1E"/>
<circle cx="11.5" cy="29.5" r="1.5" fill="#1E1E1E"/>
<circle cx="20.5" cy="11.5" r="2.5" fill="#1E1E1E"/>
<circle cx="20.5" cy="21" r="2" fill="#1E1E1E"/>
<circle cx="20.5" cy="29.5" r="1.5" fill="#1E1E1E"/>
<path d="M34.118 20.426C34.118 18.658 34.5167 17.072 35.314 15.668C36.1113 14.2467 37.1947 13.1373 38.564 12.34C39.9507 11.5427 41.4847 11.144 43.166 11.144C45.142 11.144 46.8667 11.6207 48.34 12.574C49.8133 13.5273 50.888 14.8793 51.564 16.63H48.73C48.2273 15.538 47.4993 14.6973 46.546 14.108C45.61 13.5187 44.4833 13.224 43.166 13.224C41.9007 13.224 40.7653 13.5187 39.76 14.108C38.7547 14.6973 37.966 15.538 37.394 16.63C36.822 17.7047 36.536 18.97 36.536 20.426C36.536 21.8647 36.822 23.13 37.394 24.222C37.966 25.2967 38.7547 26.1287 39.76 26.718C40.7653 27.3073 41.9007 27.602 43.166 27.602C44.4833 27.602 45.61 27.316 46.546 26.744C47.4993 26.1547 48.2273 25.314 48.73 24.222H51.564C50.888 25.9553 49.8133 27.2987 48.34 28.252C46.8667 29.188 45.142 29.656 43.166 29.656C41.4847 29.656 39.9507 29.266 38.564 28.486C37.1947 27.6887 36.1113 26.588 35.314 25.184C34.5167 23.78 34.118 22.194 34.118 20.426ZM63.302 29.682C61.6207 29.682 60.0867 29.292 58.7 28.512C57.3133 27.7147 56.2127 26.614 55.398 25.21C54.6007 23.7887 54.202 22.194 54.202 20.426C54.202 18.658 54.6007 17.072 55.398 15.668C56.2127 14.2467 57.3133 13.146 58.7 12.366C60.0867 11.5687 61.6207 11.17 63.302 11.17C65.0007 11.17 66.5433 11.5687 67.93 12.366C69.3167 13.146 70.4087 14.238 71.206 15.642C72.0033 17.046 72.402 18.6407 72.402 20.426C72.402 22.2113 72.0033 23.806 71.206 25.21C70.4087 26.614 69.3167 27.7147 67.93 28.512C66.5433 29.292 65.0007 29.682 63.302 29.682ZM63.302 27.628C64.5673 27.628 65.7027 27.3333 66.708 26.744C67.7307 26.1547 68.528 25.314 69.1 24.222C69.6893 23.13 69.984 21.8647 69.984 20.426C69.984 18.97 69.6893 17.7047 69.1 16.63C68.528 15.538 67.7393 14.6973 66.734 14.108C65.7287 13.5187 64.5847 13.224 63.302 13.224C62.0193 13.224 60.8753 13.5187 59.87 14.108C58.8647 14.6973 58.0673 15.538 57.478 16.63C56.906 17.7047 56.62 18.97 56.62 20.426C56.62 21.8647 56.906 23.13 57.478 24.222C58.0673 25.314 58.8647 26.1547 59.87 26.744C60.8927 27.3333 62.0367 27.628 63.302 27.628ZM85.0674 29.5L80.7514 22.09H77.8914V29.5H75.5254V11.378H81.3754C82.7448 11.378 83.8974 11.612 84.8334 12.08C85.7868 12.548 86.4974 13.1807 86.9654 13.978C87.4334 14.7753 87.6674 15.6853 87.6674 16.708C87.6674 17.956 87.3034 19.0567 86.5754 20.01C85.8648 20.9633 84.7901 21.596 83.3514 21.908L87.9014 29.5H85.0674ZM77.8914 20.192H81.3754C82.6581 20.192 83.6201 19.88 84.2614 19.256C84.9028 18.6147 85.2234 17.7653 85.2234 16.708C85.2234 15.6333 84.9028 14.8013 84.2614 14.212C83.6374 13.6227 82.6754 13.328 81.3754 13.328H77.8914V20.192ZM103.46 16.682C103.46 18.19 102.94 19.4467 101.9 20.452C100.877 21.44 99.3085 21.934 97.1938 21.934H93.7098V29.5H91.3438V11.378H97.1938C99.2391 11.378 100.79 11.872 101.848 12.86C102.922 13.848 103.46 15.122 103.46 16.682ZM97.1938 19.984C98.5111 19.984 99.4818 19.698 100.106 19.126C100.73 18.554 101.042 17.7393 101.042 16.682C101.042 14.446 99.7591 13.328 97.1938 13.328H93.7098V19.984H97.1938ZM123.144 11.248L116.67 29.5H111.106L104.632 11.248H109.364L113.888 25.028L118.438 11.248H123.144ZM138.913 17.124C138.913 18.1813 138.67 19.152 138.185 20.036C137.699 20.9027 136.954 21.6047 135.949 22.142C134.943 22.6793 133.695 22.948 132.205 22.948H129.449V29.5H125.003V11.248H132.205C133.661 11.248 134.891 11.4993 135.897 12.002C136.902 12.5047 137.656 13.198 138.159 14.082C138.661 14.966 138.913 15.98 138.913 17.124ZM131.867 19.412C132.716 19.412 133.349 19.2127 133.765 18.814C134.181 18.4153 134.389 17.852 134.389 17.124C134.389 16.396 134.181 15.8327 133.765 15.434C133.349 15.0353 132.716 14.836 131.867 14.836H129.449V19.412H131.867ZM157.555 29.5H153.109L145.673 18.242V29.5H141.227V11.248H145.673L153.109 22.558V11.248H157.555V29.5Z" fill="#1E1E1E"/>
</svg>
