<svg width="20" height="21" viewBox="0 0 20 21" fill="none" xmlns="http://www.w3.org/2000/svg">
<path d="M0.872417 3.16776L3.53493 0.507747C3.85993 0.182745 4.29493 0.000244141 4.75493 0.000244141C5.21494 0.000244141 5.64994 0.180245 5.97494 0.507747L8.84245 3.37026C9.16745 3.69526 9.34995 4.13277 9.34995 4.59277C9.34995 5.05527 9.16995 5.48777 8.84245 5.81527L6.60244 8.05779C7.11273 9.24676 7.84593 10.327 8.76245 11.2403C9.67996 12.1628 10.7525 12.8903 11.9425 13.4053L14.1825 11.1628C14.5075 10.8378 14.9425 10.6553 15.4025 10.6553C15.6294 10.6545 15.8542 10.6989 16.0636 10.7861C16.2731 10.8732 16.4631 11.0013 16.6225 11.1628L19.4925 14.0253C19.8175 14.3503 20 14.7878 20 15.2478C20 15.7103 19.82 16.1428 19.4925 16.4703L16.8325 19.1303C16.2775 19.6853 15.5125 20.0028 14.7275 20.0028C14.565 20.0028 14.4075 19.9903 14.2475 19.9628C10.9375 19.4178 7.65245 17.6553 4.99994 15.0053C2.34992 12.3503 0.589914 9.06529 0.0399132 5.75277C-0.117588 4.81277 0.197414 3.84526 0.872417 3.16776ZM1.81242 5.45527C2.29992 8.40279 3.88493 11.3428 6.27244 13.7303C8.65995 16.1178 11.5975 17.7028 14.545 18.1903C14.915 18.2528 15.295 18.1278 15.565 17.8603L18.1775 15.2478L15.4075 12.4753L12.4125 15.4753L12.39 15.4978L11.85 15.2978C10.2126 14.6958 8.72579 13.745 7.49247 12.5113C6.25915 11.2775 5.30885 9.79033 4.70743 8.15279L4.50743 7.61278L7.52744 4.59527L4.75743 1.82275L2.14492 4.43527C1.87492 4.70527 1.74992 5.08527 1.81242 5.45527Z" fill="#A1B1BC"/>
</svg>
