<svg width="16" height="16" viewBox="0 0 16 16" fill="none" xmlns="http://www.w3.org/2000/svg">
<g clip-path="url(#clip0_53_246)">
<path d="M0.888916 13.3334C0.888916 12.3904 1.26352 11.486 1.93031 10.8192C2.59711 10.1524 3.50148 9.77783 4.44447 9.77783H11.5556C12.4986 9.77783 13.4029 10.1524 14.0697 10.8192C14.7365 11.486 15.1111 12.3904 15.1111 13.3334C15.1111 13.8049 14.9238 14.2571 14.5904 14.5905C14.257 14.9239 13.8049 15.1112 13.3334 15.1112H2.66669C2.1952 15.1112 1.74301 14.9239 1.40961 14.5905C1.07622 14.2571 0.888916 13.8049 0.888916 13.3334Z" stroke="white" stroke-width="1.77778" stroke-linejoin="round"/>
<path d="M8.00004 6.22225C9.4728 6.22225 10.6667 5.02834 10.6667 3.55558C10.6667 2.08282 9.4728 0.888916 8.00004 0.888916C6.52728 0.888916 5.33337 2.08282 5.33337 3.55558C5.33337 5.02834 6.52728 6.22225 8.00004 6.22225Z" stroke="white" stroke-width="1.77778"/>
</g>
<defs>
<clipPath id="clip0_53_246">
<rect width="16" height="16" fill="white"/>
</clipPath>
</defs>
</svg>
