<svg width="22" height="20" viewBox="0 0 22 20" fill="none" xmlns="http://www.w3.org/2000/svg">
<path d="M8.855 9.82305C7.83063 9.29642 6.83375 9.02967 5.89325 9.02967C5.76538 9.02967 5.63613 9.0338 5.50825 9.0448C4.27804 9.16081 3.07185 9.45876 1.92912 9.92893L0 16.6197C1.3255 16.1288 2.49837 15.8909 3.57225 15.8909C5.30888 15.8909 6.56975 16.5399 7.61062 17.2082C8.10425 15.5348 9.28675 11.4909 9.64013 10.2837C9.38255 10.1241 9.12075 9.97139 8.855 9.8258V9.82305ZM11.3492 11.5225L9.40637 18.2724C9.9825 18.6024 11.9226 19.6488 13.4076 19.6488C14.6066 19.6488 15.9486 19.3422 17.5079 18.7083L19.3627 12.221C18.1033 12.628 16.8946 12.8343 15.7644 12.8343C13.7032 12.8343 12.2595 12.166 11.3492 11.5253V11.5225ZM6.28925 6.74717C7.94613 6.76367 9.17125 7.39617 10.1874 8.04655L12.1797 1.2293C11.7604 0.988675 10.659 0.389175 9.86287 0.185675C9.3191 0.0602733 8.76267 -0.002013 8.20463 4.95898e-05C7.09225 0.0206746 5.87537 0.2998 4.49075 0.8553L2.5905 7.52817C3.98337 7.00292 5.18375 6.74717 6.28925 6.74717ZM21.9986 3.08142C20.735 3.5723 19.5016 3.82255 18.3246 3.82255C16.3542 3.82255 14.9022 3.13917 13.9617 2.4833L11.9859 9.3198C13.3127 10.1723 14.7427 10.6068 16.2429 10.6068C17.4666 10.6068 18.7344 10.3125 20.0131 9.7323L20.009 9.68417L20.0887 9.66492L21.9986 3.08142Z" fill="white"/>
</svg>
