<svg width="25" height="25" viewBox="0 0 25 25" fill="none" xmlns="http://www.w3.org/2000/svg">
<path d="M13.9957 16.7711C13.905 16.8556 13.8322 16.9575 13.7818 17.0708C13.7313 17.184 13.7042 17.3062 13.702 17.4302C13.6998 17.5541 13.7226 17.6773 13.769 17.7922C13.8155 17.9072 13.8846 18.0116 13.9722 18.0992C14.0599 18.1869 14.1643 18.256 14.2793 18.3024C14.3942 18.3489 14.5173 18.3717 14.6413 18.3695C14.7652 18.3673 14.8875 18.3402 15.0007 18.2897C15.1139 18.2393 15.2158 18.1665 15.3004 18.0758L20.2237 13.1524C20.3966 12.9793 20.4937 12.7446 20.4937 12.5C20.4937 12.2554 20.3966 12.0207 20.2237 11.8477L15.3004 6.9242C15.2158 6.8335 15.1139 6.76076 15.0007 6.7103C14.8875 6.65985 14.7652 6.63272 14.6413 6.63053C14.5173 6.62834 14.3942 6.65114 14.2793 6.69757C14.1643 6.744 14.0599 6.81311 13.9722 6.90077C13.8846 6.98843 13.8155 7.09285 13.769 7.2078C13.7226 7.32274 13.6998 7.44586 13.702 7.56982C13.7042 7.69377 13.7313 7.81601 13.7818 7.92925C13.8322 8.04249 13.905 8.1444 13.9957 8.22891L17.3435 11.5769H5.41678C5.17195 11.5769 4.93715 11.6741 4.76403 11.8472C4.59091 12.0204 4.49365 12.2552 4.49365 12.5C4.49365 12.7448 4.59091 12.9796 4.76403 13.1528C4.93715 13.3259 5.17195 13.4232 5.41678 13.4232H17.3435L13.9957 16.7711Z" fill="#501FA4"/>
</svg>
