<svg width="24" height="25" viewBox="0 0 24 25" fill="none" xmlns="http://www.w3.org/2000/svg">
<path d="M13.502 16.7711C13.4113 16.8556 13.3386 16.9575 13.2881 17.0708C13.2377 17.184 13.2105 17.3062 13.2084 17.4302C13.2062 17.5541 13.229 17.6773 13.2754 17.7922C13.3218 17.9072 13.3909 18.0116 13.4786 18.0992C13.5662 18.1869 13.6707 18.256 13.7856 18.3024C13.9006 18.3489 14.0237 18.3717 14.1476 18.3695C14.2716 18.3673 14.3938 18.3402 14.507 18.2897C14.6203 18.2393 14.7222 18.1665 14.8067 18.0758L19.73 13.1524C19.9029 12.9793 20 12.7446 20 12.5C20 12.2554 19.9029 12.0207 19.73 11.8477L14.8067 6.9242C14.7222 6.8335 14.6203 6.76076 14.507 6.7103C14.3938 6.65985 14.2716 6.63272 14.1476 6.63053C14.0237 6.62834 13.9006 6.65114 13.7856 6.69757C13.6707 6.744 13.5662 6.81311 13.4786 6.90077C13.3909 6.98843 13.3218 7.09285 13.2754 7.2078C13.229 7.32274 13.2062 7.44586 13.2084 7.56982C13.2105 7.69377 13.2377 7.81601 13.2881 7.92925C13.3386 8.04249 13.4113 8.1444 13.502 8.22891L16.8499 11.5769H4.92312C4.6783 11.5769 4.44349 11.6741 4.27038 11.8472C4.09726 12.0204 4 12.2552 4 12.5C4 12.7448 4.09726 12.9796 4.27038 13.1528C4.44349 13.3259 4.6783 13.4232 4.92312 13.4232H16.8499L13.502 16.7711Z" fill="white"/>
</svg>
