<svg width="66" height="69" viewBox="0 0 66 69" fill="none" xmlns="http://www.w3.org/2000/svg">
<path fill-rule="evenodd" clip-rule="evenodd" d="M37.4224 2.70674L47.9998 8.7576L58.578 14.8085C61.3907 16.4174 63 19.1803 63 22.3983V34.5V46.6017C63 49.8197 61.3907 52.5826 58.578 54.1915L47.9998 60.2424L37.4224 66.2933C34.6097 67.9022 31.3903 67.9022 28.5776 66.2933L18.0002 60.2424L7.42274 54.1915C4.61003 52.5826 3 49.8197 3 46.6017V34.5V22.3983C3 19.1803 4.61003 16.4174 7.42274 14.8085L18.0002 8.7576L28.5776 2.70674C31.3903 1.09775 34.6097 1.09775 37.4224 2.70674V2.70674Z" stroke="white" stroke-opacity="0.2" stroke-width="2"/>
<path d="M25.5066 27.716C26.044 27.872 26.4556 28.145 26.7416 28.535C27.0363 28.925 27.1836 29.406 27.1836 29.978C27.1836 30.7667 26.902 31.3863 26.3386 31.837C25.784 32.279 25.0083 32.5 24.0116 32.5H19.8126V23.244H23.8816C24.835 23.244 25.5846 23.4607 26.1306 23.894C26.6766 24.3187 26.9496 24.908 26.9496 25.662C26.9496 26.1473 26.8196 26.572 26.5596 26.936C26.3083 27.2913 25.9573 27.5513 25.5066 27.716ZM21.4506 27.144H23.6086C24.77 27.144 25.3506 26.7107 25.3506 25.844C25.3506 25.4107 25.2076 25.0857 24.9216 24.869C24.6356 24.6523 24.198 24.544 23.6086 24.544H21.4506V27.144ZM23.8296 31.2C24.4363 31.2 24.8783 31.0917 25.1556 30.875C25.4416 30.6583 25.5846 30.316 25.5846 29.848C25.5846 29.3713 25.4416 29.0203 25.1556 28.795C24.8783 28.5697 24.4363 28.457 23.8296 28.457H21.4506V31.2H23.8296ZM34.4172 29.302H29.8932C29.9279 30.004 30.1012 30.524 30.4132 30.862C30.7339 31.1913 31.2062 31.356 31.8302 31.356C32.5495 31.356 33.2169 31.122 33.8322 30.654L34.3002 31.772C33.9882 32.0233 33.6025 32.227 33.1432 32.383C32.6925 32.5303 32.2332 32.604 31.7652 32.604C30.6905 32.604 29.8455 32.3007 29.2302 31.694C28.6149 31.0873 28.3072 30.2553 28.3072 29.198C28.3072 28.5307 28.4415 27.937 28.7102 27.417C28.9789 26.897 29.3559 26.494 29.8412 26.208C30.3265 25.9133 30.8769 25.766 31.4922 25.766C32.3935 25.766 33.1042 26.0607 33.6242 26.65C34.1529 27.2307 34.4172 28.0323 34.4172 29.055V29.302ZM31.5312 26.936C31.0979 26.936 30.7425 27.066 30.4652 27.326C30.1965 27.5773 30.0232 27.9457 29.9452 28.431H33.0002C32.9482 27.937 32.7965 27.5643 32.5452 27.313C32.3025 27.0617 31.9645 26.936 31.5312 26.936ZM38.1983 32.604C37.0109 32.604 36.0663 32.3267 35.3643 31.772L35.8193 30.628C36.5213 31.148 37.3229 31.408 38.2243 31.408C38.6143 31.408 38.9133 31.343 39.1213 31.213C39.3379 31.083 39.4463 30.901 39.4463 30.667C39.4463 30.4677 39.3726 30.3117 39.2253 30.199C39.0779 30.0777 38.8266 29.9737 38.4713 29.887L37.3793 29.64C36.1833 29.38 35.5853 28.769 35.5853 27.807C35.5853 27.4083 35.6979 27.0573 35.9233 26.754C36.1486 26.442 36.4649 26.1993 36.8723 26.026C37.2796 25.8527 37.7519 25.766 38.2893 25.766C38.7573 25.766 39.2079 25.8397 39.6413 25.987C40.0746 26.1257 40.4559 26.3293 40.7853 26.598L40.3043 27.703C39.6456 27.2177 38.9696 26.975 38.2763 26.975C37.9036 26.975 37.6133 27.0443 37.4053 27.183C37.1973 27.3217 37.0933 27.5123 37.0933 27.755C37.0933 27.9457 37.1539 28.0973 37.2753 28.21C37.4053 28.3227 37.6219 28.418 37.9253 28.496L39.0433 28.743C39.6933 28.8903 40.1656 29.12 40.4603 29.432C40.7636 29.7353 40.9153 30.134 40.9153 30.628C40.9153 31.2347 40.6726 31.7157 40.1873 32.071C39.7019 32.4263 39.0389 32.604 38.1983 32.604ZM44.3095 27.157V30.095C44.3095 30.8663 44.6692 31.252 45.3885 31.252C45.5878 31.252 45.8045 31.2173 46.0385 31.148V32.435C45.7525 32.539 45.4058 32.591 44.9985 32.591C44.2532 32.591 43.6812 32.383 43.2825 31.967C42.8838 31.551 42.6845 30.953 42.6845 30.173V27.157H41.4235V25.935H42.6845V24.336L44.3095 23.79V25.935H46.0515V27.157H44.3095ZM16.8645 45.604C16.1798 45.604 15.5862 45.4653 15.0835 45.188C14.5808 44.9107 14.1952 44.5207 13.9265 44.018C13.6578 43.5067 13.5235 42.9087 13.5235 42.224C13.5235 41.5393 13.6622 40.937 13.9395 40.417C14.2255 39.897 14.6242 39.494 15.1355 39.208C15.6555 38.9133 16.2535 38.766 16.9295 38.766C17.3975 38.766 17.8482 38.8397 18.2815 38.987C18.7235 39.1343 19.0745 39.338 19.3345 39.598L18.8795 40.742C18.6022 40.5167 18.3075 40.3477 17.9955 40.235C17.6835 40.1137 17.3758 40.053 17.0725 40.053C16.4832 40.053 16.0238 40.2393 15.6945 40.612C15.3652 40.976 15.2005 41.5047 15.2005 42.198C15.2005 42.8913 15.3608 43.42 15.6815 43.784C16.0108 44.148 16.4745 44.33 17.0725 44.33C17.3758 44.33 17.6835 44.2693 17.9955 44.148C18.3075 44.0267 18.6022 43.8533 18.8795 43.628L19.3345 44.772C19.0572 45.032 18.6975 45.2357 18.2555 45.383C17.8135 45.5303 17.3498 45.604 16.8645 45.604ZM24.1826 38.766C25.7513 38.766 26.5356 39.6673 26.5356 41.47V45.5H24.9106V41.548C24.9106 41.028 24.8109 40.651 24.6116 40.417C24.4123 40.1743 24.1046 40.053 23.6886 40.053C23.1946 40.053 22.7959 40.2133 22.4926 40.534C22.1893 40.846 22.0376 41.262 22.0376 41.782V45.5H20.4256V35.932H22.0376V39.884C22.2629 39.5287 22.5619 39.2557 22.9346 39.065C23.3073 38.8657 23.7233 38.766 24.1826 38.766ZM31.2356 45.604C30.5683 45.604 29.9789 45.4653 29.4676 45.188C28.9649 44.9107 28.5749 44.5163 28.2976 44.005C28.0289 43.485 27.8946 42.8783 27.8946 42.185C27.8946 41.4917 28.0289 40.8893 28.2976 40.378C28.5749 39.858 28.9649 39.4593 29.4676 39.182C29.9789 38.9047 30.5683 38.766 31.2356 38.766C31.8943 38.766 32.4749 38.9047 32.9776 39.182C33.4803 39.4593 33.8659 39.858 34.1346 40.378C34.4119 40.8893 34.5506 41.4917 34.5506 42.185C34.5506 42.8783 34.4119 43.485 34.1346 44.005C33.8659 44.5163 33.4803 44.9107 32.9776 45.188C32.4749 45.4653 31.8943 45.604 31.2356 45.604ZM31.2226 44.33C31.7773 44.33 32.1976 44.1523 32.4836 43.797C32.7783 43.433 32.9256 42.8957 32.9256 42.185C32.9256 41.483 32.7783 40.95 32.4836 40.586C32.1889 40.2133 31.7729 40.027 31.2356 40.027C30.6896 40.027 30.2693 40.2133 29.9746 40.586C29.6799 40.95 29.5326 41.483 29.5326 42.185C29.5326 42.8957 29.6756 43.433 29.9616 43.797C30.2563 44.1523 30.6766 44.33 31.2226 44.33ZM35.952 38.935H37.564V45.5H35.952V38.935ZM37.655 35.958V37.557H35.848V35.958H37.655ZM41.7466 45.604C40.5593 45.604 39.6146 45.3267 38.9126 44.772L39.3676 43.628C40.0696 44.148 40.8713 44.408 41.7726 44.408C42.1626 44.408 42.4616 44.343 42.6696 44.213C42.8863 44.083 42.9946 43.901 42.9946 43.667C42.9946 43.4677 42.9209 43.3117 42.7736 43.199C42.6263 43.0777 42.3749 42.9737 42.0196 42.887L40.9276 42.64C39.7316 42.38 39.1336 41.769 39.1336 40.807C39.1336 40.4083 39.2463 40.0573 39.4716 39.754C39.6969 39.442 40.0133 39.1993 40.4206 39.026C40.8279 38.8527 41.3003 38.766 41.8376 38.766C42.3056 38.766 42.7563 38.8397 43.1896 38.987C43.6229 39.1257 44.0043 39.3293 44.3336 39.598L43.8526 40.703C43.1939 40.2177 42.5179 39.975 41.8246 39.975C41.4519 39.975 41.1616 40.0443 40.9536 40.183C40.7456 40.3217 40.6416 40.5123 40.6416 40.755C40.6416 40.9457 40.7023 41.0973 40.8236 41.21C40.9536 41.3227 41.1703 41.418 41.4736 41.496L42.5916 41.743C43.2416 41.8903 43.7139 42.12 44.0086 42.432C44.3119 42.7353 44.4636 43.134 44.4636 43.628C44.4636 44.2347 44.2209 44.7157 43.7356 45.071C43.2503 45.4263 42.5873 45.604 41.7466 45.604ZM51.6003 42.302H47.0763C47.111 43.004 47.2843 43.524 47.5963 43.862C47.917 44.1913 48.3893 44.356 49.0133 44.356C49.7326 44.356 50.4 44.122 51.0153 43.654L51.4833 44.772C51.1713 45.0233 50.7856 45.227 50.3263 45.383C49.8756 45.5303 49.4163 45.604 48.9483 45.604C47.8736 45.604 47.0286 45.3007 46.4133 44.694C45.798 44.0873 45.4903 43.2553 45.4903 42.198C45.4903 41.5307 45.6246 40.937 45.8933 40.417C46.162 39.897 46.539 39.494 47.0243 39.208C47.5096 38.9133 48.06 38.766 48.6753 38.766C49.5766 38.766 50.2873 39.0607 50.8073 39.65C51.336 40.2307 51.6003 41.0323 51.6003 42.055V42.302ZM48.7143 39.936C48.281 39.936 47.9256 40.066 47.6483 40.326C47.3796 40.5773 47.2063 40.9457 47.1283 41.431H50.1833C50.1313 40.937 49.9796 40.5643 49.7283 40.313C49.4856 40.0617 49.1476 39.936 48.7143 39.936Z" fill="white"/>
</svg>
