<svg width="10" height="8" viewBox="0 0 10 8" fill="none" xmlns="http://www.w3.org/2000/svg">
<path d="M9.66415 2.35487L4.56146 7.1818C4.34449 7.38704 4.05608 7.5 3.74928 7.5C3.44247 7.5 3.15406 7.38704 2.93709 7.1818L0.336467 4.72171C0.119501 4.51647 0 4.24364 0 3.95342C0 3.66312 0.119501 3.39029 0.336467 3.18505C0.553349 2.97981 0.841761 2.86677 1.14865 2.86677C1.45545 2.86677 1.74395 2.97981 1.96083 3.18513L3.74919 4.87676L8.03961 0.818204C8.25658 0.612963 8.54499 0.5 8.85179 0.5C9.1586 0.5 9.44701 0.612963 9.66398 0.818204C10.112 1.24199 10.112 1.93124 9.66415 2.35487Z" fill="white" fill-opacity="0.5"/>
</svg>
