<svg width="90" height="99" viewBox="0 0 90 99" fill="none" xmlns="http://www.w3.org/2000/svg">
<line opacity="0.1" x1="0.646447" y1="88.7196" x2="88.7196" y2="0.646449" stroke="white"/>
<g filter="url(#filter0_f_22_7771)">
<circle cx="49.5366" cy="69.9906" r="8.13173" transform="rotate(-45 49.5366 69.9906)" fill="url(#paint0_radial_22_7771)"/>
<circle cx="49.5366" cy="69.9906" r="8.13173" transform="rotate(-45 49.5366 69.9906)" fill="url(#paint1_linear_22_7771)"/>
</g>
<g filter="url(#filter1_f_22_7771)">
<path d="M48.0395 48.9821C50.514 51.4565 53.5236 52.9216 49.9081 56.5371C46.2927 60.1525 38.4956 62.4833 36.0212 60.0088C33.5467 57.5344 33.3973 54.6636 37.0128 51.0481C40.6283 47.4327 45.5651 46.5077 48.0395 48.9821Z" fill="#110945"/>
<path d="M48.0395 48.9821C50.514 51.4565 53.5236 52.9216 49.9081 56.5371C46.2927 60.1525 38.4956 62.4833 36.0212 60.0088C33.5467 57.5344 33.3973 54.6636 37.0128 51.0481C40.6283 47.4327 45.5651 46.5077 48.0395 48.9821Z" fill="#110945"/>
</g>
<circle cx="46.5366" cy="45.3021" r="8.13173" transform="rotate(-45 46.5366 45.3021)" fill="url(#paint2_radial_22_7771)"/>
<circle cx="46.5366" cy="45.3021" r="8.13173" transform="rotate(-45 46.5366 45.3021)" fill="url(#paint3_linear_22_7771)"/>
<defs>
<filter id="filter0_f_22_7771" x="21.4049" y="41.8589" width="56.2634" height="56.2634" filterUnits="userSpaceOnUse" color-interpolation-filters="sRGB">
<feFlood flood-opacity="0" result="BackgroundImageFix"/>
<feBlend mode="normal" in="SourceGraphic" in2="BackgroundImageFix" result="shape"/>
<feGaussianBlur stdDeviation="10" result="effect1_foregroundBlur_22_7771"/>
</filter>
<filter id="filter1_f_22_7771" x="29.2223" y="42.595" width="27.3582" height="23.4402" filterUnits="userSpaceOnUse" color-interpolation-filters="sRGB">
<feFlood flood-opacity="0" result="BackgroundImageFix"/>
<feBlend mode="normal" in="SourceGraphic" in2="BackgroundImageFix" result="shape"/>
<feGaussianBlur stdDeviation="2.5" result="effect1_foregroundBlur_22_7771"/>
</filter>
<radialGradient id="paint0_radial_22_7771" cx="0" cy="0" r="1" gradientUnits="userSpaceOnUse" gradientTransform="translate(48.724 64.4145) rotate(100.67) scale(13.4577)">
<stop offset="0.125" stop-color="#96F5FE"/>
<stop offset="0.416667" stop-color="#5A67D6"/>
<stop offset="0.552083" stop-color="#6624B8"/>
<stop offset="0.697917" stop-color="#422F9E"/>
<stop offset="0.932292" stop-color="#DFA64A"/>
<stop offset="1" stop-color="#96F5FF"/>
</radialGradient>
<linearGradient id="paint1_linear_22_7771" x1="45.9981" y1="77.7886" x2="49.6141" y2="74.1726" gradientUnits="userSpaceOnUse">
<stop stop-color="#2D1F73"/>
<stop offset="1" stop-color="#312182" stop-opacity="0"/>
</linearGradient>
<radialGradient id="paint2_radial_22_7771" cx="0" cy="0" r="1" gradientUnits="userSpaceOnUse" gradientTransform="translate(45.724 39.726) rotate(100.67) scale(13.4577)">
<stop offset="0.125" stop-color="#96F5FE"/>
<stop offset="0.416667" stop-color="#5A67D6"/>
<stop offset="0.552083" stop-color="#6624B8"/>
<stop offset="0.697917" stop-color="#422F9E"/>
<stop offset="0.932292" stop-color="#DFA64A"/>
<stop offset="1" stop-color="#96F5FF"/>
</radialGradient>
<linearGradient id="paint3_linear_22_7771" x1="42.9981" y1="53.1001" x2="46.6141" y2="49.4842" gradientUnits="userSpaceOnUse">
<stop stop-color="#2D1F73"/>
<stop offset="1" stop-color="#312182" stop-opacity="0"/>
</linearGradient>
</defs>
</svg>
