<svg width="90" height="103" viewBox="0 0 90 103" fill="none" xmlns="http://www.w3.org/2000/svg">
<line opacity="0.1" x1="0.646447" y1="88.7196" x2="88.7196" y2="0.646449" stroke="white"/>
<g filter="url(#filter0_f_22_7783)">
<circle cx="46.6693" cy="67.8599" r="15" transform="rotate(-45 46.6693 67.8599)" fill="url(#paint0_radial_22_7783)"/>
<circle cx="46.6693" cy="67.8599" r="15" transform="rotate(-45 46.6693 67.8599)" fill="url(#paint1_linear_22_7783)"/>
</g>
<g filter="url(#filter1_f_22_7783)">
<path d="M47.9283 48.2175C51.9374 52.2266 56.8137 54.6004 50.9558 60.4583C45.0979 66.3161 32.465 70.0924 28.4559 66.0833C24.4467 62.0742 24.2046 57.4228 30.0625 51.5649C35.9204 45.7071 43.9191 44.2084 47.9283 48.2175Z" fill="#110945"/>
<path d="M47.9283 48.2175C51.9374 52.2266 56.8137 54.6004 50.9558 60.4583C45.0979 66.3161 32.465 70.0924 28.4559 66.0833C24.4467 62.0742 24.2046 57.4228 30.0625 51.5649C35.9204 45.7071 43.9191 44.2084 47.9283 48.2175Z" fill="#110945"/>
</g>
<circle cx="43.6693" cy="43.1716" r="15" transform="rotate(-45 43.6693 43.1716)" fill="url(#paint2_radial_22_7783)"/>
<circle cx="43.6693" cy="43.1716" r="15" transform="rotate(-45 43.6693 43.1716)" fill="url(#paint3_linear_22_7783)"/>
<defs>
<filter id="filter0_f_22_7783" x="11.6693" y="32.8599" width="70" height="70" filterUnits="userSpaceOnUse" color-interpolation-filters="sRGB">
<feFlood flood-opacity="0" result="BackgroundImageFix"/>
<feBlend mode="normal" in="SourceGraphic" in2="BackgroundImageFix" result="shape"/>
<feGaussianBlur stdDeviation="10" result="effect1_foregroundBlur_22_7783"/>
</filter>
<filter id="filter1_f_22_7783" x="15.5413" y="35.9701" width="48.124" height="41.7761" filterUnits="userSpaceOnUse" color-interpolation-filters="sRGB">
<feFlood flood-opacity="0" result="BackgroundImageFix"/>
<feBlend mode="normal" in="SourceGraphic" in2="BackgroundImageFix" result="shape"/>
<feGaussianBlur stdDeviation="5" result="effect1_foregroundBlur_22_7783"/>
</filter>
<radialGradient id="paint0_radial_22_7783" cx="0" cy="0" r="1" gradientUnits="userSpaceOnUse" gradientTransform="translate(45.1703 57.5741) rotate(100.67) scale(24.8244)">
<stop offset="0.125" stop-color="#96F5FE"/>
<stop offset="0.416667" stop-color="#5A67D6"/>
<stop offset="0.552083" stop-color="#6624B8"/>
<stop offset="0.697917" stop-color="#422F9E"/>
<stop offset="0.932292" stop-color="#DFA64A"/>
<stop offset="1" stop-color="#96F5FF"/>
</radialGradient>
<linearGradient id="paint1_linear_22_7783" x1="40.142" y1="82.2442" x2="46.8121" y2="75.5741" gradientUnits="userSpaceOnUse">
<stop stop-color="#2D1F73"/>
<stop offset="1" stop-color="#312182" stop-opacity="0"/>
</linearGradient>
<radialGradient id="paint2_radial_22_7783" cx="0" cy="0" r="1" gradientUnits="userSpaceOnUse" gradientTransform="translate(42.1703 32.8858) rotate(100.67) scale(24.8244)">
<stop offset="0.125" stop-color="#96F5FE"/>
<stop offset="0.416667" stop-color="#5A67D6"/>
<stop offset="0.552083" stop-color="#6624B8"/>
<stop offset="0.697917" stop-color="#422F9E"/>
<stop offset="0.932292" stop-color="#DFA64A"/>
<stop offset="1" stop-color="#96F5FF"/>
</radialGradient>
<linearGradient id="paint3_linear_22_7783" x1="37.142" y1="57.556" x2="43.8121" y2="50.8859" gradientUnits="userSpaceOnUse">
<stop stop-color="#2D1F73"/>
<stop offset="1" stop-color="#312182" stop-opacity="0"/>
</linearGradient>
</defs>
</svg>
