<svg width="90" height="104" viewBox="0 0 90 104" fill="none" xmlns="http://www.w3.org/2000/svg">
<line opacity="0.1" x1="0.646447" y1="88.7196" x2="88.7196" y2="0.646449" stroke="white"/>
<g opacity="0.6" filter="url(#filter0_f_22_7789)">
<circle cx="48.6444" cy="68.2861" r="15" transform="rotate(-45 48.6444 68.2861)" fill="url(#paint0_radial_22_7789)"/>
<circle cx="48.6444" cy="68.2861" r="15" transform="rotate(-45 48.6444 68.2861)" fill="url(#paint1_radial_22_7789)"/>
<circle cx="48.6444" cy="68.2861" r="15" transform="rotate(-45 48.6444 68.2861)" fill="url(#paint2_radial_22_7789)"/>
<circle cx="48.6444" cy="68.2861" r="15" transform="rotate(-45 48.6444 68.2861)" fill="url(#paint3_linear_22_7789)" fill-opacity="0.4"/>
</g>
<g filter="url(#filter1_f_22_7789)">
<path d="M52.3594 47.7387C56.3685 51.7479 61.2448 54.1216 55.387 59.9795C49.5291 65.8374 36.8961 69.6137 32.887 65.6045C28.8779 61.5954 28.6358 56.944 34.4937 51.0862C40.3515 45.2283 48.3503 43.7296 52.3594 47.7387Z" fill="#110945"/>
<path d="M52.3594 47.7387C56.3685 51.7479 61.2448 54.1216 55.387 59.9795C49.5291 65.8374 36.8961 69.6137 32.887 65.6045C28.8779 61.5954 28.6358 56.944 34.4937 51.0862C40.3515 45.2283 48.3503 43.7296 52.3594 47.7387Z" fill="#110945"/>
</g>
<circle cx="45.6444" cy="43.5979" r="15" transform="rotate(-45 45.6444 43.5979)" fill="url(#paint4_radial_22_7789)"/>
<circle cx="45.6444" cy="43.5979" r="15" transform="rotate(-45 45.6444 43.5979)" fill="url(#paint5_radial_22_7789)"/>
<circle cx="45.6444" cy="43.5979" r="15" transform="rotate(-45 45.6444 43.5979)" fill="url(#paint6_radial_22_7789)"/>
<circle cx="45.6444" cy="43.5979" r="15" transform="rotate(-45 45.6444 43.5979)" fill="url(#paint7_radial_22_7789)"/>
<defs>
<filter id="filter0_f_22_7789" x="13.6444" y="33.2861" width="70" height="70" filterUnits="userSpaceOnUse" color-interpolation-filters="sRGB">
<feFlood flood-opacity="0" result="BackgroundImageFix"/>
<feBlend mode="normal" in="SourceGraphic" in2="BackgroundImageFix" result="shape"/>
<feGaussianBlur stdDeviation="10" result="effect1_foregroundBlur_22_7789"/>
</filter>
<filter id="filter1_f_22_7789" x="19.9724" y="35.4913" width="48.124" height="41.7761" filterUnits="userSpaceOnUse" color-interpolation-filters="sRGB">
<feFlood flood-opacity="0" result="BackgroundImageFix"/>
<feBlend mode="normal" in="SourceGraphic" in2="BackgroundImageFix" result="shape"/>
<feGaussianBlur stdDeviation="5" result="effect1_foregroundBlur_22_7789"/>
</filter>
<radialGradient id="paint0_radial_22_7789" cx="0" cy="0" r="1" gradientUnits="userSpaceOnUse" gradientTransform="translate(41.6444 61.7861) rotate(71.9657) scale(22.6108 21.0801)">
<stop offset="0.0572917" stop-color="white"/>
<stop offset="0.578125" stop-color="#CDE0FC"/>
<stop offset="0.854167" stop-color="#639EF5"/>
<stop offset="1" stop-color="#AC94F0"/>
</radialGradient>
<radialGradient id="paint1_radial_22_7789" cx="0" cy="0" r="1" gradientUnits="userSpaceOnUse" gradientTransform="translate(40.6444 61.7861) rotate(33.3407) scale(22.7431 21.2034)">
<stop offset="0.0572917" stop-color="#F4C86F"/>
<stop offset="0.433972" stop-color="#E7AD51"/>
<stop offset="0.60894" stop-color="#C18B32"/>
<stop offset="1" stop-color="#D37EE8"/>
</radialGradient>
<radialGradient id="paint2_radial_22_7789" cx="0" cy="0" r="1" gradientUnits="userSpaceOnUse" gradientTransform="translate(41.3435 57.7994) rotate(52.125) scale(27.2431 25.3987)">
<stop stop-color="#F9DCA3"/>
<stop offset="0.3125" stop-color="#F4C86F"/>
<stop offset="0.494792" stop-color="#E7AD51"/>
<stop offset="0.74188" stop-color="#C18B32"/>
<stop offset="1" stop-color="#D37EE8"/>
</radialGradient>
<linearGradient id="paint3_linear_22_7789" x1="41.6444" y1="83.2861" x2="41.6444" y2="72.2861" gradientUnits="userSpaceOnUse">
<stop/>
<stop offset="1" stop-opacity="0"/>
</linearGradient>
<radialGradient id="paint4_radial_22_7789" cx="0" cy="0" r="1" gradientUnits="userSpaceOnUse" gradientTransform="translate(38.6444 37.0979) rotate(71.9657) scale(22.6108 21.0801)">
<stop offset="0.0572917" stop-color="white"/>
<stop offset="0.578125" stop-color="#CDE0FC"/>
<stop offset="0.854167" stop-color="#639EF5"/>
<stop offset="1" stop-color="#AC94F0"/>
</radialGradient>
<radialGradient id="paint5_radial_22_7789" cx="0" cy="0" r="1" gradientUnits="userSpaceOnUse" gradientTransform="translate(37.6444 37.0979) rotate(33.3407) scale(22.7431 21.2034)">
<stop offset="0.0572917" stop-color="#F4C86F"/>
<stop offset="0.433972" stop-color="#E7AD51"/>
<stop offset="0.60894" stop-color="#C18B32"/>
<stop offset="1" stop-color="#D37EE8"/>
</radialGradient>
<radialGradient id="paint6_radial_22_7789" cx="0" cy="0" r="1" gradientUnits="userSpaceOnUse" gradientTransform="translate(38.3435 33.1112) rotate(52.125) scale(27.2431 25.3987)">
<stop stop-color="#F9DCA3"/>
<stop offset="0.3125" stop-color="#F4C86F"/>
<stop offset="0.494792" stop-color="#E7AD51"/>
<stop offset="0.74188" stop-color="#C18B32"/>
<stop offset="1" stop-color="#D37EE8"/>
</radialGradient>
<radialGradient id="paint7_radial_22_7789" cx="0" cy="0" r="1" gradientUnits="userSpaceOnUse" gradientTransform="translate(35.2585 50.1467) rotate(-45) scale(9 18.8032)">
<stop stop-color="#38218C"/>
<stop offset="1" stop-color="#3C1DB0" stop-opacity="0"/>
</radialGradient>
</defs>
</svg>
