<svg width="88" height="95" viewBox="0 0 88 95" fill="none" xmlns="http://www.w3.org/2000/svg">
<line opacity="0.1" y1="-0.5" x2="124.554" y2="-0.5" transform="matrix(-0.707107 -0.707107 -0.707107 0.707107 88.073 89.0731)" stroke="white"/>
<g filter="url(#filter0_f_22_7759)">
<circle cx="47.0364" cy="63.6467" r="11.3138" transform="rotate(-45 47.0364 63.6467)" fill="url(#paint0_radial_22_7759)"/>
<circle cx="47.0364" cy="63.6467" r="11.3138" transform="rotate(-45 47.0364 63.6467)" fill="url(#paint1_linear_22_7759)"/>
</g>
<g filter="url(#filter1_f_22_7759)">
<path d="M46.9536 42.153C50.1879 45.3873 54.1218 47.3023 49.3961 52.0281C44.6703 56.7538 34.4788 59.8003 31.2445 56.566C28.0102 53.3317 27.8149 49.5793 32.5407 44.8535C37.2664 40.1278 43.7193 38.9187 46.9536 42.153Z" fill="#110945"/>
<path d="M46.9536 42.153C50.1879 45.3873 54.1218 47.3023 49.3961 52.0281C44.6703 56.7538 34.4788 59.8003 31.2445 56.566C28.0102 53.3317 27.8149 49.5793 32.5407 44.8535C37.2664 40.1278 43.7193 38.9187 46.9536 42.153Z" fill="#110945"/>
</g>
<circle cx="44.0364" cy="38.9584" r="11.3138" transform="rotate(-45 44.0364 38.9584)" fill="url(#paint2_radial_22_7759)"/>
<circle cx="44.0364" cy="38.9584" r="11.3138" transform="rotate(-45 44.0364 38.9584)" fill="url(#paint3_linear_22_7759)"/>
<defs>
<filter id="filter0_f_22_7759" x="15.7227" y="32.3329" width="62.6276" height="62.6276" filterUnits="userSpaceOnUse" color-interpolation-filters="sRGB">
<feFlood flood-opacity="0" result="BackgroundImageFix"/>
<feBlend mode="normal" in="SourceGraphic" in2="BackgroundImageFix" result="shape"/>
<feGaussianBlur stdDeviation="10" result="effect1_foregroundBlur_22_7759"/>
</filter>
<filter id="filter1_f_22_7759" x="22.8932" y="34.3399" width="34.6887" height="29.5676" filterUnits="userSpaceOnUse" color-interpolation-filters="sRGB">
<feFlood flood-opacity="0" result="BackgroundImageFix"/>
<feBlend mode="normal" in="SourceGraphic" in2="BackgroundImageFix" result="shape"/>
<feGaussianBlur stdDeviation="3" result="effect1_foregroundBlur_22_7759"/>
</filter>
<radialGradient id="paint0_radial_22_7759" cx="0" cy="0" r="1" gradientUnits="userSpaceOnUse" gradientTransform="translate(45.9059 55.8886) rotate(100.67) scale(18.7238)">
<stop offset="0.125" stop-color="#96F5FE"/>
<stop offset="0.416667" stop-color="#5A67D6"/>
<stop offset="0.552083" stop-color="#6624B8"/>
<stop offset="0.697917" stop-color="#422F9E"/>
<stop offset="0.932292" stop-color="#DFA64A"/>
<stop offset="1" stop-color="#96F5FF"/>
</radialGradient>
<linearGradient id="paint1_linear_22_7759" x1="42.1133" y1="74.4961" x2="47.1442" y2="69.4652" gradientUnits="userSpaceOnUse">
<stop stop-color="#2D1F73"/>
<stop offset="1" stop-color="#312182" stop-opacity="0"/>
</linearGradient>
<radialGradient id="paint2_radial_22_7759" cx="0" cy="0" r="1" gradientUnits="userSpaceOnUse" gradientTransform="translate(42.9059 31.2004) rotate(100.67) scale(18.7238)">
<stop offset="0.125" stop-color="#96F5FE"/>
<stop offset="0.416667" stop-color="#5A67D6"/>
<stop offset="0.552083" stop-color="#6624B8"/>
<stop offset="0.697917" stop-color="#422F9E"/>
<stop offset="0.932292" stop-color="#DFA64A"/>
<stop offset="1" stop-color="#96F5FF"/>
</radialGradient>
<linearGradient id="paint3_linear_22_7759" x1="39.1133" y1="49.8079" x2="44.1442" y2="44.7769" gradientUnits="userSpaceOnUse">
<stop stop-color="#2D1F73"/>
<stop offset="1" stop-color="#312182" stop-opacity="0"/>
</linearGradient>
</defs>
</svg>
