<svg width="320" height="244" viewBox="0 0 320 244" fill="none" xmlns="http://www.w3.org/2000/svg">
<g filter="url(#filter0_f_34_12990)">
<path d="M168.187 179.573L131.912 158.361C127.738 155.926 120.943 155.926 116.77 158.361L80.7093 179.573C76.536 182.008 76.5895 186.012 80.7628 188.447L117.038 209.658C121.211 212.093 128.006 212.093 132.179 209.658L168.24 188.447C172.413 186.012 172.36 182.008 168.187 179.573Z" fill="#110945"/>
</g>
<path d="M144.791 168.868C143.191 167.831 141.738 167.324 140.354 167.168C140.358 167.081 140.363 166.994 140.367 166.908C141.053 153.202 132.17 136.06 120.633 128.526C111.281 122.493 103.088 124.605 99.8089 132.789C99.1409 132.234 98.3863 131.675 97.6316 131.115C89.9632 126.21 83.3616 129.532 82.9104 138.554C82.4592 147.575 88.3275 158.913 95.9091 163.814C99.6999 166.265 138.957 191.622 143.42 194.541C149.401 198.405 154.576 195.794 154.927 188.768C155.283 181.655 150.768 172.82 144.791 168.868Z" fill="url(#paint0_linear_34_12990)"/>
<path d="M177.421 177.197C177.777 170.083 173.175 161.244 167.194 157.379C165.594 156.342 164.141 155.835 162.757 155.679C162.761 155.592 162.766 155.505 162.77 155.419C163.455 141.713 154.573 124.571 143.036 117.037C136.551 112.8 130.626 113.025 126.41 115.597L119.275 119.153C115.471 116.963 112.002 116.789 109.49 118.316L88.2456 129.255C90.8177 128.253 94.0967 128.765 97.6316 131.115C98.3907 131.588 99.1454 132.148 99.809 132.79C103.088 124.605 111.281 122.493 120.633 128.526C132.261 135.978 141.053 153.202 140.367 166.908C140.363 166.995 140.359 167.081 140.354 167.168C141.738 167.324 143.273 167.923 144.791 168.868C150.773 172.733 155.374 181.573 155.019 188.686C154.867 191.722 153.891 193.847 152.264 195.07L173.413 184.301C175.721 183.373 177.235 180.927 177.421 177.197Z" fill="url(#paint1_linear_34_12990)"/>
<g filter="url(#filter1_f_34_12990)">
<path d="M283.868 111.339L247.593 90.1273C243.42 87.6923 236.625 87.6923 232.452 90.1273L196.391 111.339C192.217 113.774 192.271 117.778 196.444 120.213L232.719 141.424C236.892 143.859 243.687 143.859 247.86 141.424L283.921 120.213C288.095 117.778 288.041 113.774 283.868 111.339Z" fill="#110945"/>
</g>
<g clip-path="url(#clip0_34_12990)">
<path d="M260.183 67.6552L258.555 26.9052L254.918 24.8107V24.8117C253.987 24.2079 252.745 24.0909 251.646 24.7249L205 51.6561C202.589 53.0481 201.104 55.6206 201.104 58.4046V97.8869C201.104 100.364 202.425 102.653 204.569 103.892L230.988 119.02C234.693 121.159 239.256 121.159 242.961 119.02L286.28 94.0097C287.608 93.2431 288.266 91.8972 288.257 90.5556L288.258 90.5551V86.0873L260.183 67.6552Z" fill="url(#paint2_linear_34_12990)"/>
<path d="M260.183 67.6552L258.555 26.9052L254.918 24.8107V24.8117C253.987 24.2079 252.745 24.0909 251.646 24.7249L205 51.6561C202.589 53.0481 201.104 55.6206 201.104 58.4046V97.8869C201.104 100.364 202.425 102.653 204.569 103.892L230.988 119.02C234.693 121.159 239.256 121.159 242.961 119.02L286.28 94.0097C287.608 93.2431 288.266 91.8972 288.257 90.5556L288.258 90.5551V86.0873L260.183 67.6552Z" fill="url(#paint3_linear_34_12990)"/>
<path d="M260.183 67.6552L258.555 26.9052L254.918 24.8107V24.8117C253.987 24.2079 252.745 24.0909 251.646 24.7249L205 51.6561C202.589 53.0481 201.104 55.6206 201.104 58.4046V97.8869C201.104 100.364 202.425 102.653 204.569 103.892L230.988 119.02C234.693 121.159 239.256 121.159 242.961 119.02L286.28 94.0097C287.608 93.2431 288.266 91.8972 288.257 90.5556L288.258 90.5551V86.0873L260.183 67.6552Z" fill="url(#paint4_linear_34_12990)"/>
<path d="M230.989 119.02C234.693 121.159 239.257 121.159 242.961 119.02L286.281 94.0096C287.609 93.2429 288.266 91.897 288.257 90.5555L288.259 90.5549V86.0872L230.989 114.49V119.02Z" fill="url(#paint5_linear_34_12990)"/>
<path d="M230.989 119.02C234.693 121.159 239.257 121.159 242.961 119.02L286.281 94.0096C287.609 93.2429 288.266 91.897 288.257 90.5555L288.259 90.5549V86.0872L230.989 114.49V119.02Z" fill="url(#paint6_linear_34_12990)"/>
<path d="M204.944 91.8735V99.5476L230.988 114.49C234.693 116.629 239.257 116.629 242.961 114.49L286.28 89.4799C288.918 87.9574 288.918 84.1508 286.28 82.6282L260.183 67.655V59.981L204.944 91.8735Z" fill="url(#paint7_linear_34_12990)"/>
<path d="M204.944 91.8735V99.5476L230.988 114.49C234.693 116.629 239.257 116.629 242.961 114.49L286.28 89.4799C288.918 87.9574 288.918 84.1508 286.28 82.6282L260.183 67.655V59.981L204.944 91.8735Z" fill="url(#paint8_radial_34_12990)"/>
<path d="M204.944 99.5477L260.183 67.6551V29.6522C260.183 27.2416 257.574 25.7351 255.486 26.9403L208.84 53.8714C206.429 55.2634 204.944 57.8359 204.944 60.6199L204.944 99.5477Z" fill="url(#paint9_linear_34_12990)"/>
<path d="M204.944 99.5477L260.183 67.6551V29.6522C260.183 27.2416 257.574 25.7351 255.486 26.9403L208.84 53.8714C206.429 55.2634 204.944 57.8359 204.944 60.6199L204.944 99.5477Z" fill="url(#paint10_linear_34_12990)"/>
<path d="M207.516 94.2466L257.611 65.3245V31.8328L207.516 60.7549V94.2466Z" fill="url(#paint11_linear_34_12990)"/>
<path d="M207.516 94.2466L257.611 65.3245V31.8328L207.516 60.7549V94.2466Z" fill="#110945" fill-opacity="0.4"/>
<path opacity="0.6" d="M259.983 70.2148L276.797 79.7856L226.702 108.708L209.889 99.137L259.983 70.2148Z" fill="#110945"/>
<path opacity="0.6" d="M260.881 92.3657L268.625 96.8346L256.843 103.637L249.099 99.168L260.881 92.3657Z" fill="#110945"/>
</g>
<g filter="url(#filter2_f_34_12990)">
<path d="M119.208 60.5451L84.6839 40.3319C80.7122 38.0115 74.2453 38.0115 70.2736 40.3319L35.9535 60.5451C31.9817 62.8655 32.0326 66.6813 36.0044 69.0016L70.5282 89.2149C74.4999 91.5353 80.9668 91.5353 84.9385 89.2149L119.259 69.0016C123.23 66.6813 123.179 62.8655 119.208 60.5451Z" fill="#110945"/>
</g>
<path d="M109.202 45.885L83.1595 32.7194C80.4033 31.1293 75.9158 31.1293 73.1596 32.7194L50.1564 43.6733L47.2942 45.2564C47.2942 47.4285 47.2247 47.2594 47.2222 49.0908C47.2171 52.9497 47.5099 55.8481 49.379 56.9264L73.3363 70.7778C76.0924 72.3679 80.58 72.3679 83.3362 70.7778L107.152 56.9264C108.962 55.882 109.279 53.4656 109.283 49.7975C109.285 47.8809 109.202 48.4679 109.202 45.885Z" fill="url(#paint12_linear_34_12990)"/>
<path d="M109.202 45.885L83.1595 32.7194C80.4033 31.1293 75.9158 31.1293 73.1596 32.7194L50.1564 43.6733L47.2942 45.2564C47.2942 47.4285 47.2247 47.2594 47.2222 49.0908C47.2171 52.9497 47.5099 55.8481 49.379 56.9264L73.3363 70.7778C76.0924 72.3679 80.58 72.3679 83.3362 70.7778L107.152 56.9264C108.962 55.882 109.279 53.4656 109.283 49.7975C109.285 47.8809 109.202 48.4679 109.202 45.885Z" fill="url(#paint13_linear_34_12990)"/>
<path d="M107.117 42.2818L83.1598 28.4304C80.4036 26.8403 75.9161 26.8403 73.1599 28.4304L49.344 42.2818C46.5878 43.8719 46.6231 46.4867 49.3793 48.0768L73.3366 61.9282C76.0927 63.5183 80.5803 63.5183 83.3365 61.9282L107.152 48.0768C109.909 46.4867 109.873 43.8719 107.117 42.2818Z" fill="url(#paint14_radial_34_12990)"/>
<path d="M107.117 42.2818L83.1598 28.4304C80.4036 26.8403 75.9161 26.8403 73.1599 28.4304L49.344 42.2818C46.5878 43.8719 46.6231 46.4867 49.3793 48.0768L73.3366 61.9282C76.0927 63.5183 80.5803 63.5183 83.3365 61.9282L107.152 48.0768C109.909 46.4867 109.873 43.8719 107.117 42.2818Z" fill="#110945" fill-opacity="0.8"/>
<path d="M107.117 42.2818L83.1598 28.4304C80.4036 26.8403 75.9161 26.8403 73.1599 28.4304L49.344 42.2818C46.5878 43.8719 46.6231 46.4867 49.3793 48.0768L73.3366 61.9282C76.0927 63.5183 80.5803 63.5183 83.3365 61.9282L107.152 48.0768C109.909 46.4867 109.873 43.8719 107.117 42.2818Z" fill="url(#paint15_linear_34_12990)"/>
<path d="M109.202 32.0568L83.1595 18.8913C80.4033 17.3012 75.9158 17.3012 73.1596 18.8913L50.1564 29.8452L47.2942 31.4283C47.2942 33.6004 47.2247 33.4313 47.2222 35.2626C47.2171 39.1215 47.5099 42.0199 49.379 43.0983L73.3363 56.9497C76.0924 58.5398 80.58 58.5398 83.3362 56.9497L107.152 43.0983C108.962 42.0539 109.279 39.6375 109.283 35.9693C109.285 34.0528 109.202 34.6397 109.202 32.0568Z" fill="url(#paint16_linear_34_12990)"/>
<path d="M109.202 32.0568L83.1595 18.8913C80.4033 17.3012 75.9158 17.3012 73.1596 18.8913L50.1564 29.8452L47.2942 31.4283C47.2942 33.6004 47.2247 33.4313 47.2222 35.2626C47.2171 39.1215 47.5099 42.0199 49.379 43.0983L73.3363 56.9497C76.0924 58.5398 80.58 58.5398 83.3362 56.9497L107.152 43.0983C108.962 42.0539 109.279 39.6375 109.283 35.9693C109.285 34.0528 109.202 34.6397 109.202 32.0568Z" fill="url(#paint17_linear_34_12990)"/>
<path d="M107.117 28.4534L83.1598 14.602C80.4036 13.0119 75.9161 13.0119 73.1599 14.602L49.344 28.4534C46.5878 30.0435 46.6231 32.6583 49.3793 34.2484L73.3366 48.0998C76.0927 49.6899 80.5803 49.6899 83.3365 48.0998L107.152 34.2484C109.909 32.6583 109.873 30.0435 107.117 28.4534Z" fill="url(#paint18_radial_34_12990)"/>
<path d="M107.117 28.4534L83.1598 14.602C80.4036 13.0119 75.9161 13.0119 73.1599 14.602L49.344 28.4534C46.5878 30.0435 46.6231 32.6583 49.3793 34.2484L73.3366 48.0998C76.0927 49.6899 80.5803 49.6899 83.3365 48.0998L107.152 34.2484C109.909 32.6583 109.873 30.0435 107.117 28.4534Z" fill="#110945" fill-opacity="0.8"/>
<path d="M107.117 28.4534L83.1598 14.602C80.4036 13.0119 75.9161 13.0119 73.1599 14.602L49.344 28.4534C46.5878 30.0435 46.6231 32.6583 49.3793 34.2484L73.3366 48.0998C76.0927 49.6899 80.5803 49.6899 83.3365 48.0998L107.152 34.2484C109.909 32.6583 109.873 30.0435 107.117 28.4534Z" fill="url(#paint19_linear_34_12990)"/>
<path d="M109.202 18.6472L83.1595 5.48163C80.4033 3.89154 75.9158 3.89154 73.1596 5.48163L50.1564 16.4356L47.2942 18.0186C47.2942 20.1907 47.2247 20.0216 47.2222 21.853C47.2171 25.7119 47.5099 28.6103 49.379 29.6886L73.3363 43.54C76.0924 45.1301 80.58 45.1301 83.3362 43.54L107.152 29.6886C108.962 28.6442 109.279 26.2279 109.283 22.5597C109.285 20.6431 109.202 21.2301 109.202 18.6472Z" fill="url(#paint20_linear_34_12990)"/>
<path d="M109.202 18.6472L83.1595 5.48163C80.4033 3.89154 75.9158 3.89154 73.1596 5.48163L50.1564 16.4356L47.2942 18.0186C47.2942 20.1907 47.2247 20.0216 47.2222 21.853C47.2171 25.7119 47.5099 28.6103 49.379 29.6886L73.3363 43.54C76.0924 45.1301 80.58 45.1301 83.3362 43.54L107.152 29.6886C108.962 28.6442 109.279 26.2279 109.283 22.5597C109.285 20.6431 109.202 21.2301 109.202 18.6472Z" fill="url(#paint21_linear_34_12990)"/>
<path d="M107.117 15.044L83.1598 1.19256C80.4036 -0.397522 75.9161 -0.397522 73.1599 1.19256L49.344 15.044C46.5878 16.6341 46.6231 19.2489 49.3793 20.839L73.3366 34.6904C76.0927 36.2805 80.5803 36.2805 83.3365 34.6904L107.152 20.839C109.909 19.2489 109.873 16.6341 107.117 15.044Z" fill="url(#paint22_radial_34_12990)"/>
<g opacity="0.6" filter="url(#filter3_f_34_12990)">
<circle cx="154.406" cy="101.175" r="10.3246" transform="rotate(-45 154.406 101.175)" fill="url(#paint23_radial_34_12990)"/>
<circle cx="154.406" cy="101.175" r="10.3246" transform="rotate(-45 154.406 101.175)" fill="url(#paint24_radial_34_12990)"/>
<circle cx="154.406" cy="101.175" r="10.3246" transform="rotate(-45 154.406 101.175)" fill="url(#paint25_radial_34_12990)"/>
<circle cx="154.406" cy="101.175" r="10.3246" transform="rotate(-45 154.406 101.175)" fill="url(#paint26_linear_34_12990)" fill-opacity="0.4"/>
</g>
<g filter="url(#filter4_f_34_12990)">
<path d="M156.964 87.0314C159.723 89.791 163.08 91.4248 159.047 95.4569C155.015 99.4889 146.32 102.088 143.561 99.3286C140.801 96.5691 140.634 93.3675 144.666 89.3355C148.698 85.3035 154.204 84.2719 156.964 87.0314Z" fill="#110945"/>
<path d="M156.964 87.0314C159.723 89.791 163.08 91.4248 159.047 95.4569C155.015 99.4889 146.32 102.088 143.561 99.3286C140.801 96.5691 140.634 93.3675 144.666 89.3355C148.698 85.3035 154.204 84.2719 156.964 87.0314Z" fill="#110945"/>
</g>
<rect opacity="0.5" x="141.953" y="6.93213" width="20.6493" height="77.0906" fill="url(#paint27_linear_34_12990)"/>
<circle cx="152.341" cy="84.1814" r="10.3246" transform="rotate(-45 152.341 84.1814)" fill="url(#paint28_radial_34_12990)"/>
<circle cx="152.341" cy="84.1814" r="10.3246" transform="rotate(-45 152.341 84.1814)" fill="url(#paint29_radial_34_12990)"/>
<g filter="url(#filter5_f_34_12990)">
<circle cx="186.508" cy="72.2874" r="8.13173" transform="rotate(-45 186.508 72.2874)" fill="url(#paint30_radial_34_12990)"/>
<circle cx="186.508" cy="72.2874" r="8.13173" transform="rotate(-45 186.508 72.2874)" fill="url(#paint31_linear_34_12990)"/>
</g>
<g filter="url(#filter6_f_34_12990)">
<path d="M186.86 52.2201C188.009 54.2271 189.756 55.6368 186.445 57.533C183.134 59.4293 177.228 59.8684 176.078 57.8615C174.929 55.8545 175.473 53.916 178.784 52.0197C182.095 50.1234 185.71 50.2132 186.86 52.2201Z" fill="#110945"/>
<path d="M186.86 52.2201C188.009 54.2271 189.756 55.6368 186.445 57.533C183.134 59.4293 177.228 59.8684 176.078 57.8615C174.929 55.8545 175.473 53.916 178.784 52.0197C182.095 50.1234 185.71 50.2132 186.86 52.2201Z" fill="#110945"/>
</g>
<circle cx="183.508" cy="47.5991" r="8.13173" transform="rotate(-45 183.508 47.5991)" fill="url(#paint32_radial_34_12990)"/>
<circle cx="183.508" cy="47.5991" r="8.13173" transform="rotate(-45 183.508 47.5991)" fill="url(#paint33_linear_34_12990)"/>
<defs>
<filter id="filter0_f_34_12990" x="45.2827" y="124.212" width="158.384" height="119.596" filterUnits="userSpaceOnUse" color-interpolation-filters="sRGB">
<feFlood flood-opacity="0" result="BackgroundImageFix"/>
<feBlend mode="normal" in="SourceGraphic" in2="BackgroundImageFix" result="shape"/>
<feGaussianBlur stdDeviation="16.1616" result="effect1_foregroundBlur_34_12990"/>
</filter>
<filter id="filter1_f_34_12990" x="160.964" y="55.9778" width="158.384" height="119.596" filterUnits="userSpaceOnUse" color-interpolation-filters="sRGB">
<feFlood flood-opacity="0" result="BackgroundImageFix"/>
<feBlend mode="normal" in="SourceGraphic" in2="BackgroundImageFix" result="shape"/>
<feGaussianBlur stdDeviation="16.1616" result="effect1_foregroundBlur_34_12990"/>
</filter>
<filter id="filter2_f_34_12990" x="0.676769" y="6.26832" width="153.859" height="117.01" filterUnits="userSpaceOnUse" color-interpolation-filters="sRGB">
<feFlood flood-opacity="0" result="BackgroundImageFix"/>
<feBlend mode="normal" in="SourceGraphic" in2="BackgroundImageFix" result="shape"/>
<feGaussianBlur stdDeviation="16.1616" result="effect1_foregroundBlur_34_12990"/>
</filter>
<filter id="filter3_f_34_12990" x="130.316" y="77.0837" width="48.1815" height="48.1818" filterUnits="userSpaceOnUse" color-interpolation-filters="sRGB">
<feFlood flood-opacity="0" result="BackgroundImageFix"/>
<feBlend mode="normal" in="SourceGraphic" in2="BackgroundImageFix" result="shape"/>
<feGaussianBlur stdDeviation="6.88309" result="effect1_foregroundBlur_34_12990"/>
</filter>
<filter id="filter4_f_34_12990" x="134.671" y="78.6015" width="33.1241" height="28.7547" filterUnits="userSpaceOnUse" color-interpolation-filters="sRGB">
<feFlood flood-opacity="0" result="BackgroundImageFix"/>
<feBlend mode="normal" in="SourceGraphic" in2="BackgroundImageFix" result="shape"/>
<feGaussianBlur stdDeviation="3.44154" result="effect1_foregroundBlur_34_12990"/>
</filter>
<filter id="filter5_f_34_12990" x="158.376" y="44.1555" width="56.2637" height="56.2637" filterUnits="userSpaceOnUse" color-interpolation-filters="sRGB">
<feFlood flood-opacity="0" result="BackgroundImageFix"/>
<feBlend mode="normal" in="SourceGraphic" in2="BackgroundImageFix" result="shape"/>
<feGaussianBlur stdDeviation="10" result="effect1_foregroundBlur_34_12990"/>
</filter>
<filter id="filter6_f_34_12990" x="170.529" y="45.6541" width="22.8311" height="18.521" filterUnits="userSpaceOnUse" color-interpolation-filters="sRGB">
<feFlood flood-opacity="0" result="BackgroundImageFix"/>
<feBlend mode="normal" in="SourceGraphic" in2="BackgroundImageFix" result="shape"/>
<feGaussianBlur stdDeviation="2.5" result="effect1_foregroundBlur_34_12990"/>
</filter>
<linearGradient id="paint0_linear_34_12990" x1="154.164" y1="144.706" x2="61.5314" y2="192.595" gradientUnits="userSpaceOnUse">
<stop stop-color="#36208D"/>
<stop offset="0.9798" stop-color="#7C1DC9"/>
</linearGradient>
<linearGradient id="paint1_linear_34_12990" x1="114.282" y1="115.598" x2="155.678" y2="192.683" gradientUnits="userSpaceOnUse">
<stop stop-color="#432F9E"/>
<stop offset="0.0185317" stop-color="#1CB6D7"/>
<stop offset="0.0376872" stop-color="#5BA9EC"/>
<stop offset="0.0644663" stop-color="#5D5DD2"/>
<stop offset="0.106433" stop-color="#6DC4E7"/>
<stop offset="0.141839" stop-color="#A9D2F5"/>
<stop offset="0.229609" stop-color="#93FAFF"/>
<stop offset="0.3723" stop-color="#4E96E7"/>
<stop offset="0.535774" stop-color="#6B22BC"/>
<stop offset="0.6616" stop-color="#3E309A"/>
<stop offset="0.6818" stop-color="#E9B350"/>
<stop offset="0.8333" stop-color="#93FAFF"/>
<stop offset="0.898705" stop-color="#46ABEC"/>
<stop offset="1" stop-color="#7C1DC9"/>
</linearGradient>
<linearGradient id="paint2_linear_34_12990" x1="217.328" y1="121.363" x2="261.51" y2="44.8373" gradientUnits="userSpaceOnUse">
<stop offset="0.0319" stop-color="#43386B"/>
<stop offset="0.2653" stop-color="#4C407A"/>
<stop offset="0.7109" stop-color="#6453A1"/>
<stop offset="1" stop-color="#7662BD"/>
</linearGradient>
<linearGradient id="paint3_linear_34_12990" x1="199.927" y1="115.545" x2="288.199" y2="115.545" gradientUnits="userSpaceOnUse">
<stop stop-color="#432F9E"/>
<stop offset="0.306667" stop-color="#6B22BC"/>
<stop offset="0.486667" stop-color="#3E309A"/>
<stop offset="0.593333" stop-color="#E9B350"/>
<stop offset="0.8333" stop-color="#93FAFF"/>
<stop offset="0.898705" stop-color="#46ABEC"/>
<stop offset="1" stop-color="#7C1DC9"/>
</linearGradient>
<linearGradient id="paint4_linear_34_12990" x1="284.788" y1="48.5624" x2="170.891" y2="104.401" gradientUnits="userSpaceOnUse">
<stop stop-color="#36208D"/>
<stop offset="0.9798" stop-color="#7C1DC9"/>
</linearGradient>
<linearGradient id="paint5_linear_34_12990" x1="230.554" y1="103.356" x2="266.704" y2="103.356" gradientUnits="userSpaceOnUse">
<stop offset="0.0319" stop-color="#43386B"/>
<stop offset="0.2653" stop-color="#4C407A"/>
<stop offset="0.7109" stop-color="#6453A1"/>
<stop offset="1" stop-color="#7662BD"/>
</linearGradient>
<linearGradient id="paint6_linear_34_12990" x1="328.399" y1="70.1998" x2="240.156" y2="119.008" gradientUnits="userSpaceOnUse">
<stop stop-color="#93FAFF"/>
<stop offset="0.169341" stop-color="#432F9E"/>
<stop offset="0.436615" stop-color="#6B22BC"/>
<stop offset="0.593333" stop-color="#E9B350"/>
<stop offset="0.898705" stop-color="#46ABEC"/>
<stop offset="1" stop-color="#7C1DC9"/>
</linearGradient>
<linearGradient id="paint7_linear_34_12990" x1="246.601" y1="131.244" x2="246.601" y2="54.6589" gradientUnits="userSpaceOnUse">
<stop offset="0.0319" stop-color="#43386B"/>
<stop offset="0.1931" stop-color="#4F437A"/>
<stop offset="0.5027" stop-color="#6E60A1"/>
<stop offset="0.9254" stop-color="#A08DDF"/>
<stop offset="1" stop-color="#A996EB"/>
</linearGradient>
<radialGradient id="paint8_radial_34_12990" cx="0" cy="0" r="1" gradientUnits="userSpaceOnUse" gradientTransform="translate(288.31 88.1585) rotate(169.329) scale(84.9323 72.7508)">
<stop stop-color="#E6B657"/>
<stop offset="0.270107" stop-color="#9BECFC"/>
<stop offset="0.49395" stop-color="#4F94E7"/>
<stop offset="0.704932" stop-color="#6346C9"/>
<stop offset="1" stop-color="#2E217D"/>
</radialGradient>
<linearGradient id="paint9_linear_34_12990" x1="236.626" y1="71.213" x2="256.772" y2="106.105" gradientUnits="userSpaceOnUse">
<stop offset="0.0319" stop-color="#43386B"/>
<stop offset="0.1931" stop-color="#4F437A"/>
<stop offset="0.5027" stop-color="#6E60A1"/>
<stop offset="0.9254" stop-color="#A08DDF"/>
<stop offset="1" stop-color="#A996EB"/>
</linearGradient>
<linearGradient id="paint10_linear_34_12990" x1="257.984" y1="44.9109" x2="181.32" y2="76.3302" gradientUnits="userSpaceOnUse">
<stop stop-color="#36208D"/>
<stop offset="0.9798" stop-color="#3F1165"/>
</linearGradient>
<linearGradient id="paint11_linear_34_12990" x1="238.217" y1="56.9473" x2="238.217" y2="138.079" gradientUnits="userSpaceOnUse">
<stop stop-color="#36208D"/>
<stop offset="0.9798" stop-color="#7C1DC9"/>
</linearGradient>
<linearGradient id="paint12_linear_34_12990" x1="47.2235" y1="20.4795" x2="109.414" y2="20.3028" gradientUnits="userSpaceOnUse">
<stop stop-color="#3D85FF"/>
<stop offset="0.130208" stop-color="#25A4FF"/>
<stop offset="0.260417" stop-color="#1D99FF"/>
<stop offset="0.426153" stop-color="#3C86FF"/>
<stop offset="0.503412" stop-color="#DFF4FF"/>
<stop offset="0.679613" stop-color="#94BFFF"/>
<stop offset="0.834327" stop-color="#62A2FF"/>
<stop offset="1" stop-color="#47B1FD"/>
</linearGradient>
<linearGradient id="paint13_linear_34_12990" x1="46.3841" y1="69.8379" x2="109.24" y2="69.8379" gradientUnits="userSpaceOnUse">
<stop stop-color="#432F9E"/>
<stop offset="0.306667" stop-color="#6B22BC"/>
<stop offset="0.486667" stop-color="#3E309A"/>
<stop offset="0.593333" stop-color="#E9B350"/>
<stop offset="0.8333" stop-color="#93FAFF"/>
<stop offset="0.898705" stop-color="#46ABEC"/>
<stop offset="1" stop-color="#7C1DC9"/>
</linearGradient>
<radialGradient id="paint14_radial_34_12990" cx="0" cy="0" r="1" gradientUnits="userSpaceOnUse" gradientTransform="translate(109.241 45.2566) rotate(170.789) scale(62.8283 46.7304)">
<stop stop-color="#E6B657"/>
<stop offset="0.270107" stop-color="#9BECFC"/>
<stop offset="0.49395" stop-color="#4F94E7"/>
<stop offset="0.704932" stop-color="#6346C9"/>
<stop offset="1" stop-color="#2E217D"/>
</radialGradient>
<linearGradient id="paint15_linear_34_12990" x1="106.737" y1="36.2758" x2="53.1852" y2="86.3364" gradientUnits="userSpaceOnUse">
<stop stop-color="#36208D"/>
<stop offset="0.9798" stop-color="#3F1165"/>
</linearGradient>
<linearGradient id="paint16_linear_34_12990" x1="47.2235" y1="6.65133" x2="109.414" y2="6.47465" gradientUnits="userSpaceOnUse">
<stop stop-color="#3D85FF"/>
<stop offset="0.130208" stop-color="#25A4FF"/>
<stop offset="0.260417" stop-color="#1D99FF"/>
<stop offset="0.426153" stop-color="#3C86FF"/>
<stop offset="0.503412" stop-color="#DFF4FF"/>
<stop offset="0.679613" stop-color="#94BFFF"/>
<stop offset="0.834327" stop-color="#62A2FF"/>
<stop offset="1" stop-color="#47B1FD"/>
</linearGradient>
<linearGradient id="paint17_linear_34_12990" x1="46.3841" y1="56.0097" x2="109.24" y2="56.0097" gradientUnits="userSpaceOnUse">
<stop stop-color="#432F9E"/>
<stop offset="0.306667" stop-color="#6B22BC"/>
<stop offset="0.486667" stop-color="#3E309A"/>
<stop offset="0.593333" stop-color="#E9B350"/>
<stop offset="0.8333" stop-color="#93FAFF"/>
<stop offset="0.898705" stop-color="#46ABEC"/>
<stop offset="1" stop-color="#7C1DC9"/>
</linearGradient>
<radialGradient id="paint18_radial_34_12990" cx="0" cy="0" r="1" gradientUnits="userSpaceOnUse" gradientTransform="translate(109.241 31.4282) rotate(170.789) scale(62.8283 46.7304)">
<stop stop-color="#E6B657"/>
<stop offset="0.270107" stop-color="#9BECFC"/>
<stop offset="0.49395" stop-color="#4F94E7"/>
<stop offset="0.704932" stop-color="#6346C9"/>
<stop offset="1" stop-color="#2E217D"/>
</radialGradient>
<linearGradient id="paint19_linear_34_12990" x1="106.737" y1="22.4474" x2="53.1852" y2="72.508" gradientUnits="userSpaceOnUse">
<stop stop-color="#36208D"/>
<stop offset="0.9798" stop-color="#3F1165"/>
</linearGradient>
<linearGradient id="paint20_linear_34_12990" x1="47.2235" y1="-6.75834" x2="109.414" y2="-6.93502" gradientUnits="userSpaceOnUse">
<stop stop-color="#3D85FF"/>
<stop offset="0.130208" stop-color="#25A4FF"/>
<stop offset="0.260417" stop-color="#1D99FF"/>
<stop offset="0.426153" stop-color="#3C86FF"/>
<stop offset="0.503412" stop-color="#DFF4FF"/>
<stop offset="0.679613" stop-color="#94BFFF"/>
<stop offset="0.834327" stop-color="#62A2FF"/>
<stop offset="1" stop-color="#47B1FD"/>
</linearGradient>
<linearGradient id="paint21_linear_34_12990" x1="46.3841" y1="42.6001" x2="109.24" y2="42.6001" gradientUnits="userSpaceOnUse">
<stop stop-color="#432F9E"/>
<stop offset="0.306667" stop-color="#6B22BC"/>
<stop offset="0.486667" stop-color="#3E309A"/>
<stop offset="0.593333" stop-color="#E9B350"/>
<stop offset="0.8333" stop-color="#93FAFF"/>
<stop offset="0.898705" stop-color="#46ABEC"/>
<stop offset="1" stop-color="#7C1DC9"/>
</linearGradient>
<radialGradient id="paint22_radial_34_12990" cx="0" cy="0" r="1" gradientUnits="userSpaceOnUse" gradientTransform="translate(109.241 18.0188) rotate(170.789) scale(62.8283 46.7304)">
<stop stop-color="#E6B657"/>
<stop offset="0.270107" stop-color="#9BECFC"/>
<stop offset="0.49395" stop-color="#4F94E7"/>
<stop offset="0.704932" stop-color="#6346C9"/>
<stop offset="1" stop-color="#2E217D"/>
</radialGradient>
<radialGradient id="paint23_radial_34_12990" cx="0" cy="0" r="1" gradientUnits="userSpaceOnUse" gradientTransform="translate(149.588 96.7006) rotate(71.9657) scale(15.5632 14.5096)">
<stop offset="0.0572917" stop-color="white"/>
<stop offset="0.578125" stop-color="#CDE0FC"/>
<stop offset="0.854167" stop-color="#639EF5"/>
<stop offset="1" stop-color="#AC94F0"/>
</radialGradient>
<radialGradient id="paint24_radial_34_12990" cx="0" cy="0" r="1" gradientUnits="userSpaceOnUse" gradientTransform="translate(148.9 96.7006) rotate(33.3407) scale(15.6543 14.5945)">
<stop offset="0.0572917" stop-color="#F4C86F"/>
<stop offset="0.433972" stop-color="#E7AD51"/>
<stop offset="0.60894" stop-color="#C18B32"/>
<stop offset="1" stop-color="#D37EE8"/>
</radialGradient>
<radialGradient id="paint25_radial_34_12990" cx="0" cy="0" r="1" gradientUnits="userSpaceOnUse" gradientTransform="translate(149.381 93.9565) rotate(52.125) scale(18.7517 17.4822)">
<stop stop-color="#F9DCA3"/>
<stop offset="0.3125" stop-color="#F4C86F"/>
<stop offset="0.494792" stop-color="#E7AD51"/>
<stop offset="0.74188" stop-color="#C18B32"/>
<stop offset="1" stop-color="#D37EE8"/>
</radialGradient>
<linearGradient id="paint26_linear_34_12990" x1="149.588" y1="111.499" x2="149.588" y2="103.928" gradientUnits="userSpaceOnUse">
<stop/>
<stop offset="1" stop-opacity="0"/>
</linearGradient>
<linearGradient id="paint27_linear_34_12990" x1="120.615" y1="84.0227" x2="120.615" y2="30.6523" gradientUnits="userSpaceOnUse">
<stop stop-color="#E2A94D"/>
<stop offset="1" stop-color="#E24DC1" stop-opacity="0"/>
</linearGradient>
<radialGradient id="paint28_radial_34_12990" cx="0" cy="0" r="1" gradientUnits="userSpaceOnUse" gradientTransform="translate(147.316 76.9633) rotate(52.125) scale(18.7517 17.4822)">
<stop stop-color="#F9DCA3"/>
<stop offset="0.3125" stop-color="#F4C86F"/>
<stop offset="0.494792" stop-color="#E7AD51"/>
<stop offset="0.74188" stop-color="#C18B32"/>
<stop offset="1" stop-color="#D37EE8"/>
</radialGradient>
<radialGradient id="paint29_radial_34_12990" cx="0" cy="0" r="1" gradientUnits="userSpaceOnUse" gradientTransform="translate(145.193 88.689) rotate(-45) scale(6.19478 12.9424)">
<stop stop-color="#38218C"/>
<stop offset="1" stop-color="#3C1DB0" stop-opacity="0"/>
</radialGradient>
<radialGradient id="paint30_radial_34_12990" cx="0" cy="0" r="1" gradientUnits="userSpaceOnUse" gradientTransform="translate(185.695 66.7113) rotate(100.67) scale(13.4577)">
<stop offset="0.125" stop-color="#96F5FE"/>
<stop offset="0.416667" stop-color="#5A67D6"/>
<stop offset="0.552083" stop-color="#6624B8"/>
<stop offset="0.697917" stop-color="#422F9E"/>
<stop offset="0.932292" stop-color="#DFA64A"/>
<stop offset="1" stop-color="#96F5FF"/>
</radialGradient>
<linearGradient id="paint31_linear_34_12990" x1="182.969" y1="80.0853" x2="186.585" y2="76.4694" gradientUnits="userSpaceOnUse">
<stop stop-color="#2D1F73"/>
<stop offset="1" stop-color="#312182" stop-opacity="0"/>
</linearGradient>
<radialGradient id="paint32_radial_34_12990" cx="0" cy="0" r="1" gradientUnits="userSpaceOnUse" gradientTransform="translate(182.695 42.023) rotate(100.67) scale(13.4577)">
<stop offset="0.125" stop-color="#96F5FE"/>
<stop offset="0.416667" stop-color="#5A67D6"/>
<stop offset="0.552083" stop-color="#6624B8"/>
<stop offset="0.697917" stop-color="#422F9E"/>
<stop offset="0.932292" stop-color="#DFA64A"/>
<stop offset="1" stop-color="#96F5FF"/>
</radialGradient>
<linearGradient id="paint33_linear_34_12990" x1="179.969" y1="55.3971" x2="183.585" y2="51.7812" gradientUnits="userSpaceOnUse">
<stop stop-color="#2D1F73"/>
<stop offset="1" stop-color="#312182" stop-opacity="0"/>
</linearGradient>
<clipPath id="clip0_34_12990">
<rect width="96.3232" height="96.3232" fill="white" transform="translate(196.52 24.301)"/>
</clipPath>
</defs>
</svg>
