<svg width="32" height="33" viewBox="0 0 32 33" fill="none" xmlns="http://www.w3.org/2000/svg">
<path fill-rule="evenodd" clip-rule="evenodd" d="M16 0.300781C7.164 0.300781 0 7.46478 0 16.3008C0 25.1368 7.164 32.3008 16 32.3008C24.836 32.3008 32 25.1368 32 16.3008C32 7.46478 24.836 0.300781 16 0.300781ZM16 1.30078C24.271 1.30078 31 8.02978 31 16.3008C31 24.5718 24.271 31.3008 16 31.3008C7.729 31.3008 1 24.5718 1 16.3008C1 8.02978 7.729 1.30078 16 1.30078ZM10.6667 13.6341H13.3333V11.3781C13.3333 9.35678 14.3973 8.30078 16.7947 8.30078H20V11.6341H18.0773C17.4613 11.6341 17.3333 11.8861 17.3333 12.5234V13.6341H20L19.76 16.3008H17.3333V24.3008H13.3333V16.3008H10.6667V13.6341Z" fill="#1E1E1E"/>
</svg>
