<svg width="32" height="33" viewBox="0 0 32 33" fill="none" xmlns="http://www.w3.org/2000/svg">
<path fill-rule="evenodd" clip-rule="evenodd" d="M16 0.300781C7.164 0.300781 0 7.46478 0 16.3008C0 25.1368 7.164 32.3008 16 32.3008C24.836 32.3008 32 25.1368 32 16.3008C32 7.46478 24.836 0.300781 16 0.300781ZM16 1.30078C24.271 1.30078 31 8.02978 31 16.3008C31 24.5718 24.271 31.3008 16 31.3008C7.729 31.3008 1 24.5718 1 16.3008C1 8.02978 7.729 1.30078 16 1.30078ZM19.2334 9.78983C18.3894 9.75116 18.1361 9.74316 16.0001 9.74316C13.8641 9.74316 13.6107 9.74983 12.7681 9.7885C10.5974 9.88716 9.58674 10.9152 9.48807 13.0685C9.45074 13.9112 9.44141 14.1645 9.44141 16.3005C9.44141 18.4365 9.45074 18.6898 9.48807 19.5325C9.58807 21.6805 10.5947 22.7125 12.7681 22.8125C13.6107 22.8512 13.8641 22.8592 16.0001 22.8592C18.1374 22.8592 18.3894 22.8498 19.2334 22.8125C21.4041 22.7138 22.4134 21.6832 22.5134 19.5325C22.5507 18.6898 22.5587 18.4365 22.5587 16.3005C22.5587 14.1645 22.5507 13.9125 22.5134 13.0685C22.4134 10.9165 21.4027 9.8885 19.2334 9.78983ZM16 8.30078C13.8267 8.30078 13.556 8.31011 12.7013 8.35011C9.79467 8.48345 8.18133 10.0954 8.048 13.0021C8.00933 13.8568 8 14.1288 8 16.3008C8 18.4741 8.00933 18.7461 8.048 19.5994C8.18133 22.5048 9.79467 24.1194 12.7013 24.2528C13.556 24.2914 13.8267 24.3008 16 24.3008C18.1733 24.3008 18.4453 24.2914 19.3 24.2528C22.2013 24.1194 23.8213 22.5074 23.952 19.5994C23.9907 18.7461 24 18.4741 24 16.3008C24 14.1288 23.9907 13.8568 23.952 13.0021C23.8213 10.0994 22.2067 8.48211 19.3 8.35011C18.4453 8.31011 18.1733 8.30078 16 8.30078ZM11.8921 16.3004C11.8921 14.031 13.7321 12.1924 16.0001 12.1924C18.2681 12.1924 20.1081 14.0324 20.1081 16.3004C20.1081 18.5697 18.2681 20.4084 16.0001 20.4084C13.7321 20.4084 11.8921 18.5697 11.8921 16.3004ZM15.9999 18.9671C14.5266 18.9671 13.3333 17.7738 13.3333 16.3005C13.3333 14.8285 14.5266 13.6338 15.9999 13.6338C17.4719 13.6338 18.6679 14.8271 18.6679 16.3005C18.6679 17.7738 17.4719 18.9671 15.9999 18.9671ZM19.3093 12.0314C19.3093 11.5008 19.74 11.0714 20.2693 11.0714C20.8013 11.0714 21.2307 11.5008 21.2307 12.0314C21.2307 12.5621 20.8 12.9914 20.2693 12.9914C19.7387 12.9914 19.3093 12.5608 19.3093 12.0314Z" fill="#1E1E1E"/>
</svg>
