<svg width="42" height="43" viewBox="0 0 42 43" fill="none" xmlns="http://www.w3.org/2000/svg">
<rect y="0.580078" width="42" height="42" rx="21" fill="#B16DFF"/>
<path d="M11.8724 14.7476L14.5349 12.0876C14.8599 11.7626 15.2949 11.5801 15.7549 11.5801C16.2149 11.5801 16.6499 11.7601 16.9749 12.0876L19.8425 14.9501C20.1675 15.2751 20.35 15.7126 20.35 16.1726C20.35 16.6351 20.17 17.0676 19.8425 17.3951L17.6024 19.6376C18.1127 20.8266 18.8459 21.9069 19.7625 22.8201C20.68 23.7426 21.7525 24.4701 22.9425 24.9851L25.1825 22.7426C25.5075 22.4176 25.9425 22.2351 26.4025 22.2351C26.6294 22.2343 26.8542 22.2787 27.0636 22.3659C27.2731 22.453 27.4631 22.5811 27.6225 22.7426L30.4925 25.6052C30.8175 25.9302 31 26.3677 31 26.8277C31 27.2902 30.82 27.7227 30.4925 28.0502L27.8325 30.7102C27.2775 31.2652 26.5125 31.5827 25.7275 31.5827C25.565 31.5827 25.4075 31.5702 25.2475 31.5427C21.9375 30.9977 18.6524 29.2352 15.9999 26.5852C13.3499 23.9301 11.5899 20.6451 11.0399 17.3326C10.8824 16.3926 11.1974 15.4251 11.8724 14.7476ZM12.8124 17.0351C13.2999 19.9826 14.8849 22.9226 17.2724 25.3102C19.66 27.6977 22.5975 29.2827 25.545 29.7702C25.915 29.8327 26.295 29.7077 26.565 29.4402L29.1775 26.8277L26.4075 24.0551L23.4125 27.0552L23.39 27.0777L22.85 26.8777C21.2126 26.2757 19.7258 25.3248 18.4925 24.0911C17.2591 22.8573 16.3088 21.3702 15.7074 19.7326L15.5074 19.1926L18.5274 16.1751L15.7574 13.4026L13.1449 16.0151C12.8749 16.2851 12.7499 16.6651 12.8124 17.0351Z" fill="white"/>
</svg>
