<svg width="269" height="310" viewBox="0 0 269 310" fill="none" xmlns="http://www.w3.org/2000/svg">
<g filter="url(#filter0_f_34_12920)">
<path d="M190.691 210.636L134.578 177.825C128.122 174.058 117.611 174.058 111.156 177.825L55.3741 210.636C48.9187 214.403 49.0014 220.597 55.4569 224.364L111.57 257.175C118.025 260.942 128.536 260.942 134.992 257.175L190.773 224.364C197.229 220.597 197.146 214.403 190.691 210.636Z" fill="#110945"/>
</g>
<g clip-path="url(#clip0_34_12920)">
<path d="M154.053 143.063L151.535 80.0283L145.908 76.7884V76.7899C144.468 75.856 142.547 75.675 140.848 76.6557L68.6923 118.315C64.9626 120.468 62.665 124.447 62.665 128.754V189.828C62.665 193.66 64.7083 197.201 68.0255 199.118L108.892 222.519C114.622 225.827 121.682 225.827 127.413 222.519L194.422 183.831C196.476 182.645 197.493 180.563 197.479 178.488L197.482 178.487V171.576L154.053 143.063Z" fill="url(#paint0_linear_34_12920)"/>
<path d="M154.053 143.063L151.535 80.0283L145.908 76.7884V76.7899C144.468 75.856 142.547 75.675 140.848 76.6557L68.6923 118.315C64.9626 120.468 62.665 124.447 62.665 128.754V189.828C62.665 193.66 64.7083 197.201 68.0255 199.118L108.892 222.519C114.622 225.827 121.682 225.827 127.413 222.519L194.422 183.831C196.476 182.645 197.493 180.563 197.479 178.488L197.482 178.487V171.576L154.053 143.063Z" fill="url(#paint1_linear_34_12920)"/>
<path d="M154.053 143.063L151.535 80.0283L145.908 76.7884V76.7899C144.468 75.856 142.547 75.675 140.848 76.6557L68.6923 118.315C64.9626 120.468 62.665 124.447 62.665 128.754V189.828C62.665 193.66 64.7083 197.201 68.0255 199.118L108.892 222.519C114.622 225.827 121.682 225.827 127.413 222.519L194.422 183.831C196.476 182.645 197.493 180.563 197.479 178.488L197.482 178.487V171.576L154.053 143.063Z" fill="url(#paint2_linear_34_12920)"/>
<path d="M108.893 222.519C114.623 225.827 121.683 225.827 127.413 222.519L194.423 183.831C196.477 182.645 197.494 180.563 197.48 178.488L197.482 178.487V171.576L108.893 215.512V222.519Z" fill="url(#paint3_linear_34_12920)"/>
<path d="M108.893 222.519C114.623 225.827 121.683 225.827 127.413 222.519L194.423 183.831C196.477 182.645 197.494 180.563 197.48 178.488L197.482 178.487V171.576L108.893 215.512V222.519Z" fill="url(#paint4_linear_34_12920)"/>
<path d="M68.6045 180.526V192.397L108.892 215.512C114.623 218.82 121.683 218.82 127.413 215.512L194.422 176.824C198.502 174.469 198.502 168.58 194.422 166.225L154.053 143.063V131.193L68.6045 180.526Z" fill="url(#paint5_linear_34_12920)"/>
<path d="M68.6045 180.526V192.397L108.892 215.512C114.623 218.82 121.683 218.82 127.413 215.512L194.422 176.824C198.502 174.469 198.502 168.58 194.422 166.225L154.053 143.063V131.193L68.6045 180.526Z" fill="url(#paint6_radial_34_12920)"/>
<path d="M68.6045 192.397L154.053 143.063V84.2776C154.053 80.5488 150.017 78.2184 146.788 80.0826L74.6317 121.742C70.9021 123.895 68.6048 127.874 68.6048 132.181L68.6045 192.397Z" fill="url(#paint7_linear_34_12920)"/>
<path d="M68.6045 192.397L154.053 143.063V84.2776C154.053 80.5488 150.017 78.2184 146.788 80.0826L74.6317 121.742C70.9021 123.895 68.6048 127.874 68.6048 132.181L68.6045 192.397Z" fill="url(#paint8_linear_34_12920)"/>
<path d="M72.584 184.197L150.074 139.458V87.6509L72.584 132.39V184.197Z" fill="url(#paint9_linear_34_12920)"/>
<path d="M72.584 184.197L150.074 139.458V87.6509L72.584 132.39V184.197Z" fill="#110945" fill-opacity="0.4"/>
<path opacity="0.6" d="M153.744 147.023L179.752 161.828L102.262 206.567L76.2539 191.762L153.744 147.023Z" fill="#110945"/>
<path opacity="0.6" d="M155.132 181.288L167.111 188.2L148.886 198.723L136.906 191.81L155.132 181.288Z" fill="#110945"/>
</g>
<g clip-path="url(#clip1_34_12920)">
<path d="M162.015 37.6592L152.018 31.8873C151.169 31.375 150.62 30.9048 149.67 31.0166L117.845 34.7587C117.009 34.8569 116.137 35.1683 115.265 35.6716C114.394 36.175 113.522 36.8705 112.686 37.7373L80.8606 70.7439C78.7939 72.8873 77.407 76.2818 77.407 79.1966V103.099C77.407 120.448 83.1175 133.344 92.6896 138.868L92.6884 138.871L92.7829 138.925C92.7975 138.934 92.8117 138.942 92.8265 138.95L101.185 143.776L162.015 37.6592Z" fill="url(#paint10_linear_34_12920)"/>
<path d="M160.286 37.3108L128.461 41.0526C126.79 41.2492 124.974 42.2979 123.302 44.0312L91.477 77.038C89.4104 79.1814 88.0234 82.576 88.0234 85.4907V109.393C88.0234 131.694 97.4558 146.642 112.401 148.026L122.743 148.984C124.718 149.166 127.045 147.823 129.02 145.36L139.363 132.459C154.308 113.819 163.74 87.9786 163.74 65.6782V41.7756C163.74 38.8607 162.353 37.0678 160.286 37.3108Z" fill="url(#paint11_linear_34_12920)"/>
<path d="M160.286 37.3108L128.461 41.0526C126.79 41.2492 124.974 42.2979 123.302 44.0312L91.477 77.038C89.4104 79.1814 88.0234 82.576 88.0234 85.4907V109.393C88.0234 131.694 97.4558 146.642 112.401 148.026L122.743 148.984C124.718 149.166 127.045 147.823 129.02 145.36L139.363 132.459C154.308 113.819 163.74 87.9786 163.74 65.6782V41.7756C163.74 38.8607 162.353 37.0678 160.286 37.3108Z" fill="url(#paint12_linear_34_12920)"/>
<path d="M160.286 37.3108L128.461 41.0526C126.79 41.2492 124.974 42.2979 123.302 44.0312L91.477 77.038C89.4104 79.1814 88.0234 82.576 88.0234 85.4907V109.393C88.0234 131.694 97.4558 146.642 112.401 148.026L122.743 148.984C124.718 149.166 127.045 147.823 129.02 145.36L139.363 132.459C154.308 113.819 163.74 87.9786 163.74 65.6782V41.7756C163.74 38.8607 162.353 37.0678 160.286 37.3108Z" fill="url(#paint13_linear_34_12920)"/>
<path d="M125.882 48.9283C126.181 48.7554 126.477 48.651 126.759 48.6178L158.519 44.8835V68.693C158.519 78.3435 156.511 88.9452 152.712 99.3528C148.913 109.76 143.486 119.525 137.019 127.592L126.676 140.492C126.431 140.798 126.157 141.043 125.882 141.202C125.608 141.36 125.333 141.432 125.088 141.409L114.745 140.451C108.278 139.852 102.852 136.354 99.0525 130.333C95.2534 124.312 93.2454 116.029 93.2454 106.379V82.5689L125.005 49.6307C125.288 49.3374 125.583 49.1009 125.882 48.9283Z" fill="url(#paint14_angular_34_12920)"/>
<path d="M125.882 48.9283C126.181 48.7554 126.477 48.651 126.759 48.6178L158.519 44.8835V68.693C158.519 78.3435 156.511 88.9452 152.712 99.3528C148.913 109.76 143.486 119.525 137.019 127.592L126.676 140.492C126.431 140.798 126.157 141.043 125.882 141.202C125.608 141.36 125.333 141.432 125.088 141.409L114.745 140.451C108.278 139.852 102.852 136.354 99.0525 130.333C95.2534 124.312 93.2454 116.029 93.2454 106.379V82.5689L125.005 49.6307C125.288 49.3374 125.583 49.1009 125.882 48.9283Z" fill="url(#paint15_linear_34_12920)" fill-opacity="0.8"/>
<path d="M123.606 101.309L107.614 101.965V109.5L107.628 109.51C107.549 111.592 108.086 113.353 109.253 114.235L119.65 122.095C120.742 122.921 122.174 122.822 123.606 121.996C125.038 121.169 126.47 119.614 127.562 117.526L123.606 101.309Z" fill="url(#paint16_linear_34_12920)"/>
<path d="M145.495 64.7725C143.31 63.2295 139.768 65.1657 137.583 69.3404L123.999 95.2935L122.418 94.2057L116.899 90.9971L116.898 91.0084C114.701 89.6977 111.352 91.7332 109.253 95.7441C107.068 99.9188 107.068 104.642 109.253 106.294L119.65 114.154C119.854 114.308 120.073 114.42 120.298 114.511L120.294 114.52L125.838 117.749L150.654 67.7658C150.654 67.7658 145.511 64.7843 145.495 64.7725Z" fill="url(#paint17_linear_34_12920)"/>
<path d="M145.495 64.7725C143.31 63.2295 139.768 65.1657 137.583 69.3404L123.999 95.2935L122.418 94.2057L116.899 90.9971L116.898 91.0084C114.701 89.6977 111.352 91.7332 109.253 95.7441C107.068 99.9188 107.068 104.642 109.253 106.294L119.65 114.154C119.854 114.308 120.073 114.42 120.298 114.511L120.294 114.52L125.838 117.749L150.654 67.7658C150.654 67.7658 145.511 64.7843 145.495 64.7725Z" fill="url(#paint18_radial_34_12920)"/>
<path d="M145.495 64.7725C143.31 63.2295 139.768 65.1657 137.583 69.3404L123.999 95.2935L122.418 94.2057L116.899 90.9971L116.898 91.0084C114.701 89.6977 111.352 91.7332 109.253 95.7441C107.068 99.9188 107.068 104.642 109.253 106.294L119.65 114.154C119.854 114.308 120.073 114.42 120.298 114.511L120.294 114.52L125.838 117.749L150.654 67.7658C150.654 67.7658 145.511 64.7843 145.495 64.7725Z" fill="#110945" fill-opacity="0.2"/>
<path d="M115.112 109.675L109.246 106.288C109.248 106.29 109.25 106.292 109.253 106.294L119.65 114.154C119.854 114.308 120.073 114.42 120.298 114.511L120.294 114.52L125.838 117.75L126.109 117.205L115.112 109.675Z" fill="url(#paint19_linear_34_12920)"/>
<path d="M145.495 64.7725C143.31 63.2295 139.768 65.1657 137.582 69.3404L123.999 95.2935L129.465 99.4256L150.654 67.7658C150.654 67.7658 145.511 64.7843 145.495 64.7725Z" fill="url(#paint20_linear_34_12920)"/>
<path d="M145.495 64.7725C143.31 63.2295 139.768 65.1657 137.582 69.3404L123.999 95.2935L129.465 99.4256L150.654 67.7658C150.654 67.7658 145.511 64.7843 145.495 64.7725Z" fill="url(#paint21_radial_34_12920)"/>
<path d="M145.495 64.7725C143.31 63.2295 139.768 65.1657 137.582 69.3404L123.999 95.2935L129.465 99.4256L150.654 67.7658C150.654 67.7658 145.511 64.7843 145.495 64.7725Z" fill="#110945" fill-opacity="0.4"/>
<path d="M129.465 117.435C128.033 118.262 126.601 118.36 125.509 117.534L115.112 109.674C112.927 108.023 112.927 103.299 115.112 99.1246C117.297 94.9501 120.839 92.9045 123.024 94.5565L129.465 99.4256L143.442 72.7212C145.627 68.5465 149.169 66.5013 151.354 68.1533C153.539 69.8051 153.539 74.5283 151.354 78.703L133.421 112.966C132.329 115.054 130.897 116.608 129.465 117.435Z" fill="url(#paint22_linear_34_12920)"/>
<path d="M129.465 117.435C128.033 118.262 126.601 118.36 125.509 117.534L115.112 109.674C112.927 108.023 112.927 103.299 115.112 99.1246C117.297 94.9501 120.839 92.9045 123.024 94.5565L129.465 99.4256L143.442 72.7212C145.627 68.5465 149.169 66.5013 151.354 68.1533C153.539 69.8051 153.539 74.5283 151.354 78.703L133.421 112.966C132.329 115.054 130.897 116.608 129.465 117.435Z" fill="url(#paint23_radial_34_12920)"/>
</g>
<g opacity="0.6" filter="url(#filter1_f_34_12920)">
<circle cx="36.7869" cy="136.919" r="15" transform="rotate(-45 36.7869 136.919)" fill="url(#paint24_radial_34_12920)"/>
<circle cx="36.7869" cy="136.919" r="15" transform="rotate(-45 36.7869 136.919)" fill="url(#paint25_radial_34_12920)"/>
<circle cx="36.7869" cy="136.919" r="15" transform="rotate(-45 36.7869 136.919)" fill="url(#paint26_radial_34_12920)"/>
<circle cx="36.7869" cy="136.919" r="15" transform="rotate(-45 36.7869 136.919)" fill="url(#paint27_linear_34_12920)" fill-opacity="0.4"/>
</g>
<g filter="url(#filter2_f_34_12920)">
<path d="M40.502 116.371C44.5111 120.38 49.3874 122.754 43.5295 128.612C37.6717 134.47 25.0387 138.246 21.0296 134.237C17.0205 130.228 16.7784 125.577 22.6362 119.719C28.4941 113.861 36.4929 112.362 40.502 116.371Z" fill="#110945"/>
<path d="M40.502 116.371C44.5111 120.38 49.3874 122.754 43.5295 128.612C37.6717 134.47 25.0387 138.246 21.0296 134.237C17.0205 130.228 16.7784 125.577 22.6362 119.719C28.4941 113.861 36.4929 112.362 40.502 116.371Z" fill="#110945"/>
</g>
<rect opacity="0.5" x="18.6938" width="30" height="112" fill="url(#paint28_linear_34_12920)"/>
<circle cx="33.7869" cy="112.23" r="15" transform="rotate(-45 33.7869 112.23)" fill="url(#paint29_radial_34_12920)"/>
<circle cx="33.7869" cy="112.23" r="15" transform="rotate(-45 33.7869 112.23)" fill="url(#paint30_radial_34_12920)"/>
<g opacity="0.6" filter="url(#filter3_f_34_12920)">
<circle cx="233.787" cy="196.901" r="15" transform="rotate(-45 233.787 196.901)" fill="url(#paint31_radial_34_12920)"/>
<circle cx="233.787" cy="196.901" r="15" transform="rotate(-45 233.787 196.901)" fill="url(#paint32_linear_34_12920)"/>
</g>
<g filter="url(#filter4_f_34_12920)">
<path d="M236.502 176.371C240.511 180.38 245.387 182.754 239.53 188.612C233.672 194.47 221.039 198.246 217.03 194.237C213.02 190.228 212.778 185.576 218.636 179.719C224.494 173.861 232.493 172.362 236.502 176.371Z" fill="#110945"/>
<path d="M236.502 176.371C240.511 180.38 245.387 182.754 239.53 188.612C233.672 194.47 221.039 198.246 217.03 194.237C213.02 190.228 212.778 185.576 218.636 179.719C224.494 173.861 232.493 172.362 236.502 176.371Z" fill="#110945"/>
</g>
<circle cx="230.787" cy="172.213" r="15" transform="rotate(-45 230.787 172.213)" fill="url(#paint33_radial_34_12920)"/>
<circle cx="230.787" cy="172.213" r="15" transform="rotate(-45 230.787 172.213)" fill="url(#paint34_linear_34_12920)"/>
<defs>
<filter id="filter0_f_34_12920" x="0.57373" y="125" width="245" height="185" filterUnits="userSpaceOnUse" color-interpolation-filters="sRGB">
<feFlood flood-opacity="0" result="BackgroundImageFix"/>
<feBlend mode="normal" in="SourceGraphic" in2="BackgroundImageFix" result="shape"/>
<feGaussianBlur stdDeviation="25" result="effect1_foregroundBlur_34_12920"/>
</filter>
<filter id="filter1_f_34_12920" x="1.78687" y="101.919" width="70" height="70" filterUnits="userSpaceOnUse" color-interpolation-filters="sRGB">
<feFlood flood-opacity="0" result="BackgroundImageFix"/>
<feBlend mode="normal" in="SourceGraphic" in2="BackgroundImageFix" result="shape"/>
<feGaussianBlur stdDeviation="10" result="effect1_foregroundBlur_34_12920"/>
</filter>
<filter id="filter2_f_34_12920" x="8.11499" y="104.124" width="48.124" height="41.7761" filterUnits="userSpaceOnUse" color-interpolation-filters="sRGB">
<feFlood flood-opacity="0" result="BackgroundImageFix"/>
<feBlend mode="normal" in="SourceGraphic" in2="BackgroundImageFix" result="shape"/>
<feGaussianBlur stdDeviation="5" result="effect1_foregroundBlur_34_12920"/>
</filter>
<filter id="filter3_f_34_12920" x="198.787" y="161.901" width="70" height="70" filterUnits="userSpaceOnUse" color-interpolation-filters="sRGB">
<feFlood flood-opacity="0" result="BackgroundImageFix"/>
<feBlend mode="normal" in="SourceGraphic" in2="BackgroundImageFix" result="shape"/>
<feGaussianBlur stdDeviation="10" result="effect1_foregroundBlur_34_12920"/>
</filter>
<filter id="filter4_f_34_12920" x="204.115" y="164.124" width="48.124" height="41.7761" filterUnits="userSpaceOnUse" color-interpolation-filters="sRGB">
<feFlood flood-opacity="0" result="BackgroundImageFix"/>
<feBlend mode="normal" in="SourceGraphic" in2="BackgroundImageFix" result="shape"/>
<feGaussianBlur stdDeviation="5" result="effect1_foregroundBlur_34_12920"/>
</filter>
<linearGradient id="paint0_linear_34_12920" x1="87.7611" y1="226.143" x2="156.105" y2="107.767" gradientUnits="userSpaceOnUse">
<stop offset="0.0319" stop-color="#43386B"/>
<stop offset="0.2653" stop-color="#4C407A"/>
<stop offset="0.7109" stop-color="#6453A1"/>
<stop offset="1" stop-color="#7662BD"/>
</linearGradient>
<linearGradient id="paint1_linear_34_12920" x1="60.8444" y1="217.144" x2="197.39" y2="217.144" gradientUnits="userSpaceOnUse">
<stop stop-color="#432F9E"/>
<stop offset="0.306667" stop-color="#6B22BC"/>
<stop offset="0.486667" stop-color="#3E309A"/>
<stop offset="0.593333" stop-color="#E9B350"/>
<stop offset="0.8333" stop-color="#93FAFF"/>
<stop offset="0.898705" stop-color="#46ABEC"/>
<stop offset="1" stop-color="#7C1DC9"/>
</linearGradient>
<linearGradient id="paint2_linear_34_12920" x1="192.114" y1="113.529" x2="15.9295" y2="199.905" gradientUnits="userSpaceOnUse">
<stop stop-color="#36208D"/>
<stop offset="0.9798" stop-color="#7C1DC9"/>
</linearGradient>
<linearGradient id="paint3_linear_34_12920" x1="108.221" y1="198.288" x2="164.14" y2="198.288" gradientUnits="userSpaceOnUse">
<stop offset="0.0319" stop-color="#43386B"/>
<stop offset="0.2653" stop-color="#4C407A"/>
<stop offset="0.7109" stop-color="#6453A1"/>
<stop offset="1" stop-color="#7662BD"/>
</linearGradient>
<linearGradient id="paint4_linear_34_12920" x1="259.574" y1="147" x2="123.074" y2="222.5" gradientUnits="userSpaceOnUse">
<stop stop-color="#93FAFF"/>
<stop offset="0.169341" stop-color="#432F9E"/>
<stop offset="0.436615" stop-color="#6B22BC"/>
<stop offset="0.593333" stop-color="#E9B350"/>
<stop offset="0.898705" stop-color="#46ABEC"/>
<stop offset="1" stop-color="#7C1DC9"/>
</linearGradient>
<linearGradient id="paint5_linear_34_12920" x1="133.044" y1="241.428" x2="133.044" y2="122.96" gradientUnits="userSpaceOnUse">
<stop offset="0.0319" stop-color="#43386B"/>
<stop offset="0.1931" stop-color="#4F437A"/>
<stop offset="0.5027" stop-color="#6E60A1"/>
<stop offset="0.9254" stop-color="#A08DDF"/>
<stop offset="1" stop-color="#A996EB"/>
</linearGradient>
<radialGradient id="paint6_radial_34_12920" cx="0" cy="0" r="1" gradientUnits="userSpaceOnUse" gradientTransform="translate(197.562 174.78) rotate(169.329) scale(131.38 112.536)">
<stop stop-color="#E6B657"/>
<stop offset="0.270107" stop-color="#9BECFC"/>
<stop offset="0.49395" stop-color="#4F94E7"/>
<stop offset="0.704932" stop-color="#6346C9"/>
<stop offset="1" stop-color="#2E217D"/>
</radialGradient>
<linearGradient id="paint7_linear_34_12920" x1="117.614" y1="148.567" x2="148.776" y2="202.541" gradientUnits="userSpaceOnUse">
<stop offset="0.0319" stop-color="#43386B"/>
<stop offset="0.1931" stop-color="#4F437A"/>
<stop offset="0.5027" stop-color="#6E60A1"/>
<stop offset="0.9254" stop-color="#A08DDF"/>
<stop offset="1" stop-color="#A996EB"/>
</linearGradient>
<linearGradient id="paint8_linear_34_12920" x1="150.651" y1="107.881" x2="32.0618" y2="156.483" gradientUnits="userSpaceOnUse">
<stop stop-color="#36208D"/>
<stop offset="0.9798" stop-color="#3F1165"/>
</linearGradient>
<linearGradient id="paint9_linear_34_12920" x1="120.074" y1="126.5" x2="120.074" y2="252" gradientUnits="userSpaceOnUse">
<stop stop-color="#36208D"/>
<stop offset="0.9798" stop-color="#7C1DC9"/>
</linearGradient>
<linearGradient id="paint10_linear_34_12920" x1="131.074" y1="22" x2="44.0737" y2="148.5" gradientUnits="userSpaceOnUse">
<stop stop-color="#322A6B"/>
<stop offset="0.0691839" stop-color="#432F9E"/>
<stop offset="0.1091" stop-color="#5D5DD2"/>
<stop offset="0.16395" stop-color="#6DC4E7"/>
<stop offset="0.191038" stop-color="#A9D2F5"/>
<stop offset="0.229609" stop-color="#93FAFF"/>
<stop offset="0.33286" stop-color="#4E96E7"/>
<stop offset="0.406825" stop-color="#6B22BC"/>
<stop offset="0.433669" stop-color="#3E309A"/>
<stop offset="0.532846" stop-color="#E9B350"/>
<stop offset="0.940422" stop-color="#93FAFF"/>
<stop offset="1" stop-color="#7C1DC9"/>
</linearGradient>
<linearGradient id="paint11_linear_34_12920" x1="160.726" y1="65.4261" x2="52.5787" y2="105.143" gradientUnits="userSpaceOnUse">
<stop stop-color="#36208D"/>
<stop offset="0.9798" stop-color="#7C1DC9"/>
</linearGradient>
<linearGradient id="paint12_linear_34_12920" x1="119.047" y1="40.7558" x2="48.6502" y2="147.379" gradientUnits="userSpaceOnUse">
<stop stop-color="#432F9E"/>
<stop offset="0.0185317" stop-color="#1CB6D7"/>
<stop offset="0.0376872" stop-color="#5BA9EC"/>
<stop offset="0.0644663" stop-color="#5D5DD2"/>
<stop offset="0.106433" stop-color="#6DC4E7"/>
<stop offset="0.141839" stop-color="#A9D2F5"/>
<stop offset="0.229609" stop-color="#93FAFF"/>
<stop offset="0.33286" stop-color="#4E96E7"/>
<stop offset="0.406825" stop-color="#6B22BC"/>
<stop offset="0.433669" stop-color="#3E309A"/>
<stop offset="0.532846" stop-color="#E9B350"/>
<stop offset="0.940422" stop-color="#93FAFF"/>
<stop offset="1" stop-color="#7C1DC9"/>
</linearGradient>
<linearGradient id="paint13_linear_34_12920" x1="163.574" y1="37" x2="97.6563" y2="131.058" gradientUnits="userSpaceOnUse">
<stop offset="0.120073" stop-color="#9AEAFC"/>
<stop offset="0.198529" stop-color="#F9DCA3"/>
<stop offset="0.382126" stop-color="#F4C86F"/>
<stop offset="0.644508" stop-color="#E7AD51"/>
<stop offset="0.79727" stop-color="#6141C5"/>
<stop offset="1" stop-color="#5034AF"/>
</linearGradient>
<radialGradient id="paint14_angular_34_12920" cx="0" cy="0" r="1" gradientUnits="userSpaceOnUse" gradientTransform="translate(144.074 70.5) rotate(-78.9965) scale(18.3371 18.3371)">
<stop offset="0.0780814" stop-color="#9AEAFC"/>
<stop offset="0.265141" stop-color="#F9DCA3"/>
<stop offset="0.299439" stop-color="#F4C86F"/>
<stop offset="0.644508" stop-color="#E7AD51"/>
<stop offset="0.79727" stop-color="#6141C5"/>
<stop offset="1" stop-color="#D37EE8"/>
</radialGradient>
<linearGradient id="paint15_linear_34_12920" x1="173.074" y1="80.5" x2="137.574" y2="71.5" gradientUnits="userSpaceOnUse">
<stop stop-color="#6624B8"/>
<stop offset="1" stop-color="#6624B8" stop-opacity="0"/>
</linearGradient>
<linearGradient id="paint16_linear_34_12920" x1="117.588" y1="93.1309" x2="117.588" y2="126.439" gradientUnits="userSpaceOnUse">
<stop offset="0.0319" stop-color="#1A4C4E"/>
<stop offset="1" stop-color="#1A4C4E" stop-opacity="0"/>
</linearGradient>
<linearGradient id="paint17_linear_34_12920" x1="116.253" y1="108.953" x2="122.24" y2="98.6678" gradientUnits="userSpaceOnUse">
<stop offset="0.0319" stop-color="#A996EB"/>
<stop offset="0.6819" stop-color="#D7CFF3"/>
<stop offset="1" stop-color="#E9E5F6"/>
</linearGradient>
<radialGradient id="paint18_radial_34_12920" cx="0" cy="0" r="1" gradientUnits="userSpaceOnUse" gradientTransform="translate(150.681 91.1124) rotate(160.823) scale(45.6503 66.672)">
<stop stop-color="#E6B657"/>
<stop offset="0.270107" stop-color="#9BECFC"/>
<stop offset="0.49395" stop-color="#4F94E7"/>
<stop offset="0.704932" stop-color="#6346C9"/>
<stop offset="1" stop-color="#2E217D"/>
</radialGradient>
<linearGradient id="paint19_linear_34_12920" x1="121.384" y1="114.8" x2="112.958" y2="107.858" gradientUnits="userSpaceOnUse">
<stop offset="0.0319" stop-color="#7662BD"/>
<stop offset="1" stop-color="#7662BD" stop-opacity="0"/>
</linearGradient>
<linearGradient id="paint20_linear_34_12920" x1="127.943" y1="96.3264" x2="140.599" y2="74.584" gradientUnits="userSpaceOnUse">
<stop offset="0.0319" stop-color="#A996EB"/>
<stop offset="0.6819" stop-color="#D7CFF3"/>
<stop offset="1" stop-color="#E9E5F6"/>
</linearGradient>
<radialGradient id="paint21_radial_34_12920" cx="0" cy="0" r="1" gradientUnits="userSpaceOnUse" gradientTransform="translate(150.671 81.911) rotate(159.733) scale(28.4648 43.5407)">
<stop stop-color="#E6B657"/>
<stop offset="0.270107" stop-color="#9BECFC"/>
<stop offset="0.49395" stop-color="#4F94E7"/>
<stop offset="0.704932" stop-color="#6346C9"/>
<stop offset="1" stop-color="#2E217D"/>
</radialGradient>
<linearGradient id="paint22_linear_34_12920" x1="133.233" y1="116.857" x2="133.233" y2="78.7767" gradientUnits="userSpaceOnUse">
<stop stop-color="#DFDAEF"/>
<stop offset="1" stop-color="white"/>
</linearGradient>
<radialGradient id="paint23_radial_34_12920" cx="0" cy="0" r="1" gradientUnits="userSpaceOnUse" gradientTransform="translate(152.574 71) rotate(123.222) scale(84.872 126.694)">
<stop stop-color="#E6B657"/>
<stop offset="0.270107" stop-color="#9BECFC"/>
<stop offset="0.49395" stop-color="#4F94E7"/>
<stop offset="0.704932" stop-color="#6346C9"/>
<stop offset="1" stop-color="#2E217D"/>
</radialGradient>
<radialGradient id="paint24_radial_34_12920" cx="0" cy="0" r="1" gradientUnits="userSpaceOnUse" gradientTransform="translate(29.7869 130.419) rotate(71.9657) scale(22.6108 21.0801)">
<stop offset="0.0572917" stop-color="white"/>
<stop offset="0.578125" stop-color="#CDE0FC"/>
<stop offset="0.854167" stop-color="#639EF5"/>
<stop offset="1" stop-color="#AC94F0"/>
</radialGradient>
<radialGradient id="paint25_radial_34_12920" cx="0" cy="0" r="1" gradientUnits="userSpaceOnUse" gradientTransform="translate(28.7869 130.419) rotate(33.3407) scale(22.7431 21.2034)">
<stop offset="0.0572917" stop-color="#F4C86F"/>
<stop offset="0.433972" stop-color="#E7AD51"/>
<stop offset="0.60894" stop-color="#C18B32"/>
<stop offset="1" stop-color="#D37EE8"/>
</radialGradient>
<radialGradient id="paint26_radial_34_12920" cx="0" cy="0" r="1" gradientUnits="userSpaceOnUse" gradientTransform="translate(29.486 126.432) rotate(52.125) scale(27.2431 25.3987)">
<stop stop-color="#F9DCA3"/>
<stop offset="0.3125" stop-color="#F4C86F"/>
<stop offset="0.494792" stop-color="#E7AD51"/>
<stop offset="0.74188" stop-color="#C18B32"/>
<stop offset="1" stop-color="#D37EE8"/>
</radialGradient>
<linearGradient id="paint27_linear_34_12920" x1="29.7869" y1="151.919" x2="29.7869" y2="140.919" gradientUnits="userSpaceOnUse">
<stop/>
<stop offset="1" stop-opacity="0"/>
</linearGradient>
<linearGradient id="paint28_linear_34_12920" x1="-12.3062" y1="112" x2="-12.3062" y2="34.4615" gradientUnits="userSpaceOnUse">
<stop stop-color="#E2A94D"/>
<stop offset="1" stop-color="#E24DC1" stop-opacity="0"/>
</linearGradient>
<radialGradient id="paint29_radial_34_12920" cx="0" cy="0" r="1" gradientUnits="userSpaceOnUse" gradientTransform="translate(26.486 101.744) rotate(52.125) scale(27.2431 25.3987)">
<stop stop-color="#F9DCA3"/>
<stop offset="0.3125" stop-color="#F4C86F"/>
<stop offset="0.494792" stop-color="#E7AD51"/>
<stop offset="0.74188" stop-color="#C18B32"/>
<stop offset="1" stop-color="#D37EE8"/>
</radialGradient>
<radialGradient id="paint30_radial_34_12920" cx="0" cy="0" r="1" gradientUnits="userSpaceOnUse" gradientTransform="translate(23.4011 118.779) rotate(-45) scale(9 18.8032)">
<stop stop-color="#38218C"/>
<stop offset="1" stop-color="#3C1DB0" stop-opacity="0"/>
</radialGradient>
<radialGradient id="paint31_radial_34_12920" cx="0" cy="0" r="1" gradientUnits="userSpaceOnUse" gradientTransform="translate(232.288 186.616) rotate(100.67) scale(24.8244)">
<stop offset="0.125" stop-color="#96F5FE"/>
<stop offset="0.416667" stop-color="#5A67D6"/>
<stop offset="0.552083" stop-color="#6624B8"/>
<stop offset="0.697917" stop-color="#422F9E"/>
<stop offset="0.932292" stop-color="#DFA64A"/>
<stop offset="1" stop-color="#96F5FF"/>
</radialGradient>
<linearGradient id="paint32_linear_34_12920" x1="227.26" y1="211.286" x2="233.93" y2="204.616" gradientUnits="userSpaceOnUse">
<stop stop-color="#2D1F73"/>
<stop offset="1" stop-color="#312182" stop-opacity="0"/>
</linearGradient>
<radialGradient id="paint33_radial_34_12920" cx="0" cy="0" r="1" gradientUnits="userSpaceOnUse" gradientTransform="translate(229.288 161.927) rotate(100.67) scale(24.8244)">
<stop offset="0.125" stop-color="#96F5FE"/>
<stop offset="0.416667" stop-color="#5A67D6"/>
<stop offset="0.552083" stop-color="#6624B8"/>
<stop offset="0.697917" stop-color="#422F9E"/>
<stop offset="0.932292" stop-color="#DFA64A"/>
<stop offset="1" stop-color="#96F5FF"/>
</radialGradient>
<linearGradient id="paint34_linear_34_12920" x1="224.26" y1="186.598" x2="230.93" y2="179.927" gradientUnits="userSpaceOnUse">
<stop stop-color="#2D1F73"/>
<stop offset="1" stop-color="#312182" stop-opacity="0"/>
</linearGradient>
<clipPath id="clip0_34_12920">
<rect width="149" height="149" fill="white" transform="translate(55.5737 76)"/>
</clipPath>
<clipPath id="clip1_34_12920">
<rect width="118" height="118" fill="white" transform="translate(61.5737 31)"/>
</clipPath>
</defs>
</svg>
