<svg width="234" height="247" viewBox="0 0 234 247" fill="none" xmlns="http://www.w3.org/2000/svg">
<g filter="url(#filter0_f_34_13058)">
<circle cx="189.402" cy="114.375" r="8.13173" transform="rotate(-45 189.402 114.375)" fill="url(#paint0_radial_34_13058)"/>
<circle cx="189.402" cy="114.375" r="8.13173" transform="rotate(-45 189.402 114.375)" fill="url(#paint1_linear_34_13058)"/>
</g>
<g filter="url(#filter1_f_34_13058)">
<path d="M187.926 93.3456C190.4 95.82 193.181 97.514 190.637 100.058C188.093 102.602 181.796 103.432 179.322 100.958C176.848 98.4833 176.295 96.0157 178.839 93.4716C181.383 90.9276 185.451 90.8712 187.926 93.3456Z" fill="#110945"/>
</g>
<circle cx="186.402" cy="89.686" r="8.13173" transform="rotate(-45 186.402 89.686)" fill="url(#paint2_radial_34_13058)"/>
<circle cx="186.402" cy="89.686" r="8.13173" transform="rotate(-45 186.402 89.686)" fill="url(#paint3_linear_34_13058)"/>
<g filter="url(#filter2_f_34_13058)">
<path d="M197.995 183.568L163.472 163.355C159.5 161.035 153.033 161.035 149.061 163.355L114.741 183.568C110.769 185.889 110.82 189.704 114.792 192.025L149.316 212.238C153.288 214.558 159.754 214.558 163.726 212.238L198.046 192.025C202.018 189.704 201.967 185.889 197.995 183.568Z" fill="#110945"/>
</g>
<path d="M187.989 168.908L161.947 155.742C159.191 154.152 154.703 154.152 151.947 155.742L128.944 166.696L126.082 168.279C126.082 170.451 126.012 170.282 126.01 172.114C126.005 175.973 126.297 178.871 128.167 179.949L152.124 193.801C154.88 195.391 159.368 195.391 162.124 193.801L185.94 179.949C187.75 178.905 188.066 176.489 188.07 172.82C188.072 170.904 187.989 171.491 187.989 168.908Z" fill="url(#paint4_linear_34_13058)"/>
<path d="M187.989 168.908L161.947 155.742C159.191 154.152 154.703 154.152 151.947 155.742L128.944 166.696L126.082 168.279C126.082 170.451 126.012 170.282 126.01 172.114C126.005 175.973 126.297 178.871 128.167 179.949L152.124 193.801C154.88 195.391 159.368 195.391 162.124 193.801L185.94 179.949C187.75 178.905 188.066 176.489 188.07 172.82C188.072 170.904 187.989 171.491 187.989 168.908Z" fill="url(#paint5_linear_34_13058)"/>
<path d="M185.905 165.305L161.947 151.453C159.191 149.863 154.704 149.863 151.948 151.453L128.132 165.305C125.375 166.895 125.411 169.51 128.167 171.1L152.124 184.951C154.88 186.541 159.368 186.541 162.124 184.951L185.94 171.1C188.696 169.51 188.661 166.895 185.905 165.305Z" fill="url(#paint6_radial_34_13058)"/>
<path d="M185.905 165.305L161.947 151.453C159.191 149.863 154.704 149.863 151.948 151.453L128.132 165.305C125.375 166.895 125.411 169.51 128.167 171.1L152.124 184.951C154.88 186.541 159.368 186.541 162.124 184.951L185.94 171.1C188.696 169.51 188.661 166.895 185.905 165.305Z" fill="#110945" fill-opacity="0.8"/>
<path d="M185.905 165.305L161.947 151.453C159.191 149.863 154.704 149.863 151.948 151.453L128.132 165.305C125.375 166.895 125.411 169.51 128.167 171.1L152.124 184.951C154.88 186.541 159.368 186.541 162.124 184.951L185.94 171.1C188.696 169.51 188.661 166.895 185.905 165.305Z" fill="url(#paint7_linear_34_13058)"/>
<path d="M187.989 155.079L161.947 141.914C159.191 140.324 154.703 140.324 151.947 141.914L128.944 152.868L126.082 154.451C126.082 156.623 126.012 156.454 126.01 158.285C126.005 162.144 126.297 165.042 128.167 166.121L152.124 179.972C154.88 181.562 159.368 181.562 162.124 179.972L185.94 166.121C187.75 165.076 188.066 162.66 188.07 158.992C188.072 157.075 187.989 157.662 187.989 155.079Z" fill="url(#paint8_linear_34_13058)"/>
<path d="M187.989 155.079L161.947 141.914C159.191 140.324 154.703 140.324 151.947 141.914L128.944 152.868L126.082 154.451C126.082 156.623 126.012 156.454 126.01 158.285C126.005 162.144 126.297 165.042 128.167 166.121L152.124 179.972C154.88 181.562 159.368 181.562 162.124 179.972L185.94 166.121C187.75 165.076 188.066 162.66 188.07 158.992C188.072 157.075 187.989 157.662 187.989 155.079Z" fill="url(#paint9_linear_34_13058)"/>
<path d="M185.905 151.476L161.947 137.625C159.191 136.035 154.704 136.035 151.948 137.625L128.132 151.476C125.375 153.066 125.411 155.681 128.167 157.271L152.124 171.123C154.88 172.713 159.368 172.713 162.124 171.123L185.94 157.271C188.696 155.681 188.661 153.066 185.905 151.476Z" fill="url(#paint10_radial_34_13058)"/>
<path d="M185.905 151.476L161.947 137.625C159.191 136.035 154.704 136.035 151.948 137.625L128.132 151.476C125.375 153.066 125.411 155.681 128.167 157.271L152.124 171.123C154.88 172.713 159.368 172.713 162.124 171.123L185.94 157.271C188.696 155.681 188.661 153.066 185.905 151.476Z" fill="#110945" fill-opacity="0.8"/>
<path d="M185.905 151.476L161.947 137.625C159.191 136.035 154.704 136.035 151.948 137.625L128.132 151.476C125.375 153.066 125.411 155.681 128.167 157.271L152.124 171.123C154.88 172.713 159.368 172.713 162.124 171.123L185.94 157.271C188.696 155.681 188.661 153.066 185.905 151.476Z" fill="url(#paint11_linear_34_13058)"/>
<path d="M187.989 141.67L161.947 128.505C159.191 126.914 154.703 126.914 151.947 128.505L128.944 139.459L126.082 141.042C126.082 143.214 126.012 143.045 126.01 144.876C126.005 148.735 126.297 151.633 128.167 152.712L152.124 166.563C154.88 168.153 159.368 168.153 162.124 166.563L185.94 152.712C187.75 151.667 188.066 149.251 188.07 145.583C188.072 143.666 187.989 144.253 187.989 141.67Z" fill="url(#paint12_linear_34_13058)"/>
<path d="M187.989 141.67L161.947 128.505C159.191 126.914 154.703 126.914 151.947 128.505L128.944 139.459L126.082 141.042C126.082 143.214 126.012 143.045 126.01 144.876C126.005 148.735 126.297 151.633 128.167 152.712L152.124 166.563C154.88 168.153 159.368 168.153 162.124 166.563L185.94 152.712C187.75 151.667 188.066 149.251 188.07 145.583C188.072 143.666 187.989 144.253 187.989 141.67Z" fill="url(#paint13_linear_34_13058)"/>
<path d="M185.905 138.067L161.947 124.216C159.191 122.625 154.704 122.625 151.948 124.216L128.132 138.067C125.375 139.657 125.411 142.272 128.167 143.862L152.124 157.713C154.88 159.303 159.368 159.303 162.124 157.713L185.94 143.862C188.696 142.272 188.661 139.657 185.905 138.067Z" fill="url(#paint14_radial_34_13058)"/>
<g filter="url(#filter3_f_34_13058)">
<path d="M141.774 92.4116L109.82 73.7264C106.143 71.5814 100.158 71.5814 96.4816 73.7264L64.7154 92.4116C61.0392 94.5566 61.0863 98.0839 64.7625 100.229L96.7172 118.914C100.393 121.059 106.379 121.059 110.055 118.914L141.821 100.229C145.498 98.0839 145.451 94.5566 141.774 92.4116Z" fill="#110945"/>
</g>
<path d="M144.921 24.3774L112.028 12.1803C108.282 10.0193 102.183 10.0193 98.4379 12.1803L67.1768 27.0665L63.2871 24.8096C63.2871 27.7614 63.1926 68.0211 63.1893 70.5098C63.1823 75.754 63.5802 79.6929 66.1203 81.1584L98.678 99.9823C102.424 102.143 108.522 102.143 112.268 99.9823L144.633 81.1584C147.093 79.7391 147.523 76.4553 147.529 71.4702C147.532 68.8656 147.418 28.3197 147.418 24.8096" fill="url(#paint15_linear_34_13058)"/>
<path d="M144.921 24.3774L112.028 12.1803C108.282 10.0193 102.183 10.0193 98.4379 12.1803L67.1768 27.0665L63.2871 24.8096C63.2871 27.7614 63.1926 68.0211 63.1893 70.5098C63.1823 75.754 63.5802 79.6929 66.1203 81.1584L98.678 99.9823C102.424 102.143 108.522 102.143 112.268 99.9823L144.633 81.1584C147.093 79.7391 147.523 76.4553 147.529 71.4702C147.532 68.8656 147.418 28.3197 147.418 24.8096" fill="url(#paint16_linear_34_13058)"/>
<path d="M144.585 20.8235L112.028 1.99959C108.282 -0.161321 102.184 -0.161321 98.438 1.99959L66.0724 20.8235C62.3268 22.9844 62.3748 26.5379 66.1204 28.6988L98.6781 47.5227C102.424 49.6836 108.522 49.6836 112.268 47.5227L144.633 28.6988C148.379 26.5379 148.331 22.9844 144.585 20.8235Z" fill="url(#paint17_radial_34_13058)"/>
<g opacity="0.6" filter="url(#filter4_f_34_13058)">
<circle cx="35.2132" cy="180.875" r="15" transform="rotate(-45 35.2132 180.875)" fill="url(#paint18_radial_34_13058)"/>
<circle cx="35.2132" cy="180.875" r="15" transform="rotate(-45 35.2132 180.875)" fill="url(#paint19_radial_34_13058)"/>
<circle cx="35.2132" cy="180.875" r="15" transform="rotate(-45 35.2132 180.875)" fill="url(#paint20_radial_34_13058)"/>
<circle cx="35.2132" cy="180.875" r="15" transform="rotate(-45 35.2132 180.875)" fill="url(#paint21_linear_34_13058)" fill-opacity="0.4"/>
</g>
<g filter="url(#filter5_f_34_13058)">
<path d="M38.9283 160.328C42.9374 164.337 47.8137 166.711 41.9558 172.569C36.0979 178.427 23.465 182.203 19.4559 178.194C15.4467 174.185 15.2046 169.534 21.0625 163.676C26.9204 157.818 34.9191 156.319 38.9283 160.328Z" fill="#110945"/>
<path d="M38.9283 160.328C42.9374 164.337 47.8137 166.711 41.9558 172.569C36.0979 178.427 23.465 182.203 19.4559 178.194C15.4467 174.185 15.2046 169.534 21.0625 163.676C26.9204 157.818 34.9191 156.319 38.9283 160.328Z" fill="#110945"/>
</g>
<rect opacity="0.5" x="17.1201" y="43.957" width="30" height="112" fill="url(#paint22_linear_34_13058)"/>
<circle cx="32.2132" cy="156.188" r="15" transform="rotate(-45 32.2132 156.188)" fill="url(#paint23_radial_34_13058)"/>
<circle cx="32.2132" cy="156.188" r="15" transform="rotate(-45 32.2132 156.188)" fill="url(#paint24_radial_34_13058)"/>
<defs>
<filter id="filter0_f_34_13058" x="161.271" y="86.2427" width="56.2637" height="56.2637" filterUnits="userSpaceOnUse" color-interpolation-filters="sRGB">
<feFlood flood-opacity="0" result="BackgroundImageFix"/>
<feBlend mode="normal" in="SourceGraphic" in2="BackgroundImageFix" result="shape"/>
<feGaussianBlur stdDeviation="10" result="effect1_foregroundBlur_34_13058"/>
</filter>
<filter id="filter1_f_34_13058" x="172.179" y="86.5259" width="24.4663" height="20.9189" filterUnits="userSpaceOnUse" color-interpolation-filters="sRGB">
<feFlood flood-opacity="0" result="BackgroundImageFix"/>
<feBlend mode="normal" in="SourceGraphic" in2="BackgroundImageFix" result="shape"/>
<feGaussianBlur stdDeviation="2.5" result="effect1_foregroundBlur_34_13058"/>
</filter>
<filter id="filter2_f_34_13058" x="79.4644" y="129.292" width="153.859" height="117.01" filterUnits="userSpaceOnUse" color-interpolation-filters="sRGB">
<feFlood flood-opacity="0" result="BackgroundImageFix"/>
<feBlend mode="normal" in="SourceGraphic" in2="BackgroundImageFix" result="shape"/>
<feGaussianBlur stdDeviation="16.1616" result="effect1_foregroundBlur_34_13058"/>
</filter>
<filter id="filter3_f_34_13058" x="33.5081" y="43.6441" width="139.521" height="105.352" filterUnits="userSpaceOnUse" color-interpolation-filters="sRGB">
<feFlood flood-opacity="0" result="BackgroundImageFix"/>
<feBlend mode="normal" in="SourceGraphic" in2="BackgroundImageFix" result="shape"/>
<feGaussianBlur stdDeviation="14.2368" result="effect1_foregroundBlur_34_13058"/>
</filter>
<filter id="filter4_f_34_13058" x="0.213135" y="145.875" width="70" height="70" filterUnits="userSpaceOnUse" color-interpolation-filters="sRGB">
<feFlood flood-opacity="0" result="BackgroundImageFix"/>
<feBlend mode="normal" in="SourceGraphic" in2="BackgroundImageFix" result="shape"/>
<feGaussianBlur stdDeviation="10" result="effect1_foregroundBlur_34_13058"/>
</filter>
<filter id="filter5_f_34_13058" x="6.54126" y="148.081" width="48.124" height="41.7759" filterUnits="userSpaceOnUse" color-interpolation-filters="sRGB">
<feFlood flood-opacity="0" result="BackgroundImageFix"/>
<feBlend mode="normal" in="SourceGraphic" in2="BackgroundImageFix" result="shape"/>
<feGaussianBlur stdDeviation="5" result="effect1_foregroundBlur_34_13058"/>
</filter>
<radialGradient id="paint0_radial_34_13058" cx="0" cy="0" r="1" gradientUnits="userSpaceOnUse" gradientTransform="translate(188.59 108.798) rotate(100.67) scale(13.4577)">
<stop offset="0.125" stop-color="#96F5FE"/>
<stop offset="0.416667" stop-color="#5A67D6"/>
<stop offset="0.552083" stop-color="#6624B8"/>
<stop offset="0.697917" stop-color="#422F9E"/>
<stop offset="0.932292" stop-color="#DFA64A"/>
<stop offset="1" stop-color="#96F5FF"/>
</radialGradient>
<linearGradient id="paint1_linear_34_13058" x1="185.864" y1="122.172" x2="189.48" y2="118.557" gradientUnits="userSpaceOnUse">
<stop stop-color="#2D1F73"/>
<stop offset="1" stop-color="#312182" stop-opacity="0"/>
</linearGradient>
<radialGradient id="paint2_radial_34_13058" cx="0" cy="0" r="1" gradientUnits="userSpaceOnUse" gradientTransform="translate(185.59 84.1099) rotate(100.67) scale(13.4577)">
<stop offset="0.125" stop-color="#96F5FE"/>
<stop offset="0.416667" stop-color="#5A67D6"/>
<stop offset="0.552083" stop-color="#6624B8"/>
<stop offset="0.697917" stop-color="#422F9E"/>
<stop offset="0.932292" stop-color="#DFA64A"/>
<stop offset="1" stop-color="#96F5FF"/>
</radialGradient>
<linearGradient id="paint3_linear_34_13058" x1="182.864" y1="97.484" x2="186.48" y2="93.8681" gradientUnits="userSpaceOnUse">
<stop stop-color="#2D1F73"/>
<stop offset="1" stop-color="#312182" stop-opacity="0"/>
</linearGradient>
<linearGradient id="paint4_linear_34_13058" x1="126.011" y1="143.502" x2="188.201" y2="143.326" gradientUnits="userSpaceOnUse">
<stop stop-color="#3D85FF"/>
<stop offset="0.130208" stop-color="#25A4FF"/>
<stop offset="0.260417" stop-color="#1D99FF"/>
<stop offset="0.426153" stop-color="#3C86FF"/>
<stop offset="0.503412" stop-color="#DFF4FF"/>
<stop offset="0.679613" stop-color="#94BFFF"/>
<stop offset="0.834327" stop-color="#62A2FF"/>
<stop offset="1" stop-color="#47B1FD"/>
</linearGradient>
<linearGradient id="paint5_linear_34_13058" x1="125.172" y1="192.861" x2="188.028" y2="192.861" gradientUnits="userSpaceOnUse">
<stop stop-color="#432F9E"/>
<stop offset="0.306667" stop-color="#6B22BC"/>
<stop offset="0.486667" stop-color="#3E309A"/>
<stop offset="0.593333" stop-color="#E9B350"/>
<stop offset="0.8333" stop-color="#93FAFF"/>
<stop offset="0.898705" stop-color="#46ABEC"/>
<stop offset="1" stop-color="#7C1DC9"/>
</linearGradient>
<radialGradient id="paint6_radial_34_13058" cx="0" cy="0" r="1" gradientUnits="userSpaceOnUse" gradientTransform="translate(188.028 168.28) rotate(170.789) scale(62.8283 46.7304)">
<stop stop-color="#E6B657"/>
<stop offset="0.270107" stop-color="#9BECFC"/>
<stop offset="0.49395" stop-color="#4F94E7"/>
<stop offset="0.704932" stop-color="#6346C9"/>
<stop offset="1" stop-color="#2E217D"/>
</radialGradient>
<linearGradient id="paint7_linear_34_13058" x1="185.525" y1="159.299" x2="131.973" y2="209.359" gradientUnits="userSpaceOnUse">
<stop stop-color="#36208D"/>
<stop offset="0.9798" stop-color="#3F1165"/>
</linearGradient>
<linearGradient id="paint8_linear_34_13058" x1="126.011" y1="129.674" x2="188.201" y2="129.497" gradientUnits="userSpaceOnUse">
<stop stop-color="#3D85FF"/>
<stop offset="0.130208" stop-color="#25A4FF"/>
<stop offset="0.260417" stop-color="#1D99FF"/>
<stop offset="0.426153" stop-color="#3C86FF"/>
<stop offset="0.503412" stop-color="#DFF4FF"/>
<stop offset="0.679613" stop-color="#94BFFF"/>
<stop offset="0.834327" stop-color="#62A2FF"/>
<stop offset="1" stop-color="#47B1FD"/>
</linearGradient>
<linearGradient id="paint9_linear_34_13058" x1="125.172" y1="179.032" x2="188.028" y2="179.032" gradientUnits="userSpaceOnUse">
<stop stop-color="#432F9E"/>
<stop offset="0.306667" stop-color="#6B22BC"/>
<stop offset="0.486667" stop-color="#3E309A"/>
<stop offset="0.593333" stop-color="#E9B350"/>
<stop offset="0.8333" stop-color="#93FAFF"/>
<stop offset="0.898705" stop-color="#46ABEC"/>
<stop offset="1" stop-color="#7C1DC9"/>
</linearGradient>
<radialGradient id="paint10_radial_34_13058" cx="0" cy="0" r="1" gradientUnits="userSpaceOnUse" gradientTransform="translate(188.028 154.451) rotate(170.789) scale(62.8283 46.7304)">
<stop stop-color="#E6B657"/>
<stop offset="0.270107" stop-color="#9BECFC"/>
<stop offset="0.49395" stop-color="#4F94E7"/>
<stop offset="0.704932" stop-color="#6346C9"/>
<stop offset="1" stop-color="#2E217D"/>
</radialGradient>
<linearGradient id="paint11_linear_34_13058" x1="185.525" y1="145.47" x2="131.973" y2="195.531" gradientUnits="userSpaceOnUse">
<stop stop-color="#36208D"/>
<stop offset="0.9798" stop-color="#3F1165"/>
</linearGradient>
<linearGradient id="paint12_linear_34_13058" x1="126.011" y1="116.265" x2="188.201" y2="116.088" gradientUnits="userSpaceOnUse">
<stop stop-color="#3D85FF"/>
<stop offset="0.130208" stop-color="#25A4FF"/>
<stop offset="0.260417" stop-color="#1D99FF"/>
<stop offset="0.426153" stop-color="#3C86FF"/>
<stop offset="0.503412" stop-color="#DFF4FF"/>
<stop offset="0.679613" stop-color="#94BFFF"/>
<stop offset="0.834327" stop-color="#62A2FF"/>
<stop offset="1" stop-color="#47B1FD"/>
</linearGradient>
<linearGradient id="paint13_linear_34_13058" x1="125.172" y1="165.623" x2="188.028" y2="165.623" gradientUnits="userSpaceOnUse">
<stop stop-color="#432F9E"/>
<stop offset="0.306667" stop-color="#6B22BC"/>
<stop offset="0.486667" stop-color="#3E309A"/>
<stop offset="0.593333" stop-color="#E9B350"/>
<stop offset="0.8333" stop-color="#93FAFF"/>
<stop offset="0.898705" stop-color="#46ABEC"/>
<stop offset="1" stop-color="#7C1DC9"/>
</linearGradient>
<radialGradient id="paint14_radial_34_13058" cx="0" cy="0" r="1" gradientUnits="userSpaceOnUse" gradientTransform="translate(188.028 141.042) rotate(170.789) scale(62.8283 46.7304)">
<stop stop-color="#E6B657"/>
<stop offset="0.270107" stop-color="#9BECFC"/>
<stop offset="0.49395" stop-color="#4F94E7"/>
<stop offset="0.704932" stop-color="#6346C9"/>
<stop offset="1" stop-color="#2E217D"/>
</radialGradient>
<linearGradient id="paint15_linear_34_13058" x1="63.1911" y1="31.6284" x2="147.707" y2="31.3883" gradientUnits="userSpaceOnUse">
<stop stop-color="#3D85FF"/>
<stop offset="0.130208" stop-color="#25A4FF"/>
<stop offset="0.260417" stop-color="#1D99FF"/>
<stop offset="0.426153" stop-color="#3C86FF"/>
<stop offset="0.503412" stop-color="#DFF4FF"/>
<stop offset="0.679613" stop-color="#94BFFF"/>
<stop offset="0.834327" stop-color="#62A2FF"/>
<stop offset="1" stop-color="#47B1FD"/>
</linearGradient>
<linearGradient id="paint16_linear_34_13058" x1="62.0503" y1="98.7058" x2="147.471" y2="98.7058" gradientUnits="userSpaceOnUse">
<stop stop-color="#432F9E"/>
<stop offset="0.306667" stop-color="#6B22BC"/>
<stop offset="0.486667" stop-color="#3E309A"/>
<stop offset="0.593333" stop-color="#E9B350"/>
<stop offset="0.8333" stop-color="#93FAFF"/>
<stop offset="0.898705" stop-color="#46ABEC"/>
<stop offset="1" stop-color="#7C1DC9"/>
</linearGradient>
<radialGradient id="paint17_radial_34_13058" cx="0" cy="0" r="1" gradientUnits="userSpaceOnUse" gradientTransform="translate(147.471 24.8662) rotate(170.789) scale(85.3829 63.506)">
<stop stop-color="#E6B657"/>
<stop offset="0.270107" stop-color="#9BECFC"/>
<stop offset="0.49395" stop-color="#4F94E7"/>
<stop offset="0.704932" stop-color="#6346C9"/>
<stop offset="1" stop-color="#2E217D"/>
</radialGradient>
<radialGradient id="paint18_radial_34_13058" cx="0" cy="0" r="1" gradientUnits="userSpaceOnUse" gradientTransform="translate(28.2132 174.375) rotate(71.9657) scale(22.6108 21.0801)">
<stop offset="0.0572917" stop-color="white"/>
<stop offset="0.578125" stop-color="#CDE0FC"/>
<stop offset="0.854167" stop-color="#639EF5"/>
<stop offset="1" stop-color="#AC94F0"/>
</radialGradient>
<radialGradient id="paint19_radial_34_13058" cx="0" cy="0" r="1" gradientUnits="userSpaceOnUse" gradientTransform="translate(27.2132 174.375) rotate(33.3407) scale(22.7431 21.2034)">
<stop offset="0.0572917" stop-color="#F4C86F"/>
<stop offset="0.433972" stop-color="#E7AD51"/>
<stop offset="0.60894" stop-color="#C18B32"/>
<stop offset="1" stop-color="#D37EE8"/>
</radialGradient>
<radialGradient id="paint20_radial_34_13058" cx="0" cy="0" r="1" gradientUnits="userSpaceOnUse" gradientTransform="translate(27.9123 170.389) rotate(52.125) scale(27.2431 25.3987)">
<stop stop-color="#F9DCA3"/>
<stop offset="0.3125" stop-color="#F4C86F"/>
<stop offset="0.494792" stop-color="#E7AD51"/>
<stop offset="0.74188" stop-color="#C18B32"/>
<stop offset="1" stop-color="#D37EE8"/>
</radialGradient>
<linearGradient id="paint21_linear_34_13058" x1="28.2132" y1="195.875" x2="28.2132" y2="184.875" gradientUnits="userSpaceOnUse">
<stop/>
<stop offset="1" stop-opacity="0"/>
</linearGradient>
<linearGradient id="paint22_linear_34_13058" x1="-13.8799" y1="155.957" x2="-13.8799" y2="78.4186" gradientUnits="userSpaceOnUse">
<stop stop-color="#E2A94D"/>
<stop offset="1" stop-color="#E24DC1" stop-opacity="0"/>
</linearGradient>
<radialGradient id="paint23_radial_34_13058" cx="0" cy="0" r="1" gradientUnits="userSpaceOnUse" gradientTransform="translate(24.9123 145.701) rotate(52.125) scale(27.2431 25.3987)">
<stop stop-color="#F9DCA3"/>
<stop offset="0.3125" stop-color="#F4C86F"/>
<stop offset="0.494792" stop-color="#E7AD51"/>
<stop offset="0.74188" stop-color="#C18B32"/>
<stop offset="1" stop-color="#D37EE8"/>
</radialGradient>
<radialGradient id="paint24_radial_34_13058" cx="0" cy="0" r="1" gradientUnits="userSpaceOnUse" gradientTransform="translate(21.8273 162.736) rotate(-45) scale(9 18.8032)">
<stop stop-color="#38218C"/>
<stop offset="1" stop-color="#3C1DB0" stop-opacity="0"/>
</radialGradient>
</defs>
</svg>
