<svg width="126" height="16" viewBox="0 0 126 16" fill="none" xmlns="http://www.w3.org/2000/svg">
<path fill-rule="evenodd" clip-rule="evenodd" d="M14.103 15.5005C13.9846 15.501 13.8691 15.4658 13.7729 15.4001L9.25145 12.2782L4.73001 15.4001C4.63341 15.4668 4.51703 15.5025 4.3977 15.5021C4.27837 15.5017 4.16227 15.4652 4.06619 15.3978C3.9701 15.3304 3.89901 15.2356 3.86319 15.1272C3.82737 15.0188 3.82867 14.9024 3.86692 14.7947L5.63036 9.82026L1.06005 6.83533C0.961049 6.77075 0.886333 6.67771 0.846813 6.5698C0.807292 6.4619 0.80504 6.34479 0.840384 6.23557C0.875728 6.12636 0.946816 6.03078 1.04326 5.96278C1.13971 5.89479 1.25646 5.85795 1.37645 5.85765H7.01481L8.71637 0.870489C8.75303 0.762818 8.82455 0.668971 8.92068 0.602411C9.01681 0.535852 9.1326 0.5 9.25145 0.5C9.3703 0.5 9.4861 0.535852 9.58222 0.602411C9.67835 0.668971 9.74987 0.762818 9.78653 0.870489L11.4881 5.85933H17.1265C17.2466 5.85927 17.3636 5.89585 17.4603 5.96372C17.5571 6.03158 17.6284 6.12716 17.664 6.23645C17.6996 6.34574 17.6975 6.46301 17.658 6.57108C17.6185 6.67915 17.5437 6.77234 17.4446 6.83701L12.8725 9.82026L14.6349 14.7934C14.6635 14.8739 14.6715 14.9597 14.6584 15.0438C14.6452 15.1278 14.6112 15.2077 14.5593 15.2768C14.5073 15.3459 14.4388 15.4022 14.3595 15.4411C14.2802 15.48 14.1922 15.5004 14.103 15.5005ZM40.9768 15.5005C40.8584 15.501 40.7429 15.4658 40.6467 15.4001L36.1252 12.2782L31.6038 15.4001C31.5072 15.4668 31.3908 15.5025 31.2715 15.5021C31.1522 15.5017 31.0361 15.4652 30.94 15.3978C30.8439 15.3304 30.7728 15.2356 30.737 15.1272C30.7011 15.0188 30.7025 14.9024 30.7407 14.7947L32.5041 9.82026L27.9338 6.83533C27.8348 6.77075 27.7601 6.67771 27.7206 6.5698C27.6811 6.4619 27.6788 6.34479 27.7142 6.23557C27.7495 6.12636 27.8206 6.03078 27.917 5.96278C28.0135 5.89479 28.1302 5.85795 28.2502 5.85765H33.8886L35.5902 0.870489C35.6268 0.762818 35.6983 0.668971 35.7945 0.602411C35.8906 0.535852 36.0064 0.5 36.1252 0.5C36.2441 0.5 36.3599 0.535852 36.456 0.602411C36.5521 0.668971 36.6237 0.762818 36.6603 0.870489L38.3619 5.85933H44.0002C44.1204 5.85927 44.2374 5.89585 44.3341 5.96372C44.4309 6.03158 44.5022 6.12716 44.5378 6.23645C44.5734 6.34574 44.5713 6.46301 44.5318 6.57108C44.4923 6.67915 44.4175 6.77234 44.3184 6.83701L39.7463 9.82026L41.5087 14.7934C41.5373 14.8739 41.5453 14.9597 41.5321 15.0438C41.519 15.1278 41.485 15.2077 41.4331 15.2768C41.3811 15.3459 41.3126 15.4022 41.2333 15.4411C41.1539 15.48 41.066 15.5004 40.9768 15.5005ZM67.5205 15.4001C67.6167 15.4658 67.7322 15.501 67.8506 15.5005C67.9398 15.5004 68.0277 15.48 68.1071 15.4411C68.1864 15.4022 68.2549 15.3459 68.3068 15.2768C68.3588 15.2077 68.3928 15.1278 68.4059 15.0438C68.4191 14.9597 68.411 14.8739 68.3825 14.7934L66.6201 9.82026L71.1922 6.83701C71.2913 6.77234 71.3661 6.67915 71.4055 6.57108C71.445 6.46301 71.4471 6.34574 71.4116 6.23645C71.376 6.12716 71.3046 6.03158 71.2079 5.96372C71.1112 5.89585 70.9942 5.85927 70.874 5.85933H65.2356L63.5341 0.870489C63.4974 0.762818 63.4259 0.668971 63.3298 0.602411C63.2337 0.535852 63.1179 0.5 62.999 0.5C62.8802 0.5 62.7644 0.535852 62.6682 0.602411C62.5721 0.668971 62.5006 0.762818 62.4639 0.870489L60.7624 5.85765H55.124C55.004 5.85795 54.8873 5.89479 54.7908 5.96278C54.6944 6.03078 54.6233 6.12636 54.5879 6.23557C54.5526 6.34479 54.5549 6.4619 54.5944 6.5698C54.6339 6.67771 54.7086 6.77075 54.8076 6.83533L59.3779 9.82026L57.6145 14.7947C57.5762 14.9024 57.5749 15.0188 57.6107 15.1272C57.6466 15.2356 57.7177 15.3304 57.8137 15.3978C57.9098 15.4652 58.0259 15.5017 58.1453 15.5021C58.2646 15.5025 58.381 15.4668 58.4776 15.4001L62.999 12.2782L67.5205 15.4001ZM94.7243 15.5005C94.606 15.501 94.4904 15.4658 94.3942 15.4001L89.8728 12.2782L85.3513 15.4001C85.2547 15.4668 85.1384 15.5025 85.019 15.5021C84.8997 15.5017 84.7836 15.4652 84.6875 15.3978C84.5914 15.3304 84.5203 15.2356 84.4845 15.1272C84.4487 15.0188 84.45 14.9024 84.4883 14.7947L86.2517 9.82026L81.6814 6.83533C81.5824 6.77075 81.5077 6.67771 81.4681 6.5698C81.4286 6.4619 81.4264 6.34479 81.4617 6.23557C81.4971 6.12636 81.5682 6.03078 81.6646 5.96278C81.761 5.89479 81.8778 5.85795 81.9978 5.85765H87.6361L89.3377 0.870489C89.3744 0.762818 89.4459 0.668971 89.542 0.602411C89.6381 0.535852 89.7539 0.5 89.8728 0.5C89.9916 0.5 90.1074 0.535852 90.2036 0.602411C90.2997 0.668971 90.3712 0.762818 90.4079 0.870489L92.1094 5.85933H97.7478C97.8679 5.85927 97.9849 5.89585 98.0817 5.96372C98.1784 6.03158 98.2498 6.12716 98.2854 6.23645C98.3209 6.34574 98.3188 6.46301 98.2793 6.57108C98.2398 6.67915 98.1651 6.77234 98.066 6.83701L93.4939 9.82026L95.2563 14.7934C95.2848 14.8739 95.2929 14.9597 95.2797 15.0438C95.2665 15.1278 95.2326 15.2077 95.1806 15.2768C95.1286 15.3459 95.0602 15.4022 94.9808 15.4411C94.9015 15.48 94.8136 15.5004 94.7243 15.5005ZM121.268 15.4001C121.364 15.4658 121.48 15.501 121.598 15.5005C121.687 15.5004 121.775 15.48 121.855 15.4411C121.934 15.4022 122.002 15.3459 122.054 15.2768C122.106 15.2077 122.14 15.1278 122.153 15.0438C122.167 14.9597 122.159 14.8739 122.13 14.7934L120.368 9.82026L124.94 6.83701C125.039 6.77234 125.114 6.67915 125.153 6.57108C125.193 6.46301 125.195 6.34574 125.159 6.23645C125.124 6.12716 125.052 6.03158 124.955 5.96372C124.859 5.89585 124.742 5.85927 124.622 5.85933H118.983L117.282 0.870489C117.245 0.762818 117.173 0.668971 117.077 0.602411C116.981 0.535852 116.865 0.5 116.747 0.5C116.628 0.5 116.512 0.535852 116.416 0.602411C116.32 0.668971 116.248 0.762818 116.211 0.870489L114.51 5.85765H108.872C108.752 5.85795 108.635 5.89479 108.538 5.96278C108.442 6.03078 108.371 6.12636 108.336 6.23557C108.3 6.34479 108.302 6.4619 108.342 6.5698C108.381 6.67771 108.456 6.77075 108.555 6.83533L113.125 9.82026L111.362 14.7947C111.324 14.9024 111.322 15.0188 111.358 15.1272C111.394 15.2356 111.465 15.3304 111.561 15.3978C111.657 15.4652 111.773 15.5017 111.893 15.5021C112.012 15.5025 112.129 15.4668 112.225 15.4001L116.747 12.2782L121.268 15.4001Z" fill="black"/>
<path fill-rule="evenodd" clip-rule="evenodd" d="M14.103 15.5005C13.9846 15.501 13.8691 15.4658 13.7729 15.4001L9.25145 12.2782L4.73001 15.4001C4.63341 15.4668 4.51703 15.5025 4.3977 15.5021C4.27837 15.5017 4.16227 15.4652 4.06619 15.3978C3.9701 15.3304 3.89901 15.2356 3.86319 15.1272C3.82737 15.0188 3.82867 14.9024 3.86692 14.7947L5.63036 9.82026L1.06005 6.83533C0.961049 6.77075 0.886333 6.67771 0.846813 6.5698C0.807292 6.4619 0.80504 6.34479 0.840384 6.23557C0.875728 6.12636 0.946816 6.03078 1.04326 5.96278C1.13971 5.89479 1.25646 5.85795 1.37645 5.85765H7.01481L8.71637 0.870489C8.75303 0.762818 8.82455 0.668971 8.92068 0.602411C9.01681 0.535852 9.1326 0.5 9.25145 0.5C9.3703 0.5 9.4861 0.535852 9.58222 0.602411C9.67835 0.668971 9.74987 0.762818 9.78653 0.870489L11.4881 5.85933H17.1265C17.2466 5.85927 17.3636 5.89585 17.4603 5.96372C17.5571 6.03158 17.6284 6.12716 17.664 6.23645C17.6996 6.34574 17.6975 6.46301 17.658 6.57108C17.6185 6.67915 17.5437 6.77234 17.4446 6.83701L12.8725 9.82026L14.6349 14.7934C14.6635 14.8739 14.6715 14.9597 14.6584 15.0438C14.6452 15.1278 14.6112 15.2077 14.5593 15.2768C14.5073 15.3459 14.4388 15.4022 14.3595 15.4411C14.2802 15.48 14.1922 15.5004 14.103 15.5005ZM40.9768 15.5005C40.8584 15.501 40.7429 15.4658 40.6467 15.4001L36.1252 12.2782L31.6038 15.4001C31.5072 15.4668 31.3908 15.5025 31.2715 15.5021C31.1522 15.5017 31.0361 15.4652 30.94 15.3978C30.8439 15.3304 30.7728 15.2356 30.737 15.1272C30.7011 15.0188 30.7025 14.9024 30.7407 14.7947L32.5041 9.82026L27.9338 6.83533C27.8348 6.77075 27.7601 6.67771 27.7206 6.5698C27.6811 6.4619 27.6788 6.34479 27.7142 6.23557C27.7495 6.12636 27.8206 6.03078 27.917 5.96278C28.0135 5.89479 28.1302 5.85795 28.2502 5.85765H33.8886L35.5902 0.870489C35.6268 0.762818 35.6983 0.668971 35.7945 0.602411C35.8906 0.535852 36.0064 0.5 36.1252 0.5C36.2441 0.5 36.3599 0.535852 36.456 0.602411C36.5521 0.668971 36.6237 0.762818 36.6603 0.870489L38.3619 5.85933H44.0002C44.1204 5.85927 44.2374 5.89585 44.3341 5.96372C44.4309 6.03158 44.5022 6.12716 44.5378 6.23645C44.5734 6.34574 44.5713 6.46301 44.5318 6.57108C44.4923 6.67915 44.4175 6.77234 44.3184 6.83701L39.7463 9.82026L41.5087 14.7934C41.5373 14.8739 41.5453 14.9597 41.5321 15.0438C41.519 15.1278 41.485 15.2077 41.4331 15.2768C41.3811 15.3459 41.3126 15.4022 41.2333 15.4411C41.1539 15.48 41.066 15.5004 40.9768 15.5005ZM67.5205 15.4001C67.6167 15.4658 67.7322 15.501 67.8506 15.5005C67.9398 15.5004 68.0277 15.48 68.1071 15.4411C68.1864 15.4022 68.2549 15.3459 68.3068 15.2768C68.3588 15.2077 68.3928 15.1278 68.4059 15.0438C68.4191 14.9597 68.411 14.8739 68.3825 14.7934L66.6201 9.82026L71.1922 6.83701C71.2913 6.77234 71.3661 6.67915 71.4055 6.57108C71.445 6.46301 71.4471 6.34574 71.4116 6.23645C71.376 6.12716 71.3046 6.03158 71.2079 5.96372C71.1112 5.89585 70.9942 5.85927 70.874 5.85933H65.2356L63.5341 0.870489C63.4974 0.762818 63.4259 0.668971 63.3298 0.602411C63.2337 0.535852 63.1179 0.5 62.999 0.5C62.8802 0.5 62.7644 0.535852 62.6682 0.602411C62.5721 0.668971 62.5006 0.762818 62.4639 0.870489L60.7624 5.85765H55.124C55.004 5.85795 54.8873 5.89479 54.7908 5.96278C54.6944 6.03078 54.6233 6.12636 54.5879 6.23557C54.5526 6.34479 54.5549 6.4619 54.5944 6.5698C54.6339 6.67771 54.7086 6.77075 54.8076 6.83533L59.3779 9.82026L57.6145 14.7947C57.5762 14.9024 57.5749 15.0188 57.6107 15.1272C57.6466 15.2356 57.7177 15.3304 57.8137 15.3978C57.9098 15.4652 58.0259 15.5017 58.1453 15.5021C58.2646 15.5025 58.381 15.4668 58.4776 15.4001L62.999 12.2782L67.5205 15.4001ZM94.7243 15.5005C94.606 15.501 94.4904 15.4658 94.3942 15.4001L89.8728 12.2782L85.3513 15.4001C85.2547 15.4668 85.1384 15.5025 85.019 15.5021C84.8997 15.5017 84.7836 15.4652 84.6875 15.3978C84.5914 15.3304 84.5203 15.2356 84.4845 15.1272C84.4487 15.0188 84.45 14.9024 84.4883 14.7947L86.2517 9.82026L81.6814 6.83533C81.5824 6.77075 81.5077 6.67771 81.4681 6.5698C81.4286 6.4619 81.4264 6.34479 81.4617 6.23557C81.4971 6.12636 81.5682 6.03078 81.6646 5.96278C81.761 5.89479 81.8778 5.85795 81.9978 5.85765H87.6361L89.3377 0.870489C89.3744 0.762818 89.4459 0.668971 89.542 0.602411C89.6381 0.535852 89.7539 0.5 89.8728 0.5C89.9916 0.5 90.1074 0.535852 90.2036 0.602411C90.2997 0.668971 90.3712 0.762818 90.4079 0.870489L92.1094 5.85933H97.7478C97.8679 5.85927 97.9849 5.89585 98.0817 5.96372C98.1784 6.03158 98.2498 6.12716 98.2854 6.23645C98.3209 6.34574 98.3188 6.46301 98.2793 6.57108C98.2398 6.67915 98.1651 6.77234 98.066 6.83701L93.4939 9.82026L95.2563 14.7934C95.2848 14.8739 95.2929 14.9597 95.2797 15.0438C95.2665 15.1278 95.2326 15.2077 95.1806 15.2768C95.1286 15.3459 95.0602 15.4022 94.9808 15.4411C94.9015 15.48 94.8136 15.5004 94.7243 15.5005ZM121.268 15.4001C121.364 15.4658 121.48 15.501 121.598 15.5005C121.687 15.5004 121.775 15.48 121.855 15.4411C121.934 15.4022 122.002 15.3459 122.054 15.2768C122.106 15.2077 122.14 15.1278 122.153 15.0438C122.167 14.9597 122.159 14.8739 122.13 14.7934L120.368 9.82026L124.94 6.83701C125.039 6.77234 125.114 6.67915 125.153 6.57108C125.193 6.46301 125.195 6.34574 125.159 6.23645C125.124 6.12716 125.052 6.03158 124.955 5.96372C124.859 5.89585 124.742 5.85927 124.622 5.85933H118.983L117.282 0.870489C117.245 0.762818 117.173 0.668971 117.077 0.602411C116.981 0.535852 116.865 0.5 116.747 0.5C116.628 0.5 116.512 0.535852 116.416 0.602411C116.32 0.668971 116.248 0.762818 116.211 0.870489L114.51 5.85765H108.872C108.752 5.85795 108.635 5.89479 108.538 5.96278C108.442 6.03078 108.371 6.12636 108.336 6.23557C108.3 6.34479 108.302 6.4619 108.342 6.5698C108.381 6.67771 108.456 6.77075 108.555 6.83533L113.125 9.82026L111.362 14.7947C111.324 14.9024 111.322 15.0188 111.358 15.1272C111.394 15.2356 111.465 15.3304 111.561 15.3978C111.657 15.4652 111.773 15.5017 111.893 15.5021C112.012 15.5025 112.129 15.4668 112.225 15.4001L116.747 12.2782L121.268 15.4001Z" fill="url(#paint0_linear_39_15395)"/>
<path fill-rule="evenodd" clip-rule="evenodd" d="M14.103 15.5005C13.9846 15.501 13.8691 15.4658 13.7729 15.4001L9.25145 12.2782L4.73001 15.4001C4.63341 15.4668 4.51703 15.5025 4.3977 15.5021C4.27837 15.5017 4.16227 15.4652 4.06619 15.3978C3.9701 15.3304 3.89901 15.2356 3.86319 15.1272C3.82737 15.0188 3.82867 14.9024 3.86692 14.7947L5.63036 9.82026L1.06005 6.83533C0.961049 6.77075 0.886333 6.67771 0.846813 6.5698C0.807292 6.4619 0.80504 6.34479 0.840384 6.23557C0.875728 6.12636 0.946816 6.03078 1.04326 5.96278C1.13971 5.89479 1.25646 5.85795 1.37645 5.85765H7.01481L8.71637 0.870489C8.75303 0.762818 8.82455 0.668971 8.92068 0.602411C9.01681 0.535852 9.1326 0.5 9.25145 0.5C9.3703 0.5 9.4861 0.535852 9.58222 0.602411C9.67835 0.668971 9.74987 0.762818 9.78653 0.870489L11.4881 5.85933H17.1265C17.2466 5.85927 17.3636 5.89585 17.4603 5.96372C17.5571 6.03158 17.6284 6.12716 17.664 6.23645C17.6996 6.34574 17.6975 6.46301 17.658 6.57108C17.6185 6.67915 17.5437 6.77234 17.4446 6.83701L12.8725 9.82026L14.6349 14.7934C14.6635 14.8739 14.6715 14.9597 14.6584 15.0438C14.6452 15.1278 14.6112 15.2077 14.5593 15.2768C14.5073 15.3459 14.4388 15.4022 14.3595 15.4411C14.2802 15.48 14.1922 15.5004 14.103 15.5005ZM40.9768 15.5005C40.8584 15.501 40.7429 15.4658 40.6467 15.4001L36.1252 12.2782L31.6038 15.4001C31.5072 15.4668 31.3908 15.5025 31.2715 15.5021C31.1522 15.5017 31.0361 15.4652 30.94 15.3978C30.8439 15.3304 30.7728 15.2356 30.737 15.1272C30.7011 15.0188 30.7025 14.9024 30.7407 14.7947L32.5041 9.82026L27.9338 6.83533C27.8348 6.77075 27.7601 6.67771 27.7206 6.5698C27.6811 6.4619 27.6788 6.34479 27.7142 6.23557C27.7495 6.12636 27.8206 6.03078 27.917 5.96278C28.0135 5.89479 28.1302 5.85795 28.2502 5.85765H33.8886L35.5902 0.870489C35.6268 0.762818 35.6983 0.668971 35.7945 0.602411C35.8906 0.535852 36.0064 0.5 36.1252 0.5C36.2441 0.5 36.3599 0.535852 36.456 0.602411C36.5521 0.668971 36.6237 0.762818 36.6603 0.870489L38.3619 5.85933H44.0002C44.1204 5.85927 44.2374 5.89585 44.3341 5.96372C44.4309 6.03158 44.5022 6.12716 44.5378 6.23645C44.5734 6.34574 44.5713 6.46301 44.5318 6.57108C44.4923 6.67915 44.4175 6.77234 44.3184 6.83701L39.7463 9.82026L41.5087 14.7934C41.5373 14.8739 41.5453 14.9597 41.5321 15.0438C41.519 15.1278 41.485 15.2077 41.4331 15.2768C41.3811 15.3459 41.3126 15.4022 41.2333 15.4411C41.1539 15.48 41.066 15.5004 40.9768 15.5005ZM67.5205 15.4001C67.6167 15.4658 67.7322 15.501 67.8506 15.5005C67.9398 15.5004 68.0277 15.48 68.1071 15.4411C68.1864 15.4022 68.2549 15.3459 68.3068 15.2768C68.3588 15.2077 68.3928 15.1278 68.4059 15.0438C68.4191 14.9597 68.411 14.8739 68.3825 14.7934L66.6201 9.82026L71.1922 6.83701C71.2913 6.77234 71.3661 6.67915 71.4055 6.57108C71.445 6.46301 71.4471 6.34574 71.4116 6.23645C71.376 6.12716 71.3046 6.03158 71.2079 5.96372C71.1112 5.89585 70.9942 5.85927 70.874 5.85933H65.2356L63.5341 0.870489C63.4974 0.762818 63.4259 0.668971 63.3298 0.602411C63.2337 0.535852 63.1179 0.5 62.999 0.5C62.8802 0.5 62.7644 0.535852 62.6682 0.602411C62.5721 0.668971 62.5006 0.762818 62.4639 0.870489L60.7624 5.85765H55.124C55.004 5.85795 54.8873 5.89479 54.7908 5.96278C54.6944 6.03078 54.6233 6.12636 54.5879 6.23557C54.5526 6.34479 54.5549 6.4619 54.5944 6.5698C54.6339 6.67771 54.7086 6.77075 54.8076 6.83533L59.3779 9.82026L57.6145 14.7947C57.5762 14.9024 57.5749 15.0188 57.6107 15.1272C57.6466 15.2356 57.7177 15.3304 57.8137 15.3978C57.9098 15.4652 58.0259 15.5017 58.1453 15.5021C58.2646 15.5025 58.381 15.4668 58.4776 15.4001L62.999 12.2782L67.5205 15.4001ZM94.7243 15.5005C94.606 15.501 94.4904 15.4658 94.3942 15.4001L89.8728 12.2782L85.3513 15.4001C85.2547 15.4668 85.1384 15.5025 85.019 15.5021C84.8997 15.5017 84.7836 15.4652 84.6875 15.3978C84.5914 15.3304 84.5203 15.2356 84.4845 15.1272C84.4487 15.0188 84.45 14.9024 84.4883 14.7947L86.2517 9.82026L81.6814 6.83533C81.5824 6.77075 81.5077 6.67771 81.4681 6.5698C81.4286 6.4619 81.4264 6.34479 81.4617 6.23557C81.4971 6.12636 81.5682 6.03078 81.6646 5.96278C81.761 5.89479 81.8778 5.85795 81.9978 5.85765H87.6361L89.3377 0.870489C89.3744 0.762818 89.4459 0.668971 89.542 0.602411C89.6381 0.535852 89.7539 0.5 89.8728 0.5C89.9916 0.5 90.1074 0.535852 90.2036 0.602411C90.2997 0.668971 90.3712 0.762818 90.4079 0.870489L92.1094 5.85933H97.7478C97.8679 5.85927 97.9849 5.89585 98.0817 5.96372C98.1784 6.03158 98.2498 6.12716 98.2854 6.23645C98.3209 6.34574 98.3188 6.46301 98.2793 6.57108C98.2398 6.67915 98.1651 6.77234 98.066 6.83701L93.4939 9.82026L95.2563 14.7934C95.2848 14.8739 95.2929 14.9597 95.2797 15.0438C95.2665 15.1278 95.2326 15.2077 95.1806 15.2768C95.1286 15.3459 95.0602 15.4022 94.9808 15.4411C94.9015 15.48 94.8136 15.5004 94.7243 15.5005ZM121.268 15.4001C121.364 15.4658 121.48 15.501 121.598 15.5005C121.687 15.5004 121.775 15.48 121.855 15.4411C121.934 15.4022 122.002 15.3459 122.054 15.2768C122.106 15.2077 122.14 15.1278 122.153 15.0438C122.167 14.9597 122.159 14.8739 122.13 14.7934L120.368 9.82026L124.94 6.83701C125.039 6.77234 125.114 6.67915 125.153 6.57108C125.193 6.46301 125.195 6.34574 125.159 6.23645C125.124 6.12716 125.052 6.03158 124.955 5.96372C124.859 5.89585 124.742 5.85927 124.622 5.85933H118.983L117.282 0.870489C117.245 0.762818 117.173 0.668971 117.077 0.602411C116.981 0.535852 116.865 0.5 116.747 0.5C116.628 0.5 116.512 0.535852 116.416 0.602411C116.32 0.668971 116.248 0.762818 116.211 0.870489L114.51 5.85765H108.872C108.752 5.85795 108.635 5.89479 108.538 5.96278C108.442 6.03078 108.371 6.12636 108.336 6.23557C108.3 6.34479 108.302 6.4619 108.342 6.5698C108.381 6.67771 108.456 6.77075 108.555 6.83533L113.125 9.82026L111.362 14.7947C111.324 14.9024 111.322 15.0188 111.358 15.1272C111.394 15.2356 111.465 15.3304 111.561 15.3978C111.657 15.4652 111.773 15.5017 111.893 15.5021C112.012 15.5025 112.129 15.4668 112.225 15.4001L116.747 12.2782L121.268 15.4001Z" fill="#EAB451"/>
<defs>
<linearGradient id="paint0_linear_39_15395" x1="0.81543" y1="15.0247" x2="108.998" y2="15.5086" gradientUnits="userSpaceOnUse">
<stop offset="0.108108" stop-color="#E9B350"/>
<stop offset="0.526042" stop-color="#93FAFF"/>
<stop offset="0.71875" stop-color="#46ABEC"/>
<stop offset="1" stop-color="#7C1DC9"/>
</linearGradient>
</defs>
</svg>
