<svg width="32" height="33" viewBox="0 0 32 33" fill="none" xmlns="http://www.w3.org/2000/svg">
<path fill-rule="evenodd" clip-rule="evenodd" d="M16 0.300781C7.164 0.300781 0 7.46478 0 16.3008C0 25.1368 7.164 32.3008 16 32.3008C24.836 32.3008 32 25.1368 32 16.3008C32 7.46478 24.836 0.300781 16 0.300781ZM16 1.30078C24.271 1.30078 31 8.02978 31 16.3008C31 24.5718 24.271 31.3008 16 31.3008C7.729 31.3008 1 24.5718 1 16.3008C1 8.02978 7.729 1.30078 16 1.30078ZM22.7813 12.5221C23.4453 12.4421 24.0787 12.2661 24.6667 12.0048C24.2267 12.6634 23.6707 13.2421 23.028 13.7034C23.236 18.3208 19.7933 23.4688 13.6973 23.4688C11.844 23.4688 10.12 22.9261 8.66667 21.9941C10.4093 22.1994 12.1467 21.7154 13.5293 20.6328C12.0947 20.6061 10.88 19.6581 10.4627 18.3541C10.9773 18.4528 11.484 18.4234 11.9453 18.2981C10.3667 17.9808 9.276 16.5581 9.312 15.0381C9.75467 15.2834 10.26 15.4314 10.7973 15.4488C9.336 14.4714 8.92133 12.5408 9.78133 11.0661C11.4 13.0514 13.82 14.3581 16.5467 14.4954C16.068 12.4421 17.6253 10.4648 19.7453 10.4648C20.688 10.4648 21.5427 10.8634 22.14 11.5021C22.888 11.3554 23.5907 11.0821 24.2253 10.7061C23.9787 11.4728 23.46 12.1154 22.7813 12.5221Z" fill="#1E1E1E"/>
</svg>
